<?xml version="1.0" encoding="utf-8" standalone="no"?>
<!DOCTYPE svg PUBLIC "-//W3C//DTD SVG 1.1//EN"
  "http://www.w3.org/Graphics/SVG/1.1/DTD/svg11.dtd">
<!-- Created with matplotlib (https://matplotlib.org/) -->
<svg height="209.769256pt" version="1.1" viewBox="0 0 640.6425 209.769256" width="640.6425pt" xmlns="http://www.w3.org/2000/svg" xmlns:xlink="http://www.w3.org/1999/xlink">
 <defs>
  <style type="text/css">
*{stroke-linecap:butt;stroke-linejoin:round;}
  </style>
 </defs>
 <g id="figure_1">
  <g id="patch_1">
   <path d="M 0 209.769256 
L 640.6425 209.769256 
L 640.6425 0 
L 0 0 
z
" style="fill:#ffffff;"/>
  </g>
  <g id="axes_1">
   <g id="patch_2">
    <path d="M 33.1675 199.53458 
L 317.155 199.53458 
L 317.155 18.357813 
L 33.1675 18.357813 
z
" style="fill:#ffffff;"/>
   </g>
   <g id="matplotlib.axis_1"/>
   <g id="matplotlib.axis_2">
    <g id="ytick_1">
     <g id="line2d_1">
      <defs>
       <path d="M 0 0 
L 1.5 0 
" id="mbab1d424a5" style="stroke:#000000;stroke-width:0.5;"/>
      </defs>
      <g>
       <use style="stroke:#000000;stroke-width:0.5;" x="33.1675" xlink:href="#mbab1d424a5" y="187.850345"/>
      </g>
     </g>
     <g id="text_1">
      <!-- −1000 -->
      <defs>
       <path d="M 52.828125 31.203125 
L 5.5625 31.203125 
L 5.5625 39.40625 
L 52.828125 39.40625 
z
" id="ArialMT-8722"/>
       <path d="M 37.25 0 
L 28.46875 0 
L 28.46875 56 
Q 25.296875 52.984375 20.140625 49.953125 
Q 14.984375 46.921875 10.890625 45.40625 
L 10.890625 53.90625 
Q 18.265625 57.375 23.78125 62.296875 
Q 29.296875 67.234375 31.59375 71.875 
L 37.25 71.875 
z
" id="ArialMT-49"/>
       <path d="M 4.15625 35.296875 
Q 4.15625 48 6.765625 55.734375 
Q 9.375 63.484375 14.515625 67.671875 
Q 19.671875 71.875 27.484375 71.875 
Q 33.25 71.875 37.59375 69.546875 
Q 41.9375 67.234375 44.765625 62.859375 
Q 47.609375 58.5 49.21875 52.21875 
Q 50.828125 45.953125 50.828125 35.296875 
Q 50.828125 22.703125 48.234375 14.96875 
Q 45.65625 7.234375 40.5 3 
Q 35.359375 -1.21875 27.484375 -1.21875 
Q 17.140625 -1.21875 11.234375 6.203125 
Q 4.15625 15.140625 4.15625 35.296875 
z
M 13.1875 35.296875 
Q 13.1875 17.671875 17.3125 11.828125 
Q 21.4375 6 27.484375 6 
Q 33.546875 6 37.671875 11.859375 
Q 41.796875 17.71875 41.796875 35.296875 
Q 41.796875 52.984375 37.671875 58.78125 
Q 33.546875 64.59375 27.390625 64.59375 
Q 21.34375 64.59375 17.71875 59.46875 
Q 13.1875 52.9375 13.1875 35.296875 
z
" id="ArialMT-48"/>
      </defs>
      <g transform="translate(7.2 190.71347)scale(0.08 -0.08)">
       <use xlink:href="#ArialMT-8722"/>
       <use x="58.398438" xlink:href="#ArialMT-49"/>
       <use x="114.013672" xlink:href="#ArialMT-48"/>
       <use x="169.628906" xlink:href="#ArialMT-48"/>
       <use x="225.244141" xlink:href="#ArialMT-48"/>
      </g>
     </g>
    </g>
    <g id="ytick_2">
     <g id="line2d_2">
      <g>
       <use style="stroke:#000000;stroke-width:0.5;" x="33.1675" xlink:href="#mbab1d424a5" y="164.207035"/>
      </g>
     </g>
     <g id="text_2">
      <!-- −500 -->
      <defs>
       <path d="M 4.15625 18.75 
L 13.375 19.53125 
Q 14.40625 12.796875 18.140625 9.390625 
Q 21.875 6 27.15625 6 
Q 33.5 6 37.890625 10.78125 
Q 42.28125 15.578125 42.28125 23.484375 
Q 42.28125 31 38.0625 35.34375 
Q 33.84375 39.703125 27 39.703125 
Q 22.75 39.703125 19.328125 37.765625 
Q 15.921875 35.84375 13.96875 32.765625 
L 5.71875 33.84375 
L 12.640625 70.609375 
L 48.25 70.609375 
L 48.25 62.203125 
L 19.671875 62.203125 
L 15.828125 42.96875 
Q 22.265625 47.46875 29.34375 47.46875 
Q 38.71875 47.46875 45.15625 40.96875 
Q 51.609375 34.46875 51.609375 24.265625 
Q 51.609375 14.546875 45.953125 7.46875 
Q 39.0625 -1.21875 27.15625 -1.21875 
Q 17.390625 -1.21875 11.203125 4.25 
Q 5.03125 9.71875 4.15625 18.75 
z
" id="ArialMT-53"/>
      </defs>
      <g transform="translate(11.64875 167.07016)scale(0.08 -0.08)">
       <use xlink:href="#ArialMT-8722"/>
       <use x="58.398438" xlink:href="#ArialMT-53"/>
       <use x="114.013672" xlink:href="#ArialMT-48"/>
       <use x="169.628906" xlink:href="#ArialMT-48"/>
      </g>
     </g>
    </g>
    <g id="ytick_3">
     <g id="line2d_3">
      <g>
       <use style="stroke:#000000;stroke-width:0.5;" x="33.1675" xlink:href="#mbab1d424a5" y="140.563726"/>
      </g>
     </g>
     <g id="text_3">
      <!-- 0 -->
      <g transform="translate(25.21875 143.426851)scale(0.08 -0.08)">
       <use xlink:href="#ArialMT-48"/>
      </g>
     </g>
    </g>
    <g id="ytick_4">
     <g id="line2d_4">
      <g>
       <use style="stroke:#000000;stroke-width:0.5;" x="33.1675" xlink:href="#mbab1d424a5" y="116.920416"/>
      </g>
     </g>
     <g id="text_4">
      <!-- 500 -->
      <g transform="translate(16.32125 119.783541)scale(0.08 -0.08)">
       <use xlink:href="#ArialMT-53"/>
       <use x="55.615234" xlink:href="#ArialMT-48"/>
       <use x="111.230469" xlink:href="#ArialMT-48"/>
      </g>
     </g>
    </g>
    <g id="ytick_5">
     <g id="line2d_5">
      <g>
       <use style="stroke:#000000;stroke-width:0.5;" x="33.1675" xlink:href="#mbab1d424a5" y="93.277106"/>
      </g>
     </g>
     <g id="text_5">
      <!-- 1000 -->
      <g transform="translate(11.8725 96.140231)scale(0.08 -0.08)">
       <use xlink:href="#ArialMT-49"/>
       <use x="55.615234" xlink:href="#ArialMT-48"/>
       <use x="111.230469" xlink:href="#ArialMT-48"/>
       <use x="166.845703" xlink:href="#ArialMT-48"/>
      </g>
     </g>
    </g>
    <g id="ytick_6">
     <g id="line2d_6">
      <g>
       <use style="stroke:#000000;stroke-width:0.5;" x="33.1675" xlink:href="#mbab1d424a5" y="69.633796"/>
      </g>
     </g>
     <g id="text_6">
      <!-- 1500 -->
      <g transform="translate(11.8725 72.496921)scale(0.08 -0.08)">
       <use xlink:href="#ArialMT-49"/>
       <use x="55.615234" xlink:href="#ArialMT-53"/>
       <use x="111.230469" xlink:href="#ArialMT-48"/>
       <use x="166.845703" xlink:href="#ArialMT-48"/>
      </g>
     </g>
    </g>
    <g id="ytick_7">
     <g id="line2d_7">
      <g>
       <use style="stroke:#000000;stroke-width:0.5;" x="33.1675" xlink:href="#mbab1d424a5" y="45.990486"/>
      </g>
     </g>
     <g id="text_7">
      <!-- 2000 -->
      <defs>
       <path d="M 50.34375 8.453125 
L 50.34375 0 
L 3.03125 0 
Q 2.9375 3.171875 4.046875 6.109375 
Q 5.859375 10.9375 9.828125 15.625 
Q 13.8125 20.3125 21.34375 26.46875 
Q 33.015625 36.03125 37.109375 41.625 
Q 41.21875 47.21875 41.21875 52.203125 
Q 41.21875 57.421875 37.46875 61 
Q 33.734375 64.59375 27.734375 64.59375 
Q 21.390625 64.59375 17.578125 60.78125 
Q 13.765625 56.984375 13.71875 50.25 
L 4.6875 51.171875 
Q 5.609375 61.28125 11.65625 66.578125 
Q 17.71875 71.875 27.9375 71.875 
Q 38.234375 71.875 44.234375 66.15625 
Q 50.25 60.453125 50.25 52 
Q 50.25 47.703125 48.484375 43.546875 
Q 46.734375 39.40625 42.65625 34.8125 
Q 38.578125 30.21875 29.109375 22.21875 
Q 21.1875 15.578125 18.9375 13.203125 
Q 16.703125 10.84375 15.234375 8.453125 
z
" id="ArialMT-50"/>
      </defs>
      <g transform="translate(11.8725 48.853611)scale(0.08 -0.08)">
       <use xlink:href="#ArialMT-50"/>
       <use x="55.615234" xlink:href="#ArialMT-48"/>
       <use x="111.230469" xlink:href="#ArialMT-48"/>
       <use x="166.845703" xlink:href="#ArialMT-48"/>
      </g>
     </g>
    </g>
    <g id="ytick_8">
     <g id="line2d_8">
      <g>
       <use style="stroke:#000000;stroke-width:0.5;" x="33.1675" xlink:href="#mbab1d424a5" y="22.347177"/>
      </g>
     </g>
     <g id="text_8">
      <!-- 2500 -->
      <g transform="translate(11.8725 25.210302)scale(0.08 -0.08)">
       <use xlink:href="#ArialMT-50"/>
       <use x="55.615234" xlink:href="#ArialMT-53"/>
       <use x="111.230469" xlink:href="#ArialMT-48"/>
       <use x="166.845703" xlink:href="#ArialMT-48"/>
      </g>
     </g>
    </g>
   </g>
   <g id="line2d_9">
    <path clip-path="url(#pa074290dee)" d="M 33.1675 138.218823 
L 33.552762 143.289901 
L 33.940489 143.289901 
L 34.32596 143.143246 
L 34.715303 143.550856 
L 35.096538 143.32752 
L 42.054379 143.32752 
L 42.447853 146.248921 
L 42.835404 145.209046 
L 43.221236 149.679392 
L 43.608754 149.679392 
L 43.995363 151.742035 
L 44.384282 146.871513 
L 44.770469 145.565771 
L 45.053525 145.140192 
L 51.73701 145.090931 
L 52.125637 134.10983 
L 52.513099 146.539591 
L 52.898033 125.828052 
L 53.285317 119.799008 
L 54.058923 126.486516 
L 54.09853 125.398924 
L 60.493947 125.398924 
L 61.02462 118.185619 
L 61.410592 121.93261 
L 61.79485 112.380713 
L 62.57178 111.245834 
L 62.954927 106.233453 
L 63.345195 97.485428 
L 63.518423 98.71488 
L 66.442653 98.71488 
L 88.879668 111.12842 
L 89.253507 109.573636 
L 94.299581 109.337203 
L 97.579748 109.337203 
L 98.167731 127.668404 
L 98.548097 127.314322 
L 98.940976 127.56967 
L 99.327753 127.245756 
L 99.711249 127.099168 
L 100.097106 128.517481 
L 100.488415 128.012666 
L 100.854684 128.141851 
L 106.9204 128.141851 
L 107.835318 123.846934 
L 116.220785 123.846934 
L 117.121341 117.842726 
L 117.509255 116.5187 
L 117.899964 119.676364 
L 118.282026 119.676364 
L 118.67245 118.974365 
L 125.635965 118.974365 
L 126.021755 114.178233 
L 126.412419 114.178233 
L 126.792207 118.56272 
L 127.184564 115.486949 
L 127.568016 113.859067 
L 127.957872 113.859067 
L 128.346047 115.084177 
L 131.442151 115.084177 
L 155.039346 113.183547 
L 159.299078 113.183547 
L 163.937352 113.582297 
L 164.321197 112.421943 
L 171.95628 112.421943 
L 172.836211 110.72097 
L 173.223098 111.997709 
L 173.612873 114.07832 
L 174.000889 114.905836 
L 174.382714 112.328715 
L 174.774057 113.369021 
L 175.030732 113.227161 
L 181.350031 113.227161 
L 181.736212 104.919979 
L 182.123569 108.584692 
L 182.511744 110.64166 
L 182.892192 108.915699 
L 183.283852 108.442833 
L 183.669618 107.42617 
L 184.058398 109.577711 
L 184.155846 108.868412 
L 190.568794 108.868412 
L 191.02093 111.261548 
L 218.410427 111.261548 
L 218.877921 114.252206 
L 220.039415 111.128641 
L 220.426473 111.9798 
L 220.808391 110.561202 
L 221.197303 109.993762 
L 221.47726 110.078878 
L 224.298575 110.078878 
L 228.159704 107.821657 
L 233.584218 107.821657 
L 237.83573 104.636001 
L 246.320808 104.636001 
L 246.734293 108.76696 
L 247.120675 108.016049 
L 247.510683 94.421713 
L 248.282042 115.798812 
L 249.057481 94.16873 
L 249.395526 98.342956 
L 255.525338 98.342956 
L 256.024334 116.095817 
L 256.792648 114.730235 
L 257.179266 116.198386 
L 257.952605 116.582354 
L 258.339895 116.322277 
L 258.605207 117.102507 
L 283.432748 117.102507 
L 283.881332 109.151097 
L 284.268291 109.568868 
L 289.298073 109.659628 
L 293.161222 108.59708 
L 293.545975 106.701793 
L 293.934011 107.715911 
L 294.327469 109.917188 
L 298.583715 109.917188 
L 302.449021 111.091694 
L 302.836686 90.623049 
L 303.613328 90.61041 
L 304.773232 94.111918 
L 305.123484 92.929753 
L 307.869358 92.929753 
L 311.734371 93.997688 
L 312.120262 85.561755 
L 312.507447 88.526723 
L 312.891902 88.994351 
L 313.664091 88.915568 
L 317.155 88.915568 
L 317.155 88.915568 
" style="fill:none;stroke:#1f77b4;stroke-dasharray:1.85,0.8;stroke-dashoffset:0;stroke-width:0.5;"/>
   </g>
   <g id="line2d_10">
    <path clip-path="url(#pa074290dee)" d="M 33.1675 140.631182 
L 33.552762 139.067492 
L 33.940489 138.178468 
L 34.32596 138.634395 
L 34.715303 139.408191 
L 35.096538 135.795695 
L 35.48481 135.729333 
L 35.76209 136.285837 
L 42.054379 136.285837 
L 42.447853 135.812782 
L 42.835404 130.362913 
L 43.221236 131.379875 
L 43.608754 131.076518 
L 44.770469 126.468465 
L 45.053525 124.409388 
L 51.325942 124.409388 
L 51.73701 122.25751 
L 52.513099 109.857435 
L 52.898033 108.940594 
L 53.285317 107.595883 
L 53.668983 107.718456 
L 54.09853 106.723974 
L 60.493947 106.723974 
L 61.02462 105.851242 
L 61.410592 102.621654 
L 61.79485 101.349817 
L 62.180373 101.368502 
L 62.57178 102.720785 
L 62.954927 103.051457 
L 63.345195 101.75991 
L 63.518423 101.854484 
L 66.442653 101.854484 
L 88.879668 102.093566 
L 89.253507 100.66855 
L 97.579748 100.66855 
L 98.167731 101.724773 
L 98.548097 98.157365 
L 98.940976 100.261082 
L 99.327753 98.343773 
L 99.711249 97.943946 
L 100.488415 94.39937 
L 100.854684 95.344157 
L 106.9204 95.344157 
L 107.453744 74.731427 
L 107.835318 74.952409 
L 107.926334 74.471147 
L 116.220785 74.613007 
L 116.732288 70.725486 
L 117.121341 70.760991 
L 117.509255 72.278695 
L 117.899964 72.306499 
L 118.282026 71.685711 
L 119.059918 71.761908 
L 119.427421 72.140201 
L 125.635965 72.140201 
L 126.021755 50.083428 
L 127.184564 49.921988 
L 127.568016 49.516709 
L 127.957872 49.387262 
L 128.346047 48.925965 
L 131.442151 48.925965 
L 153.88055 49.688956 
L 154.26828 49.819542 
L 154.652466 49.616522 
L 155.039346 49.680617 
L 155.426741 49.243222 
L 155.814774 49.222336 
L 156.198432 49.498295 
L 156.486465 49.259156 
L 159.299078 49.259156 
L 163.16762 51.138039 
L 163.551835 49.444589 
L 163.937352 49.796183 
L 164.711984 47.654342 
L 165.099244 48.235417 
L 165.689232 48.183407 
L 171.95628 48.183407 
L 172.448564 48.86262 
L 172.836211 48.846397 
L 173.223098 48.551826 
L 173.612873 48.857053 
L 174.000889 48.827827 
L 174.382714 48.972013 
L 175.030732 48.954932 
L 181.350031 48.954932 
L 181.736212 47.944137 
L 182.511744 48.370387 
L 183.283852 46.841006 
L 184.155846 45.655538 
L 190.568794 45.655538 
L 191.02093 47.718296 
L 191.408331 47.184204 
L 191.793405 45.828129 
L 192.568386 44.407038 
L 193.339944 44.11885 
L 193.629907 45.216146 
L 218.410427 45.216146 
L 218.877921 44.414397 
L 219.64929 44.370317 
L 220.808391 44.385909 
L 221.197303 51.324006 
L 221.47726 45.162559 
L 224.298575 45.162559 
L 228.159704 62.337128 
L 228.554193 61.956235 
L 229.32671 60.687258 
L 229.713516 60.420416 
L 230.099482 59.436829 
L 230.484849 59.22119 
L 230.787168 59.256016 
L 233.584218 59.256016 
L 237.451567 57.462134 
L 237.83573 57.686282 
L 238.220513 57.610338 
L 238.610773 56.141044 
L 239.385809 56.138888 
L 239.771126 55.082998 
L 246.320808 55.089146 
L 246.734293 55.946942 
L 247.120675 55.821826 
L 247.510683 55.220894 
L 247.896381 54.937767 
L 248.282042 54.502737 
L 249.395526 54.475184 
L 255.525338 54.475184 
L 256.024334 48.98455 
L 256.404946 47.322449 
L 256.792648 47.178196 
L 257.179266 46.609713 
L 257.566957 46.767962 
L 257.952605 47.34675 
L 258.339895 44.965933 
L 258.605207 46.153773 
L 283.432748 46.153773 
L 283.881332 53.628016 
L 284.268291 49.519829 
L 284.654706 49.868162 
L 285.037972 49.868162 
L 285.42525 45.845598 
L 285.813734 24.193764 
L 286.198638 22.512008 
L 286.523761 22.537543 
L 289.298073 22.537543 
L 293.161222 23.572984 
L 293.934011 23.279317 
L 294.327469 22.896687 
L 294.709692 22.927552 
L 295.098101 23.18065 
L 295.482412 22.419203 
L 295.682083 22.449321 
L 298.583715 22.449321 
L 302.449021 23.9498 
L 302.836686 23.573853 
L 303.219526 24.731299 
L 303.613328 24.888474 
L 303.993547 24.573003 
L 304.386655 22.822072 
L 304.773232 22.022268 
L 307.869358 22.022268 
L 311.734371 22.301193 
L 312.120262 22.208374 
L 312.507447 22.53173 
L 312.891902 21.291804 
L 313.283063 20.820739 
L 313.664091 20.954684 
L 314.058593 18.357813 
L 317.155 18.357813 
L 317.155 18.357813 
" style="fill:none;stroke:#1f77b4;stroke-linecap:square;stroke-width:0.5;"/>
   </g>
   <g id="line2d_11">
    <path clip-path="url(#pa074290dee)" d="M 61.019281 108.763992 
L 61.412607 111.168644 
L 61.79537 94.370942 
L 62.180373 93.438329 
L 62.956384 93.438329 
L 63.343124 92.871801 
L 63.518423 93.297381 
L 66.442653 93.297381 
L 88.879668 94.492023 
L 89.252015 77.430222 
L 94.299581 76.673636 
L 97.579748 76.673636 
L 98.167325 196.346443 
L 98.549114 194.530276 
L 98.933332 197.703286 
L 99.328886 197.457817 
L 99.709623 199.53458 
L 100.101136 188.853839 
L 100.486875 192.538285 
L 107.450879 192.531508 
L 107.840972 189.493916 
L 107.930951 191.804112 
L 116.220785 191.804112 
L 116.738875 184.87915 
L 117.123343 187.092901 
L 117.509255 187.275575 
L 117.896453 187.19235 
L 118.286924 186.31033 
L 118.671439 184.796096 
L 119.05944 178.898349 
L 119.427421 178.005578 
L 125.635965 178.005578 
L 126.018352 164.42807 
L 126.409178 163.337525 
L 126.79778 165.198536 
L 127.180638 163.551013 
L 127.57311 141.786013 
L 127.954865 161.353779 
L 128.344198 165.159039 
L 131.442151 165.159039 
L 153.874848 165.329798 
L 154.266097 163.869587 
L 154.654254 164.181265 
L 155.037562 164.943526 
L 155.813216 164.847163 
L 159.299078 164.851059 
L 163.167213 164.453497 
L 163.553507 144.492293 
L 163.93706 143.452969 
L 164.326951 150.374796 
L 164.71394 138.461897 
L 165.099829 136.51508 
L 165.487481 136.180473 
L 165.689232 136.582409 
L 171.95628 136.582409 
L 172.449844 139.198825 
L 172.839045 136.323431 
L 173.22591 136.158878 
L 173.612813 143.96822 
L 173.998078 149.355221 
L 174.381775 146.825387 
L 174.774332 149.411769 
L 181.350031 149.411769 
L 181.736767 149.695061 
L 182.12608 154.824828 
L 182.507151 155.327932 
L 183.667036 155.315485 
L 184.155846 155.167301 
L 190.568794 155.167301 
L 191.021305 153.921262 
L 191.795795 158.432795 
L 192.17969 156.878011 
L 192.567737 149.926878 
L 192.955266 149.406725 
L 193.346356 154.768729 
L 218.410427 154.768729 
L 218.879583 161.383008 
L 219.263654 160.768525 
L 219.648548 161.333558 
L 220.039415 161.133317 
L 220.423476 162.308862 
L 220.810392 159.887335 
L 224.298575 159.887335 
L 228.164193 158.933414 
L 228.550109 159.133039 
L 228.934004 159.17951 
L 229.326175 153.599689 
L 229.713895 156.342313 
L 230.099889 160.986095 
L 230.488246 157.713577 
L 230.787168 157.52443 
L 233.584218 157.52443 
L 237.451567 153.369252 
L 237.836312 151.085527 
L 238.222604 150.659947 
L 238.609364 150.82508 
L 238.998194 151.161761 
L 239.383523 153.71518 
L 239.771126 153.504244 
L 240.138844 153.458849 
L 246.320808 153.458849 
L 246.738739 154.343904 
L 247.123699 152.307252 
L 247.507158 152.960977 
L 247.899525 150.696432 
L 248.282042 151.289011 
L 248.671848 150.356537 
L 249.261182 150.321072 
L 255.525338 150.321072 
L 256.018589 141.832049 
L 256.404368 141.568826 
L 256.797376 138.934485 
L 257.184887 139.291971 
L 257.567457 139.134008 
L 257.955462 138.02116 
L 258.34051 138.626221 
L 283.432748 138.626221 
L 283.878757 135.745899 
L 284.268231 134.389332 
L 284.655066 135.007664 
L 285.037972 135.051156 
L 285.423633 136.104944 
L 285.813734 134.94523 
L 286.202308 134.631378 
L 289.298073 134.631378 
L 293.164936 130.438954 
L 293.550645 132.422995 
L 293.937989 132.775704 
L 294.326055 130.21785 
L 294.708317 130.588636 
L 295.098101 131.352851 
L 295.48638 131.045488 
L 295.682083 131.116418 
L 298.583715 131.116418 
L 302.451631 132.175574 
L 302.832911 129.619587 
L 303.224909 129.696191 
L 303.611666 130.198375 
L 303.999121 130.007092 
L 304.377812 129.26764 
L 304.77118 130.461666 
L 305.123484 128.771169 
L 307.869358 128.771169 
L 307.869358 128.771169 
" style="fill:none;stroke:#ff7f0e;stroke-dasharray:1.85,0.8;stroke-dashoffset:0;stroke-width:0.5;"/>
   </g>
   <g id="line2d_12">
    <path clip-path="url(#pa074290dee)" d="M 51.73701 137.203182 
L 52.121822 132.996545 
L 52.509043 133.826997 
L 52.900142 132.351633 
L 53.285317 132.533815 
L 53.670684 131.946705 
L 54.09853 130.026106 
L 60.493947 130.026106 
L 61.412607 121.852237 
L 61.79537 123.052836 
L 62.57191 115.600689 
L 63.343124 113.809334 
L 63.518423 114.922461 
L 66.442653 114.922461 
L 88.879668 121.456448 
L 89.252015 119.838595 
L 97.579748 119.751944 
L 98.167325 126.33781 
L 98.549114 121.079508 
L 98.933332 121.235141 
L 99.328886 120.14916 
L 99.709623 119.593961 
L 100.101136 122.23583 
L 100.486875 122.853501 
L 106.9204 122.859176 
L 107.450879 112.75809 
L 107.930951 112.503203 
L 116.220785 112.503203 
L 116.738875 110.564268 
L 117.123343 110.452931 
L 117.896453 109.910536 
L 118.286924 111.883385 
L 118.671439 108.337367 
L 119.05944 107.391536 
L 119.427421 107.031172 
L 125.635965 107.031172 
L 126.018352 95.107928 
L 126.409178 93.020824 
L 126.79778 93.474516 
L 127.57311 86.690437 
L 127.954865 87.901836 
L 128.344198 91.977958 
L 131.442151 91.977958 
L 153.874848 86.438924 
L 154.266097 85.590183 
L 154.654254 82.535116 
L 155.037562 82.777829 
L 155.425296 83.516446 
L 155.813216 83.747231 
L 156.200096 83.258641 
L 156.486465 83.205716 
L 159.299078 83.205716 
L 163.167213 106.501256 
L 163.93706 102.411577 
L 164.326951 102.320105 
L 164.71394 102.764959 
L 165.099829 101.729956 
L 165.487481 101.21118 
L 171.95628 101.21118 
L 172.449844 101.552901 
L 172.839045 98.627302 
L 173.22591 98.88329 
L 173.612813 99.561328 
L 174.381775 97.939725 
L 174.774332 99.559635 
L 175.030732 99.654208 
L 181.350031 99.654208 
L 181.736767 93.258602 
L 182.12608 94.263153 
L 182.507151 96.294059 
L 182.895637 95.333623 
L 183.283852 93.005757 
L 183.667036 92.936158 
L 184.058926 93.817128 
L 184.155846 93.627982 
L 191.021305 93.588641 
L 191.408653 94.403565 
L 191.795795 93.955342 
L 192.17969 93.021732 
L 192.567737 93.006873 
L 192.955266 93.205411 
L 193.629907 93.253493 
L 218.410427 93.253493 
L 218.879583 89.344037 
L 219.263654 88.48999 
L 219.648548 85.927945 
L 220.039415 86.101398 
L 220.423476 86.59299 
L 220.810392 86.125798 
L 221.47726 86.202269 
L 224.298575 86.202269 
L 228.164193 86.063924 
L 228.550109 83.432749 
L 228.934004 83.015997 
L 229.713895 83.015997 
L 230.099889 80.971208 
L 230.488246 81.930125 
L 230.787168 81.980683 
L 233.584218 81.980683 
L 237.451567 80.991356 
L 237.836312 75.299498 
L 238.222604 75.720396 
L 238.609364 77.553755 
L 238.998194 77.696088 
L 239.383523 74.172355 
L 239.771126 72.982186 
L 240.138844 72.532018 
L 246.320808 72.532018 
L 246.738739 73.194722 
L 247.123699 72.986892 
L 247.507158 71.642438 
L 247.899525 68.574492 
L 248.282042 69.989403 
L 249.261182 69.950629 
L 255.525338 69.950629 
L 256.404368 68.942963 
L 256.797376 67.658351 
L 257.184887 67.542413 
L 257.567457 66.587006 
L 257.955462 74.892175 
L 258.34051 74.779633 
L 258.605207 75.329104 
L 283.432748 75.329104 
L 283.878757 67.567105 
L 284.268231 66.470434 
L 284.655066 63.557859 
L 285.037972 63.090225 
L 285.813734 63.164902 
L 286.523761 63.187429 
L 289.298073 63.187429 
L 293.164936 61.844615 
L 293.550645 61.352823 
L 293.937989 63.150666 
L 294.708317 63.246771 
L 295.098101 63.623105 
L 295.48638 62.112639 
L 295.682083 62.145618 
L 298.583715 62.145618 
L 302.451631 65.279431 
L 302.832911 64.941494 
L 303.224909 65.243735 
L 303.611666 63.49377 
L 303.999121 63.967461 
L 304.377812 62.357263 
L 304.77118 63.287011 
L 307.869358 63.287011 
L 311.736394 65.981074 
L 312.121273 62.253633 
L 312.898568 60.655967 
L 313.285048 61.415191 
L 313.668354 60.955187 
L 314.055158 62.900463 
L 317.155 62.904833 
L 317.155 62.904833 
" style="fill:none;stroke:#ff7f0e;stroke-linecap:square;stroke-width:0.5;"/>
   </g>
   <g id="patch_3">
    <path d="M 33.1675 199.53458 
L 33.1675 18.357813 
" style="fill:none;stroke:#000000;stroke-linecap:square;stroke-linejoin:miter;stroke-width:0.5;"/>
   </g>
   <g id="patch_4">
    <path d="M 317.155 199.53458 
L 317.155 18.357813 
" style="fill:none;stroke:#000000;stroke-linecap:square;stroke-linejoin:miter;stroke-width:0.5;"/>
   </g>
   <g id="patch_5">
    <path d="M 33.1675 199.53458 
L 317.155 199.53458 
" style="fill:none;stroke:#000000;stroke-linecap:square;stroke-linejoin:miter;stroke-width:0.5;"/>
   </g>
   <g id="patch_6">
    <path d="M 33.1675 18.357813 
L 317.155 18.357813 
" style="fill:none;stroke:#000000;stroke-linecap:square;stroke-linejoin:miter;stroke-width:0.5;"/>
   </g>
   <g id="text_9">
    <!-- COMP2SPY vs. SPY2COMP -->
    <defs>
     <path d="M 58.796875 25.09375 
L 68.265625 22.703125 
Q 65.28125 11.03125 57.546875 4.90625 
Q 49.8125 -1.21875 38.625 -1.21875 
Q 27.046875 -1.21875 19.796875 3.484375 
Q 12.546875 8.203125 8.765625 17.140625 
Q 4.984375 26.078125 4.984375 36.328125 
Q 4.984375 47.515625 9.25 55.828125 
Q 13.53125 64.15625 21.40625 68.46875 
Q 29.296875 72.796875 38.765625 72.796875 
Q 49.515625 72.796875 56.828125 67.328125 
Q 64.15625 61.859375 67.046875 51.953125 
L 57.71875 49.75 
Q 55.21875 57.5625 50.484375 61.125 
Q 45.75 64.703125 38.578125 64.703125 
Q 30.328125 64.703125 24.78125 60.734375 
Q 19.234375 56.78125 16.984375 50.109375 
Q 14.75 43.453125 14.75 36.375 
Q 14.75 27.25 17.40625 20.4375 
Q 20.0625 13.625 25.671875 10.25 
Q 31.296875 6.890625 37.84375 6.890625 
Q 45.796875 6.890625 51.3125 11.46875 
Q 56.84375 16.0625 58.796875 25.09375 
z
" id="ArialMT-67"/>
     <path d="M 4.828125 34.859375 
Q 4.828125 52.6875 14.390625 62.765625 
Q 23.96875 72.859375 39.109375 72.859375 
Q 49.03125 72.859375 56.984375 68.109375 
Q 64.9375 63.375 69.109375 54.90625 
Q 73.296875 46.4375 73.296875 35.6875 
Q 73.296875 24.8125 68.890625 16.21875 
Q 64.5 7.625 56.4375 3.203125 
Q 48.390625 -1.21875 39.0625 -1.21875 
Q 28.953125 -1.21875 20.984375 3.65625 
Q 13.03125 8.546875 8.921875 16.984375 
Q 4.828125 25.4375 4.828125 34.859375 
z
M 14.59375 34.71875 
Q 14.59375 21.78125 21.546875 14.328125 
Q 28.515625 6.890625 39.015625 6.890625 
Q 49.703125 6.890625 56.609375 14.40625 
Q 63.53125 21.921875 63.53125 35.75 
Q 63.53125 44.484375 60.578125 51 
Q 57.625 57.515625 51.921875 61.109375 
Q 46.234375 64.703125 39.15625 64.703125 
Q 29.109375 64.703125 21.84375 57.78125 
Q 14.59375 50.875 14.59375 34.71875 
z
" id="ArialMT-79"/>
     <path d="M 7.421875 0 
L 7.421875 71.578125 
L 21.6875 71.578125 
L 38.625 20.90625 
Q 40.96875 13.8125 42.046875 10.296875 
Q 43.265625 14.203125 45.84375 21.78125 
L 62.984375 71.578125 
L 75.734375 71.578125 
L 75.734375 0 
L 66.609375 0 
L 66.609375 59.90625 
L 45.796875 0 
L 37.25 0 
L 16.546875 60.9375 
L 16.546875 0 
z
" id="ArialMT-77"/>
     <path d="M 7.71875 0 
L 7.71875 71.578125 
L 34.71875 71.578125 
Q 41.84375 71.578125 45.609375 70.90625 
Q 50.875 70.015625 54.4375 67.546875 
Q 58.015625 65.09375 60.1875 60.640625 
Q 62.359375 56.203125 62.359375 50.875 
Q 62.359375 41.75 56.546875 35.421875 
Q 50.734375 29.109375 35.546875 29.109375 
L 17.1875 29.109375 
L 17.1875 0 
z
M 17.1875 37.546875 
L 35.6875 37.546875 
Q 44.875 37.546875 48.734375 40.96875 
Q 52.59375 44.390625 52.59375 50.59375 
Q 52.59375 55.078125 50.3125 58.265625 
Q 48.046875 61.46875 44.34375 62.5 
Q 41.9375 63.140625 35.5 63.140625 
L 17.1875 63.140625 
z
" id="ArialMT-80"/>
     <path d="M 4.5 23 
L 13.421875 23.78125 
Q 14.0625 18.40625 16.375 14.96875 
Q 18.703125 11.53125 23.578125 9.40625 
Q 28.46875 7.28125 34.578125 7.28125 
Q 39.984375 7.28125 44.140625 8.890625 
Q 48.296875 10.5 50.3125 13.296875 
Q 52.34375 16.109375 52.34375 19.4375 
Q 52.34375 22.796875 50.390625 25.3125 
Q 48.4375 27.828125 43.953125 29.546875 
Q 41.0625 30.671875 31.203125 33.03125 
Q 21.34375 35.40625 17.390625 37.5 
Q 12.25 40.1875 9.734375 44.15625 
Q 7.234375 48.140625 7.234375 53.078125 
Q 7.234375 58.5 10.296875 63.203125 
Q 13.375 67.921875 19.28125 70.359375 
Q 25.203125 72.796875 32.421875 72.796875 
Q 40.375 72.796875 46.453125 70.234375 
Q 52.546875 67.671875 55.8125 62.6875 
Q 59.078125 57.71875 59.328125 51.421875 
L 50.25 50.734375 
Q 49.515625 57.515625 45.28125 60.984375 
Q 41.0625 64.453125 32.8125 64.453125 
Q 24.21875 64.453125 20.28125 61.296875 
Q 16.359375 58.15625 16.359375 53.71875 
Q 16.359375 49.859375 19.140625 47.359375 
Q 21.875 44.875 33.421875 42.265625 
Q 44.96875 39.65625 49.265625 37.703125 
Q 55.515625 34.8125 58.484375 30.390625 
Q 61.46875 25.984375 61.46875 20.21875 
Q 61.46875 14.5 58.203125 9.4375 
Q 54.9375 4.390625 48.796875 1.578125 
Q 42.671875 -1.21875 35.015625 -1.21875 
Q 25.296875 -1.21875 18.71875 1.609375 
Q 12.15625 4.4375 8.421875 10.125 
Q 4.6875 15.828125 4.5 23 
z
" id="ArialMT-83"/>
     <path d="M 27.875 0 
L 27.875 30.328125 
L 0.296875 71.578125 
L 11.8125 71.578125 
L 25.921875 50 
Q 29.828125 43.953125 33.203125 37.890625 
Q 36.421875 43.5 41.015625 50.53125 
L 54.890625 71.578125 
L 65.921875 71.578125 
L 37.359375 30.328125 
L 37.359375 0 
z
" id="ArialMT-89"/>
     <path id="ArialMT-32"/>
     <path d="M 21 0 
L 1.265625 51.859375 
L 10.546875 51.859375 
L 21.6875 20.796875 
Q 23.484375 15.765625 25 10.359375 
Q 26.171875 14.453125 28.265625 20.21875 
L 39.796875 51.859375 
L 48.828125 51.859375 
L 29.203125 0 
z
" id="ArialMT-118"/>
     <path d="M 3.078125 15.484375 
L 11.765625 16.84375 
Q 12.5 11.625 15.84375 8.84375 
Q 19.1875 6.0625 25.203125 6.0625 
Q 31.25 6.0625 34.171875 8.515625 
Q 37.109375 10.984375 37.109375 14.3125 
Q 37.109375 17.28125 34.515625 19 
Q 32.71875 20.171875 25.53125 21.96875 
Q 15.875 24.421875 12.140625 26.203125 
Q 8.40625 27.984375 6.46875 31.125 
Q 4.546875 34.28125 4.546875 38.09375 
Q 4.546875 41.546875 6.125 44.5 
Q 7.71875 47.46875 10.453125 49.421875 
Q 12.5 50.921875 16.03125 51.96875 
Q 19.578125 53.03125 23.640625 53.03125 
Q 29.734375 53.03125 34.34375 51.265625 
Q 38.96875 49.515625 41.15625 46.5 
Q 43.359375 43.5 44.1875 38.484375 
L 35.59375 37.3125 
Q 35.015625 41.3125 32.203125 43.546875 
Q 29.390625 45.796875 24.265625 45.796875 
Q 18.21875 45.796875 15.625 43.796875 
Q 13.03125 41.796875 13.03125 39.109375 
Q 13.03125 37.40625 14.109375 36.03125 
Q 15.1875 34.625 17.484375 33.6875 
Q 18.796875 33.203125 25.25 31.453125 
Q 34.578125 28.953125 38.25 27.359375 
Q 41.9375 25.78125 44.03125 22.75 
Q 46.140625 19.734375 46.140625 15.234375 
Q 46.140625 10.84375 43.578125 6.953125 
Q 41.015625 3.078125 36.171875 0.953125 
Q 31.34375 -1.171875 25.25 -1.171875 
Q 15.140625 -1.171875 9.84375 3.03125 
Q 4.546875 7.234375 3.078125 15.484375 
z
" id="ArialMT-115"/>
     <path d="M 9.078125 0 
L 9.078125 10.015625 
L 19.09375 10.015625 
L 19.09375 0 
z
" id="ArialMT-46"/>
    </defs>
    <g transform="translate(110.422969 14.357813)scale(0.1 -0.1)">
     <use xlink:href="#ArialMT-67"/>
     <use x="72.216797" xlink:href="#ArialMT-79"/>
     <use x="150" xlink:href="#ArialMT-77"/>
     <use x="233.300781" xlink:href="#ArialMT-80"/>
     <use x="300" xlink:href="#ArialMT-50"/>
     <use x="355.615234" xlink:href="#ArialMT-83"/>
     <use x="422.314453" xlink:href="#ArialMT-80"/>
     <use x="489.013672" xlink:href="#ArialMT-89"/>
     <use x="555.697266" xlink:href="#ArialMT-32"/>
     <use x="583.480469" xlink:href="#ArialMT-118"/>
     <use x="633.480469" xlink:href="#ArialMT-115"/>
     <use x="683.480469" xlink:href="#ArialMT-46"/>
     <use x="711.263672" xlink:href="#ArialMT-32"/>
     <use x="739.046875" xlink:href="#ArialMT-83"/>
     <use x="805.746094" xlink:href="#ArialMT-80"/>
     <use x="872.445312" xlink:href="#ArialMT-89"/>
     <use x="939.144531" xlink:href="#ArialMT-50"/>
     <use x="994.759766" xlink:href="#ArialMT-67"/>
     <use x="1066.976562" xlink:href="#ArialMT-79"/>
     <use x="1144.759766" xlink:href="#ArialMT-77"/>
     <use x="1228.060547" xlink:href="#ArialMT-80"/>
    </g>
   </g>
   <g id="legend_1">
    <g id="line2d_13">
     <path d="M 40.3675 28.484063 
L 56.3675 28.484063 
" style="fill:none;stroke:#1f77b4;stroke-dasharray:1.85,0.8;stroke-dashoffset:0;stroke-width:0.5;"/>
    </g>
    <g id="line2d_14"/>
    <g id="text_10">
     <!-- COMP2SPY-INTC -->
     <defs>
      <path d="M 3.171875 21.484375 
L 3.171875 30.328125 
L 30.171875 30.328125 
L 30.171875 21.484375 
z
" id="ArialMT-45"/>
      <path d="M 9.328125 0 
L 9.328125 71.578125 
L 18.796875 71.578125 
L 18.796875 0 
z
" id="ArialMT-73"/>
      <path d="M 7.625 0 
L 7.625 71.578125 
L 17.328125 71.578125 
L 54.9375 15.375 
L 54.9375 71.578125 
L 64.015625 71.578125 
L 64.015625 0 
L 54.296875 0 
L 16.703125 56.25 
L 16.703125 0 
z
" id="ArialMT-78"/>
      <path d="M 25.921875 0 
L 25.921875 63.140625 
L 2.34375 63.140625 
L 2.34375 71.578125 
L 59.078125 71.578125 
L 59.078125 63.140625 
L 35.40625 63.140625 
L 35.40625 0 
z
" id="ArialMT-84"/>
     </defs>
     <g transform="translate(62.7675 31.284063)scale(0.08 -0.08)">
      <use xlink:href="#ArialMT-67"/>
      <use x="72.216797" xlink:href="#ArialMT-79"/>
      <use x="150" xlink:href="#ArialMT-77"/>
      <use x="233.300781" xlink:href="#ArialMT-80"/>
      <use x="300" xlink:href="#ArialMT-50"/>
      <use x="355.615234" xlink:href="#ArialMT-83"/>
      <use x="422.314453" xlink:href="#ArialMT-80"/>
      <use x="489.013672" xlink:href="#ArialMT-89"/>
      <use x="555.572266" xlink:href="#ArialMT-45"/>
      <use x="588.873047" xlink:href="#ArialMT-73"/>
      <use x="616.65625" xlink:href="#ArialMT-78"/>
      <use x="688.873047" xlink:href="#ArialMT-84"/>
      <use x="749.957031" xlink:href="#ArialMT-67"/>
     </g>
    </g>
    <g id="line2d_15">
     <path d="M 40.3675 39.800313 
L 56.3675 39.800313 
" style="fill:none;stroke:#1f77b4;stroke-linecap:square;stroke-width:0.5;"/>
    </g>
    <g id="line2d_16"/>
    <g id="text_11">
     <!-- SPY2COMP-INTC -->
     <g transform="translate(62.7675 42.600313)scale(0.08 -0.08)">
      <use xlink:href="#ArialMT-83"/>
      <use x="66.699219" xlink:href="#ArialMT-80"/>
      <use x="133.398438" xlink:href="#ArialMT-89"/>
      <use x="200.097656" xlink:href="#ArialMT-50"/>
      <use x="255.712891" xlink:href="#ArialMT-67"/>
      <use x="327.929688" xlink:href="#ArialMT-79"/>
      <use x="405.712891" xlink:href="#ArialMT-77"/>
      <use x="489.013672" xlink:href="#ArialMT-80"/>
      <use x="555.712891" xlink:href="#ArialMT-45"/>
      <use x="589.013672" xlink:href="#ArialMT-73"/>
      <use x="616.796875" xlink:href="#ArialMT-78"/>
      <use x="689.013672" xlink:href="#ArialMT-84"/>
      <use x="750.097656" xlink:href="#ArialMT-67"/>
     </g>
    </g>
    <g id="line2d_17">
     <path d="M 40.3675 51.116563 
L 56.3675 51.116563 
" style="fill:none;stroke:#ff7f0e;stroke-dasharray:1.85,0.8;stroke-dashoffset:0;stroke-width:0.5;"/>
    </g>
    <g id="line2d_18"/>
    <g id="text_12">
     <!-- COMP2SPY-JPM -->
     <defs>
      <path d="M 2.875 20.3125 
L 11.421875 21.484375 
Q 11.765625 13.28125 14.5 10.25 
Q 17.234375 7.234375 22.078125 7.234375 
Q 25.640625 7.234375 28.21875 8.859375 
Q 30.8125 10.5 31.78125 13.296875 
Q 32.765625 16.109375 32.765625 22.265625 
L 32.765625 71.578125 
L 42.234375 71.578125 
L 42.234375 22.796875 
Q 42.234375 13.8125 40.0625 8.875 
Q 37.890625 3.953125 33.171875 1.359375 
Q 28.46875 -1.21875 22.125 -1.21875 
Q 12.703125 -1.21875 7.6875 4.203125 
Q 2.6875 9.625 2.875 20.3125 
z
" id="ArialMT-74"/>
     </defs>
     <g transform="translate(62.7675 53.916562)scale(0.08 -0.08)">
      <use xlink:href="#ArialMT-67"/>
      <use x="72.216797" xlink:href="#ArialMT-79"/>
      <use x="150" xlink:href="#ArialMT-77"/>
      <use x="233.300781" xlink:href="#ArialMT-80"/>
      <use x="300" xlink:href="#ArialMT-50"/>
      <use x="355.615234" xlink:href="#ArialMT-83"/>
      <use x="422.314453" xlink:href="#ArialMT-80"/>
      <use x="489.013672" xlink:href="#ArialMT-89"/>
      <use x="555.572266" xlink:href="#ArialMT-45"/>
      <use x="588.873047" xlink:href="#ArialMT-74"/>
      <use x="638.873047" xlink:href="#ArialMT-80"/>
      <use x="705.572266" xlink:href="#ArialMT-77"/>
     </g>
    </g>
    <g id="line2d_19">
     <path d="M 40.3675 62.432813 
L 56.3675 62.432813 
" style="fill:none;stroke:#ff7f0e;stroke-linecap:square;stroke-width:0.5;"/>
    </g>
    <g id="line2d_20"/>
    <g id="text_13">
     <!-- SPY2COMP-JPM -->
     <g transform="translate(62.7675 65.232813)scale(0.08 -0.08)">
      <use xlink:href="#ArialMT-83"/>
      <use x="66.699219" xlink:href="#ArialMT-80"/>
      <use x="133.398438" xlink:href="#ArialMT-89"/>
      <use x="200.097656" xlink:href="#ArialMT-50"/>
      <use x="255.712891" xlink:href="#ArialMT-67"/>
      <use x="327.929688" xlink:href="#ArialMT-79"/>
      <use x="405.712891" xlink:href="#ArialMT-77"/>
      <use x="489.013672" xlink:href="#ArialMT-80"/>
      <use x="555.712891" xlink:href="#ArialMT-45"/>
      <use x="589.013672" xlink:href="#ArialMT-74"/>
      <use x="639.013672" xlink:href="#ArialMT-80"/>
      <use x="705.712891" xlink:href="#ArialMT-77"/>
     </g>
    </g>
   </g>
  </g>
  <g id="axes_2">
   <g id="patch_7">
    <path d="M 349.455 199.53458 
L 633.4425 199.53458 
L 633.4425 18.357813 
L 349.455 18.357813 
z
" style="fill:#ffffff;"/>
   </g>
   <g id="matplotlib.axis_3"/>
   <g id="matplotlib.axis_4">
    <g id="ytick_9">
     <g id="line2d_21">
      <g>
       <use style="stroke:#000000;stroke-width:0.5;" x="349.455" xlink:href="#mbab1d424a5" y="198.116131"/>
      </g>
     </g>
     <g id="text_14">
      <!-- 0 -->
      <g transform="translate(341.50625 200.979256)scale(0.08 -0.08)">
       <use xlink:href="#ArialMT-48"/>
      </g>
     </g>
    </g>
    <g id="ytick_10">
     <g id="line2d_22">
      <g>
       <use style="stroke:#000000;stroke-width:0.5;" x="349.455" xlink:href="#mbab1d424a5" y="177.146787"/>
      </g>
     </g>
     <g id="text_15">
      <!-- 1000 -->
      <g transform="translate(328.16 180.009912)scale(0.08 -0.08)">
       <use xlink:href="#ArialMT-49"/>
       <use x="55.615234" xlink:href="#ArialMT-48"/>
       <use x="111.230469" xlink:href="#ArialMT-48"/>
       <use x="166.845703" xlink:href="#ArialMT-48"/>
      </g>
     </g>
    </g>
    <g id="ytick_11">
     <g id="line2d_23">
      <g>
       <use style="stroke:#000000;stroke-width:0.5;" x="349.455" xlink:href="#mbab1d424a5" y="156.177443"/>
      </g>
     </g>
     <g id="text_16">
      <!-- 2000 -->
      <g transform="translate(328.16 159.040568)scale(0.08 -0.08)">
       <use xlink:href="#ArialMT-50"/>
       <use x="55.615234" xlink:href="#ArialMT-48"/>
       <use x="111.230469" xlink:href="#ArialMT-48"/>
       <use x="166.845703" xlink:href="#ArialMT-48"/>
      </g>
     </g>
    </g>
    <g id="ytick_12">
     <g id="line2d_24">
      <g>
       <use style="stroke:#000000;stroke-width:0.5;" x="349.455" xlink:href="#mbab1d424a5" y="135.208098"/>
      </g>
     </g>
     <g id="text_17">
      <!-- 3000 -->
      <defs>
       <path d="M 4.203125 18.890625 
L 12.984375 20.0625 
Q 14.5 12.59375 18.140625 9.296875 
Q 21.78125 6 27 6 
Q 33.203125 6 37.46875 10.296875 
Q 41.75 14.59375 41.75 20.953125 
Q 41.75 27 37.796875 30.921875 
Q 33.84375 34.859375 27.734375 34.859375 
Q 25.25 34.859375 21.53125 33.890625 
L 22.515625 41.609375 
Q 23.390625 41.5 23.921875 41.5 
Q 29.546875 41.5 34.03125 44.421875 
Q 38.53125 47.359375 38.53125 53.46875 
Q 38.53125 58.296875 35.25 61.46875 
Q 31.984375 64.65625 26.8125 64.65625 
Q 21.6875 64.65625 18.265625 61.421875 
Q 14.84375 58.203125 13.875 51.765625 
L 5.078125 53.328125 
Q 6.6875 62.15625 12.390625 67.015625 
Q 18.109375 71.875 26.609375 71.875 
Q 32.46875 71.875 37.390625 69.359375 
Q 42.328125 66.84375 44.9375 62.5 
Q 47.5625 58.15625 47.5625 53.265625 
Q 47.5625 48.640625 45.0625 44.828125 
Q 42.578125 41.015625 37.703125 38.765625 
Q 44.046875 37.3125 47.5625 32.6875 
Q 51.078125 28.078125 51.078125 21.140625 
Q 51.078125 11.765625 44.234375 5.25 
Q 37.40625 -1.265625 26.953125 -1.265625 
Q 17.53125 -1.265625 11.296875 4.34375 
Q 5.078125 9.96875 4.203125 18.890625 
z
" id="ArialMT-51"/>
      </defs>
      <g transform="translate(328.16 138.071223)scale(0.08 -0.08)">
       <use xlink:href="#ArialMT-51"/>
       <use x="55.615234" xlink:href="#ArialMT-48"/>
       <use x="111.230469" xlink:href="#ArialMT-48"/>
       <use x="166.845703" xlink:href="#ArialMT-48"/>
      </g>
     </g>
    </g>
    <g id="ytick_13">
     <g id="line2d_25">
      <g>
       <use style="stroke:#000000;stroke-width:0.5;" x="349.455" xlink:href="#mbab1d424a5" y="114.238754"/>
      </g>
     </g>
     <g id="text_18">
      <!-- 4000 -->
      <defs>
       <path d="M 32.328125 0 
L 32.328125 17.140625 
L 1.265625 17.140625 
L 1.265625 25.203125 
L 33.9375 71.578125 
L 41.109375 71.578125 
L 41.109375 25.203125 
L 50.78125 25.203125 
L 50.78125 17.140625 
L 41.109375 17.140625 
L 41.109375 0 
z
M 32.328125 25.203125 
L 32.328125 57.46875 
L 9.90625 25.203125 
z
" id="ArialMT-52"/>
      </defs>
      <g transform="translate(328.16 117.101879)scale(0.08 -0.08)">
       <use xlink:href="#ArialMT-52"/>
       <use x="55.615234" xlink:href="#ArialMT-48"/>
       <use x="111.230469" xlink:href="#ArialMT-48"/>
       <use x="166.845703" xlink:href="#ArialMT-48"/>
      </g>
     </g>
    </g>
    <g id="ytick_14">
     <g id="line2d_26">
      <g>
       <use style="stroke:#000000;stroke-width:0.5;" x="349.455" xlink:href="#mbab1d424a5" y="93.26941"/>
      </g>
     </g>
     <g id="text_19">
      <!-- 5000 -->
      <g transform="translate(328.16 96.132535)scale(0.08 -0.08)">
       <use xlink:href="#ArialMT-53"/>
       <use x="55.615234" xlink:href="#ArialMT-48"/>
       <use x="111.230469" xlink:href="#ArialMT-48"/>
       <use x="166.845703" xlink:href="#ArialMT-48"/>
      </g>
     </g>
    </g>
    <g id="ytick_15">
     <g id="line2d_27">
      <g>
       <use style="stroke:#000000;stroke-width:0.5;" x="349.455" xlink:href="#mbab1d424a5" y="72.300066"/>
      </g>
     </g>
     <g id="text_20">
      <!-- 6000 -->
      <defs>
       <path d="M 49.75 54.046875 
L 41.015625 53.375 
Q 39.84375 58.546875 37.703125 60.890625 
Q 34.125 64.65625 28.90625 64.65625 
Q 24.703125 64.65625 21.53125 62.3125 
Q 17.390625 59.28125 14.984375 53.46875 
Q 12.59375 47.65625 12.5 36.921875 
Q 15.671875 41.75 20.265625 44.09375 
Q 24.859375 46.4375 29.890625 46.4375 
Q 38.671875 46.4375 44.84375 39.96875 
Q 51.03125 33.5 51.03125 23.25 
Q 51.03125 16.5 48.125 10.71875 
Q 45.21875 4.9375 40.140625 1.859375 
Q 35.0625 -1.21875 28.609375 -1.21875 
Q 17.625 -1.21875 10.6875 6.859375 
Q 3.765625 14.9375 3.765625 33.5 
Q 3.765625 54.25 11.421875 63.671875 
Q 18.109375 71.875 29.4375 71.875 
Q 37.890625 71.875 43.28125 67.140625 
Q 48.6875 62.40625 49.75 54.046875 
z
M 13.875 23.1875 
Q 13.875 18.65625 15.796875 14.5 
Q 17.71875 10.359375 21.1875 8.171875 
Q 24.65625 6 28.46875 6 
Q 34.03125 6 38.03125 10.484375 
Q 42.046875 14.984375 42.046875 22.703125 
Q 42.046875 30.125 38.078125 34.390625 
Q 34.125 38.671875 28.125 38.671875 
Q 22.171875 38.671875 18.015625 34.390625 
Q 13.875 30.125 13.875 23.1875 
z
" id="ArialMT-54"/>
      </defs>
      <g transform="translate(328.16 75.163191)scale(0.08 -0.08)">
       <use xlink:href="#ArialMT-54"/>
       <use x="55.615234" xlink:href="#ArialMT-48"/>
       <use x="111.230469" xlink:href="#ArialMT-48"/>
       <use x="166.845703" xlink:href="#ArialMT-48"/>
      </g>
     </g>
    </g>
    <g id="ytick_16">
     <g id="line2d_28">
      <g>
       <use style="stroke:#000000;stroke-width:0.5;" x="349.455" xlink:href="#mbab1d424a5" y="51.330721"/>
      </g>
     </g>
     <g id="text_21">
      <!-- 7000 -->
      <defs>
       <path d="M 4.734375 62.203125 
L 4.734375 70.65625 
L 51.078125 70.65625 
L 51.078125 63.8125 
Q 44.234375 56.546875 37.515625 44.484375 
Q 30.8125 32.421875 27.15625 19.671875 
Q 24.515625 10.6875 23.78125 0 
L 14.75 0 
Q 14.890625 8.453125 18.0625 20.40625 
Q 21.234375 32.375 27.171875 43.484375 
Q 33.109375 54.59375 39.796875 62.203125 
z
" id="ArialMT-55"/>
      </defs>
      <g transform="translate(328.16 54.193846)scale(0.08 -0.08)">
       <use xlink:href="#ArialMT-55"/>
       <use x="55.615234" xlink:href="#ArialMT-48"/>
       <use x="111.230469" xlink:href="#ArialMT-48"/>
       <use x="166.845703" xlink:href="#ArialMT-48"/>
      </g>
     </g>
    </g>
    <g id="ytick_17">
     <g id="line2d_29">
      <g>
       <use style="stroke:#000000;stroke-width:0.5;" x="349.455" xlink:href="#mbab1d424a5" y="30.361377"/>
      </g>
     </g>
     <g id="text_22">
      <!-- 8000 -->
      <defs>
       <path d="M 17.671875 38.8125 
Q 12.203125 40.828125 9.5625 44.53125 
Q 6.9375 48.25 6.9375 53.421875 
Q 6.9375 61.234375 12.546875 66.546875 
Q 18.171875 71.875 27.484375 71.875 
Q 36.859375 71.875 42.578125 66.421875 
Q 48.296875 60.984375 48.296875 53.171875 
Q 48.296875 48.1875 45.671875 44.5 
Q 43.0625 40.828125 37.75 38.8125 
Q 44.34375 36.671875 47.78125 31.875 
Q 51.21875 27.09375 51.21875 20.453125 
Q 51.21875 11.28125 44.71875 5.03125 
Q 38.234375 -1.21875 27.640625 -1.21875 
Q 17.046875 -1.21875 10.546875 5.046875 
Q 4.046875 11.328125 4.046875 20.703125 
Q 4.046875 27.6875 7.59375 32.390625 
Q 11.140625 37.109375 17.671875 38.8125 
z
M 15.921875 53.71875 
Q 15.921875 48.640625 19.1875 45.40625 
Q 22.46875 42.1875 27.6875 42.1875 
Q 32.765625 42.1875 36.015625 45.375 
Q 39.265625 48.578125 39.265625 53.21875 
Q 39.265625 58.0625 35.90625 61.359375 
Q 32.5625 64.65625 27.59375 64.65625 
Q 22.5625 64.65625 19.234375 61.421875 
Q 15.921875 58.203125 15.921875 53.71875 
z
M 13.09375 20.65625 
Q 13.09375 16.890625 14.875 13.375 
Q 16.65625 9.859375 20.171875 7.921875 
Q 23.6875 6 27.734375 6 
Q 34.03125 6 38.125 10.046875 
Q 42.234375 14.109375 42.234375 20.359375 
Q 42.234375 26.703125 38.015625 30.859375 
Q 33.796875 35.015625 27.4375 35.015625 
Q 21.234375 35.015625 17.15625 30.90625 
Q 13.09375 26.8125 13.09375 20.65625 
z
" id="ArialMT-56"/>
      </defs>
      <g transform="translate(328.16 33.224502)scale(0.08 -0.08)">
       <use xlink:href="#ArialMT-56"/>
       <use x="55.615234" xlink:href="#ArialMT-48"/>
       <use x="111.230469" xlink:href="#ArialMT-48"/>
       <use x="166.845703" xlink:href="#ArialMT-48"/>
      </g>
     </g>
    </g>
   </g>
   <g id="line2d_30">
    <path clip-path="url(#p85ed857f3a)" d="M 368.65683 190.615043 
L 369.059641 185.592276 
L 369.458893 182.755837 
L 369.853347 182.553375 
L 370.253729 182.831009 
L 370.65407 182.107539 
L 371.055109 180.52271 
L 374.259632 180.52271 
L 397.451759 176.880028 
L 397.839805 174.01359 
L 406.448719 174.01359 
L 407.050961 172.024484 
L 407.452712 171.466419 
L 407.855944 173.080279 
L 408.250305 170.766778 
L 408.653901 171.205692 
L 409.052922 168.608606 
L 409.45655 175.095182 
L 409.834301 175.220998 
L 416.104952 175.220998 
L 416.655285 166.066817 
L 417.148376 165.570786 
L 425.719558 165.573512 
L 426.25306 157.926913 
L 426.65365 157.671272 
L 428.253187 155.799945 
L 428.653068 157.65818 
L 429.034533 157.322671 
L 435.452838 157.322671 
L 435.849876 142.432255 
L 436.253218 143.059784 
L 436.653328 135.825824 
L 437.047983 137.215506 
L 437.452889 140.979933 
L 437.848372 141.269602 
L 438.253793 143.037672 
L 438.521866 142.255759 
L 441.45519 142.255759 
L 464.649964 142.483557 
L 465.047331 140.636857 
L 465.847422 141.726097 
L 466.24673 141.077171 
L 470.253287 141.008048 
L 474.25211 139.698956 
L 474.644694 135.531907 
L 476.251693 134.979494 
L 476.859337 134.91321 
L 483.338123 134.91321 
L 483.848966 134.474513 
L 484.650569 134.584329 
L 485.047258 135.100865 
L 485.449639 135.034694 
L 485.848984 135.123812 
L 486.248197 135.339136 
L 486.516447 135.171381 
L 493.04925 135.171381 
L 493.444997 130.631663 
L 493.851517 131.60734 
L 494.250212 131.216269 
L 494.645525 130.38798 
L 495.048003 130.845951 
L 495.447773 136.134831 
L 495.84799 137.230678 
L 495.949861 136.919716 
L 502.579475 136.919716 
L 503.045819 134.389219 
L 503.450451 134.401318 
L 504.244631 135.634897 
L 504.646603 134.446273 
L 505.045483 136.076086 
L 505.445222 139.096994 
L 505.744011 143.186016 
L 531.361761 143.186016 
L 531.843136 126.022322 
L 532.243505 125.709258 
L 532.644295 125.146693 
L 533.048008 124.284032 
L 537.448845 124.280152 
L 541.84537 124.705224 
L 542.241715 125.12317 
L 542.643316 123.684006 
L 543.04625 124.124346 
L 543.847639 125.727802 
L 544.15666 125.601986 
L 547.048211 125.601986 
L 551.84507 126.101169 
L 552.640257 126.06537 
L 553.045049 126.324551 
L 553.44583 125.383661 
L 560.215117 125.383661 
L 560.641054 126.024812 
L 561.040412 124.921145 
L 561.445193 120.833453 
L 562.240387 122.389292 
L 563.046856 122.328901 
L 563.254834 122.234539 
L 569.730629 122.234539 
L 570.241605 123.218575 
L 570.64158 122.42099 
L 571.045915 122.033295 
L 571.446248 123.39497 
L 571.841744 122.879463 
L 572.240613 126.023196 
L 572.642067 125.8826 
L 572.914554 125.922767 
L 598.580915 125.922767 
L 599.040393 125.440149 
L 600.643494 125.840452 
L 601.442678 125.823983 
L 601.77636 125.876801 
L 604.644404 125.876801 
L 608.638544 126.751492 
L 609.042409 126.402212 
L 609.440416 127.572075 
L 609.84226 126.130159 
L 610.239181 126.218971 
L 610.6375 126.592542 
L 611.041142 126.083196 
L 611.244103 126.11465 
L 614.243769 126.11465 
L 618.243105 126.498157 
L 618.642542 125.658673 
L 619.836377 125.760084 
L 620.240051 116.959287 
L 620.642007 113.504112 
L 621.013618 113.27977 
L 623.843135 113.27977 
L 623.843135 113.27977 
" style="fill:none;stroke:#2ca02c;stroke-dasharray:1.85,0.8;stroke-dashoffset:0;stroke-width:0.5;"/>
   </g>
   <g id="line2d_31">
    <path clip-path="url(#p85ed857f3a)" d="M 349.455 199.53458 
L 350.258662 195.129354 
L 350.660967 195.128863 
L 351.059917 194.519238 
L 351.858261 191.905221 
L 352.147854 191.727857 
L 358.63219 191.727857 
L 359.057147 189.478957 
L 359.454429 176.698832 
L 359.860337 172.675726 
L 360.254249 171.991027 
L 360.657226 171.665692 
L 361.052044 171.64058 
L 361.455461 171.752628 
L 361.498452 171.354211 
L 368.109943 171.354211 
L 368.65683 166.541885 
L 369.458893 162.836111 
L 369.853347 162.591334 
L 370.253729 163.326776 
L 370.65407 163.233877 
L 371.055109 162.625366 
L 374.259632 162.625366 
L 397.451759 161.653228 
L 397.839805 160.617631 
L 406.448719 160.617721 
L 407.050961 159.816602 
L 407.452712 157.394846 
L 407.855944 156.024512 
L 408.250305 155.686642 
L 408.653901 154.676132 
L 409.052922 151.585136 
L 409.45655 150.993781 
L 412.657094 151.00804 
L 416.104952 151.00804 
L 416.655285 146.32249 
L 417.056627 140.263233 
L 417.148376 140.653403 
L 425.719558 140.79872 
L 426.25306 135.366962 
L 426.65365 133.769967 
L 427.047894 132.847672 
L 427.449765 132.632105 
L 427.848836 132.13918 
L 428.253187 131.027654 
L 428.653068 130.551492 
L 429.034533 130.574625 
L 435.452838 130.574625 
L 435.849876 126.868751 
L 436.253218 125.869234 
L 436.653328 121.992302 
L 437.047983 120.660433 
L 437.452889 121.018301 
L 437.848372 120.883445 
L 438.253793 117.798105 
L 438.521866 117.683878 
L 464.649964 117.651905 
L 465.047331 116.777923 
L 465.450884 117.07946 
L 466.24673 117.03578 
L 467.053001 116.275941 
L 470.253287 116.285019 
L 474.25211 115.063886 
L 474.644694 114.001417 
L 475.049904 114.101781 
L 475.445643 114.365491 
L 475.846843 114.05258 
L 476.251693 114.586201 
L 476.652437 113.929555 
L 483.338123 113.929555 
L 483.848966 114.476796 
L 484.247916 112.322658 
L 484.650569 113.249583 
L 485.449639 113.843799 
L 485.848984 112.759259 
L 486.516447 112.275355 
L 493.04925 112.275355 
L 493.444997 110.575638 
L 493.851517 112.530107 
L 494.250212 111.280583 
L 495.048003 110.397657 
L 495.447773 110.111237 
L 495.84799 110.854051 
L 495.949861 110.602419 
L 502.579475 110.602419 
L 503.045819 109.874875 
L 503.450451 111.463612 
L 504.244631 110.767061 
L 504.646603 108.839943 
L 505.445222 109.258815 
L 531.361761 109.258815 
L 532.243505 112.410364 
L 532.644295 112.500156 
L 533.442076 111.407527 
L 533.848896 111.407527 
L 534.247719 110.179434 
L 534.532209 110.473005 
L 537.448845 110.473005 
L 541.84537 102.402616 
L 542.241715 103.861881 
L 542.643316 103.13614 
L 543.04625 104.772392 
L 543.445933 104.53489 
L 543.847639 105.316767 
L 544.15666 105.2821 
L 547.048211 105.2821 
L 551.042669 106.798521 
L 551.444273 108.152498 
L 551.84507 107.410578 
L 552.245414 104.937421 
L 552.640257 104.937421 
L 553.045049 104.656231 
L 553.44583 104.877402 
L 560.215117 104.877402 
L 560.641054 102.973068 
L 561.040412 104.951227 
L 561.445193 107.935422 
L 561.844524 107.489248 
L 562.641117 107.759711 
L 563.254834 107.833688 
L 569.730629 107.833688 
L 570.241605 108.107413 
L 570.64158 107.226036 
L 571.045915 107.706161 
L 571.446248 107.941243 
L 571.841744 107.938064 
L 572.240613 108.396023 
L 572.642067 108.661425 
L 572.914554 108.679039 
L 598.580915 108.679039 
L 599.040393 51.028782 
L 599.437731 51.123055 
L 599.83975 48.425862 
L 600.238747 48.498057 
L 600.643494 47.883286 
L 601.77636 47.822119 
L 604.644404 47.822119 
L 608.638544 48.003343 
L 609.440416 47.375113 
L 609.84226 47.368671 
L 610.239181 47.213006 
L 610.6375 47.367884 
L 611.041142 48.223371 
L 611.244103 48.237628 
L 614.243769 48.237628 
L 618.243105 47.264437 
L 618.642542 46.782004 
L 619.038776 46.531654 
L 619.836377 46.243777 
L 620.240051 44.431465 
L 620.642007 43.996099 
L 627.839057 44.019816 
L 628.239413 42.7455 
L 628.639982 42.717742 
L 629.040043 41.373213 
L 629.441019 41.540226 
L 629.842692 41.396514 
L 630.543017 41.428368 
L 633.4425 41.428368 
L 633.4425 41.428368 
" style="fill:none;stroke:#2ca02c;stroke-linecap:square;stroke-width:0.5;"/>
   </g>
   <g id="line2d_32">
    <path clip-path="url(#p85ed857f3a)" d="M 368.655015 198.434127 
L 369.056998 192.119316 
L 369.456785 191.064559 
L 369.856201 188.012214 
L 370.65407 187.187108 
L 371.055201 184.922828 
L 371.260022 186.1583 
L 396.771324 186.1583 
L 397.451023 186.945532 
L 397.840909 183.966183 
L 403.057728 183.501502 
L 406.448719 183.501502 
L 407.056567 197.388879 
L 407.450954 194.485227 
L 408.254351 192.769819 
L 408.652114 190.960375 
L 409.051235 182.224991 
L 409.450614 185.904164 
L 409.834301 186.546941 
L 416.142284 186.546941 
L 416.655285 188.496022 
L 417.053412 188.080228 
L 417.146599 185.126306 
L 422.256459 186.526646 
L 425.719558 186.526646 
L 426.251384 185.21554 
L 426.653322 183.360121 
L 427.05156 182.806166 
L 427.4517 183.504876 
L 427.852439 183.520195 
L 428.249578 181.308519 
L 428.655443 181.4559 
L 429.034533 180.454404 
L 435.452838 180.454404 
L 435.853469 159.937682 
L 436.251937 159.558241 
L 436.647969 148.787852 
L 437.452889 140.192948 
L 437.851386 139.625025 
L 438.248604 129.843342 
L 438.521866 127.914488 
L 441.45519 127.914488 
L 464.65169 127.448982 
L 465.452126 126.643602 
L 465.849373 126.797423 
L 466.250354 122.069854 
L 466.653351 122.687076 
L 467.345647 122.315006 
L 473.504067 122.315006 
L 474.248085 122.709937 
L 474.651026 120.963819 
L 475.052441 121.835537 
L 475.452448 121.242365 
L 475.849412 120.96491 
L 476.247693 121.191166 
L 476.859337 120.867273 
L 483.850824 120.860698 
L 484.247524 117.845445 
L 484.650519 117.37988 
L 485.447434 117.437927 
L 485.849166 116.889781 
L 486.250366 116.116031 
L 486.516447 116.342848 
L 493.04925 116.342848 
L 493.448719 115.093873 
L 493.849133 114.738181 
L 494.248114 113.32723 
L 494.649491 112.64128 
L 495.051633 113.126948 
L 495.444684 112.07756 
L 495.847639 113.608922 
L 495.949861 112.223184 
L 502.579475 112.223184 
L 503.048029 115.207964 
L 503.448712 115.616541 
L 503.847931 116.469633 
L 504.249471 118.336435 
L 504.648774 117.376471 
L 505.447513 117.727576 
L 531.42316 117.727576 
L 531.848639 119.933821 
L 532.242051 118.430462 
L 532.646129 117.890667 
L 533.045853 118.340495 
L 533.442834 118.380095 
L 533.840742 118.288249 
L 534.242317 118.391875 
L 534.532209 118.256108 
L 537.448845 118.256108 
L 541.442941 115.573074 
L 541.842018 115.796065 
L 542.648241 115.281975 
L 543.04398 118.706002 
L 543.447692 120.535211 
L 543.847639 121.274442 
L 544.15666 121.232503 
L 547.048211 121.232503 
L 551.045438 121.677245 
L 551.444465 119.916769 
L 551.84437 119.976266 
L 552.244592 119.533176 
L 553.045534 119.657808 
L 553.444406 119.554594 
L 553.82429 119.134787 
L 560.215117 119.134787 
L 560.641135 111.791463 
L 561.041549 107.589145 
L 561.441549 106.306752 
L 562.246173 107.361239 
L 562.642926 106.838028 
L 563.047042 107.057646 
L 563.305908 106.994738 
L 569.81476 106.994738 
L 570.240736 109.651169 
L 570.640252 108.779925 
L 571.039434 108.211137 
L 571.446248 108.182451 
L 571.841744 108.888344 
L 572.240613 113.401996 
L 572.643736 113.116385 
L 572.914554 113.240438 
L 598.580915 113.240438 
L 599.4413 112.103141 
L 599.83975 107.143117 
L 600.243617 107.200594 
L 600.637321 106.475566 
L 601.044195 106.641635 
L 601.77636 107.268189 
L 604.644404 107.268189 
L 608.638073 107.559065 
L 609.040653 104.800458 
L 609.439265 104.692499 
L 609.842011 103.896293 
L 610.242775 103.498066 
L 610.641216 104.472844 
L 611.244103 104.559695 
L 614.243769 104.559695 
L 618.243105 105.124335 
L 618.637667 104.923907 
L 619.441593 105.201071 
L 619.843085 105.722134 
L 620.237413 100.360811 
L 620.640568 99.794009 
L 621.004489 98.441487 
L 627.280373 98.441487 
L 627.840822 99.539323 
L 628.239413 98.743571 
L 628.63624 98.843169 
L 629.041516 93.922922 
L 629.841195 92.15248 
L 630.237978 84.485515 
L 630.543017 84.186781 
L 633.4425 84.186781 
L 633.4425 84.186781 
" style="fill:none;stroke:#d62728;stroke-dasharray:1.85,0.8;stroke-dashoffset:0;stroke-width:0.5;"/>
   </g>
   <g id="line2d_33">
    <path clip-path="url(#p85ed857f3a)" d="M 368.655015 194.667663 
L 369.056998 190.790639 
L 369.456785 189.743195 
L 370.253032 189.138477 
L 371.055201 186.164041 
L 396.771324 186.164041 
L 397.451023 186.487594 
L 397.840909 187.209897 
L 403.057728 186.855934 
L 406.448719 186.855934 
L 407.056567 181.20957 
L 407.450954 180.149889 
L 407.855316 177.755571 
L 408.254351 174.590416 
L 408.652114 173.185089 
L 409.051235 164.934757 
L 409.450614 162.357312 
L 416.142284 162.362476 
L 416.655285 160.630495 
L 417.053412 160.335997 
L 417.146599 160.40948 
L 422.256459 160.59316 
L 425.719558 160.59316 
L 426.653322 156.909637 
L 427.05156 148.933512 
L 427.4517 149.291494 
L 427.852439 150.50748 
L 428.249578 137.875226 
L 428.655443 136.190009 
L 429.034533 136.085163 
L 435.452838 136.085163 
L 435.853469 129.295195 
L 436.251937 129.931361 
L 436.647969 128.61655 
L 437.048996 124.514081 
L 437.452889 122.451046 
L 437.851386 121.32602 
L 438.248604 104.517496 
L 438.521866 104.975128 
L 441.45519 104.975128 
L 464.65169 96.63726 
L 465.050262 95.117916 
L 465.849373 96.368348 
L 466.250354 96.407933 
L 466.653351 98.136193 
L 467.049569 98.87998 
L 467.345647 98.893578 
L 473.504067 98.893578 
L 474.248085 100.496769 
L 474.651026 98.842287 
L 475.052441 100.787332 
L 475.452448 99.152226 
L 475.849412 99.416917 
L 476.247693 99.829597 
L 476.859337 99.92729 
L 483.338123 99.92729 
L 483.850824 99.416499 
L 484.247524 98.403447 
L 484.650519 98.089955 
L 485.045017 98.641329 
L 485.447434 98.422545 
L 485.849166 97.946369 
L 486.250366 95.331381 
L 486.516447 95.394289 
L 493.04925 95.394289 
L 493.448719 90.909398 
L 493.849133 91.223267 
L 494.248114 91.978956 
L 494.649491 89.626714 
L 495.051633 88.933377 
L 495.444684 88.872546 
L 495.949861 87.539968 
L 502.579475 87.539968 
L 503.048029 88.905783 
L 503.448712 87.922285 
L 503.847931 87.648511 
L 504.249471 86.703203 
L 504.648774 85.046598 
L 505.050665 77.429325 
L 505.447513 76.81586 
L 505.744011 76.570519 
L 531.42316 76.570519 
L 531.848639 75.144008 
L 532.242051 72.870462 
L 532.646129 71.645333 
L 533.045853 72.480823 
L 533.442834 72.217415 
L 533.840742 72.216182 
L 534.532209 71.916329 
L 537.448845 71.916329 
L 541.442941 70.248404 
L 541.842018 68.951364 
L 542.243898 65.976677 
L 542.648241 64.672091 
L 543.04398 63.991189 
L 543.447692 64.502666 
L 543.847639 69.00527 
L 544.15666 68.977293 
L 547.048211 68.977293 
L 551.045438 67.384544 
L 551.444465 64.458998 
L 551.84437 64.450634 
L 552.244592 64.73465 
L 552.641975 64.501795 
L 553.045534 63.992472 
L 553.82429 63.55782 
L 560.215117 63.55782 
L 561.041549 60.205436 
L 561.441549 59.588074 
L 561.843076 57.185359 
L 562.246173 57.802887 
L 562.642926 56.791191 
L 563.047042 56.512043 
L 563.305908 56.5003 
L 570.240736 56.596602 
L 570.640252 47.756291 
L 571.841744 44.766386 
L 572.240613 43.218563 
L 572.643736 39.815269 
L 575.846307 39.810917 
L 598.580915 39.810917 
L 599.03888 35.618429 
L 599.4413 34.925171 
L 599.83975 34.748691 
L 600.637321 35.330104 
L 601.044195 34.876952 
L 601.443436 29.080051 
L 604.644404 29.080051 
L 608.638073 31.884387 
L 609.040653 36.849356 
L 609.439265 38.559831 
L 609.842011 35.067698 
L 610.242775 35.061647 
L 610.641216 37.994861 
L 611.038398 35.961091 
L 611.244103 35.868199 
L 614.243769 35.868199 
L 618.637667 32.774687 
L 619.036494 33.86304 
L 619.441593 33.860301 
L 619.843085 43.158534 
L 620.237413 39.188265 
L 620.640568 37.766862 
L 627.280373 37.766862 
L 627.840822 38.068155 
L 628.239413 27.790619 
L 628.63624 22.570708 
L 629.041516 21.413204 
L 629.435473 22.287608 
L 629.841195 21.275845 
L 630.237978 18.357813 
L 630.543017 18.465961 
L 633.4425 18.465961 
L 633.4425 18.465961 
" style="fill:none;stroke:#d62728;stroke-linecap:square;stroke-width:0.5;"/>
   </g>
   <g id="patch_8">
    <path d="M 349.455 199.53458 
L 349.455 18.357813 
" style="fill:none;stroke:#000000;stroke-linecap:square;stroke-linejoin:miter;stroke-width:0.5;"/>
   </g>
   <g id="patch_9">
    <path d="M 633.4425 199.53458 
L 633.4425 18.357813 
" style="fill:none;stroke:#000000;stroke-linecap:square;stroke-linejoin:miter;stroke-width:0.5;"/>
   </g>
   <g id="patch_10">
    <path d="M 349.455 199.53458 
L 633.4425 199.53458 
" style="fill:none;stroke:#000000;stroke-linecap:square;stroke-linejoin:miter;stroke-width:0.5;"/>
   </g>
   <g id="patch_11">
    <path d="M 349.455 18.357813 
L 633.4425 18.357813 
" style="fill:none;stroke:#000000;stroke-linecap:square;stroke-linejoin:miter;stroke-width:0.5;"/>
   </g>
   <g id="text_23">
    <!-- COMP2SPY vs. SPY2COMP -->
    <g transform="translate(426.710469 14.357813)scale(0.1 -0.1)">
     <use xlink:href="#ArialMT-67"/>
     <use x="72.216797" xlink:href="#ArialMT-79"/>
     <use x="150" xlink:href="#ArialMT-77"/>
     <use x="233.300781" xlink:href="#ArialMT-80"/>
     <use x="300" xlink:href="#ArialMT-50"/>
     <use x="355.615234" xlink:href="#ArialMT-83"/>
     <use x="422.314453" xlink:href="#ArialMT-80"/>
     <use x="489.013672" xlink:href="#ArialMT-89"/>
     <use x="555.697266" xlink:href="#ArialMT-32"/>
     <use x="583.480469" xlink:href="#ArialMT-118"/>
     <use x="633.480469" xlink:href="#ArialMT-115"/>
     <use x="683.480469" xlink:href="#ArialMT-46"/>
     <use x="711.263672" xlink:href="#ArialMT-32"/>
     <use x="739.046875" xlink:href="#ArialMT-83"/>
     <use x="805.746094" xlink:href="#ArialMT-80"/>
     <use x="872.445312" xlink:href="#ArialMT-89"/>
     <use x="939.144531" xlink:href="#ArialMT-50"/>
     <use x="994.759766" xlink:href="#ArialMT-67"/>
     <use x="1066.976562" xlink:href="#ArialMT-79"/>
     <use x="1144.759766" xlink:href="#ArialMT-77"/>
     <use x="1228.060547" xlink:href="#ArialMT-80"/>
    </g>
   </g>
   <g id="legend_2">
    <g id="line2d_34">
     <path d="M 356.655 28.484063 
L 372.655 28.484063 
" style="fill:none;stroke:#2ca02c;stroke-dasharray:1.85,0.8;stroke-dashoffset:0;stroke-width:0.5;"/>
    </g>
    <g id="line2d_35"/>
    <g id="text_24">
     <!-- COMP2SPY-MSFT -->
     <defs>
      <path d="M 8.203125 0 
L 8.203125 71.578125 
L 56.5 71.578125 
L 56.5 63.140625 
L 17.671875 63.140625 
L 17.671875 40.96875 
L 51.265625 40.96875 
L 51.265625 32.515625 
L 17.671875 32.515625 
L 17.671875 0 
z
" id="ArialMT-70"/>
     </defs>
     <g transform="translate(379.055 31.284063)scale(0.08 -0.08)">
      <use xlink:href="#ArialMT-67"/>
      <use x="72.216797" xlink:href="#ArialMT-79"/>
      <use x="150" xlink:href="#ArialMT-77"/>
      <use x="233.300781" xlink:href="#ArialMT-80"/>
      <use x="300" xlink:href="#ArialMT-50"/>
      <use x="355.615234" xlink:href="#ArialMT-83"/>
      <use x="422.314453" xlink:href="#ArialMT-80"/>
      <use x="489.013672" xlink:href="#ArialMT-89"/>
      <use x="555.572266" xlink:href="#ArialMT-45"/>
      <use x="588.873047" xlink:href="#ArialMT-77"/>
      <use x="672.173828" xlink:href="#ArialMT-83"/>
      <use x="738.873047" xlink:href="#ArialMT-70"/>
      <use x="799.957031" xlink:href="#ArialMT-84"/>
     </g>
    </g>
    <g id="line2d_36">
     <path d="M 356.655 39.800313 
L 372.655 39.800313 
" style="fill:none;stroke:#2ca02c;stroke-linecap:square;stroke-width:0.5;"/>
    </g>
    <g id="line2d_37"/>
    <g id="text_25">
     <!-- SPY2COMP-MSFT -->
     <g transform="translate(379.055 42.600313)scale(0.08 -0.08)">
      <use xlink:href="#ArialMT-83"/>
      <use x="66.699219" xlink:href="#ArialMT-80"/>
      <use x="133.398438" xlink:href="#ArialMT-89"/>
      <use x="200.097656" xlink:href="#ArialMT-50"/>
      <use x="255.712891" xlink:href="#ArialMT-67"/>
      <use x="327.929688" xlink:href="#ArialMT-79"/>
      <use x="405.712891" xlink:href="#ArialMT-77"/>
      <use x="489.013672" xlink:href="#ArialMT-80"/>
      <use x="555.712891" xlink:href="#ArialMT-45"/>
      <use x="589.013672" xlink:href="#ArialMT-77"/>
      <use x="672.314453" xlink:href="#ArialMT-83"/>
      <use x="739.013672" xlink:href="#ArialMT-70"/>
      <use x="800.097656" xlink:href="#ArialMT-84"/>
     </g>
    </g>
    <g id="line2d_38">
     <path d="M 356.655 51.116563 
L 372.655 51.116563 
" style="fill:none;stroke:#d62728;stroke-dasharray:1.85,0.8;stroke-dashoffset:0;stroke-width:0.5;"/>
    </g>
    <g id="line2d_39"/>
    <g id="text_26">
     <!-- COMP2SPY-AAPL -->
     <defs>
      <path d="M -0.140625 0 
L 27.34375 71.578125 
L 37.546875 71.578125 
L 66.84375 0 
L 56.0625 0 
L 47.703125 21.6875 
L 17.78125 21.6875 
L 9.90625 0 
z
M 20.515625 29.390625 
L 44.78125 29.390625 
L 37.3125 49.21875 
Q 33.890625 58.25 32.234375 64.0625 
Q 30.859375 57.171875 28.375 50.390625 
z
" id="ArialMT-65"/>
      <path d="M 7.328125 0 
L 7.328125 71.578125 
L 16.796875 71.578125 
L 16.796875 8.453125 
L 52.046875 8.453125 
L 52.046875 0 
z
" id="ArialMT-76"/>
     </defs>
     <g transform="translate(379.055 53.916562)scale(0.08 -0.08)">
      <use xlink:href="#ArialMT-67"/>
      <use x="72.216797" xlink:href="#ArialMT-79"/>
      <use x="150" xlink:href="#ArialMT-77"/>
      <use x="233.300781" xlink:href="#ArialMT-80"/>
      <use x="300" xlink:href="#ArialMT-50"/>
      <use x="355.615234" xlink:href="#ArialMT-83"/>
      <use x="422.314453" xlink:href="#ArialMT-80"/>
      <use x="489.013672" xlink:href="#ArialMT-89"/>
      <use x="555.572266" xlink:href="#ArialMT-45"/>
      <use x="588.873047" xlink:href="#ArialMT-65"/>
      <use x="655.572266" xlink:href="#ArialMT-65"/>
      <use x="722.271484" xlink:href="#ArialMT-80"/>
      <use x="788.970703" xlink:href="#ArialMT-76"/>
     </g>
    </g>
    <g id="line2d_40">
     <path d="M 356.655 62.432813 
L 372.655 62.432813 
" style="fill:none;stroke:#d62728;stroke-linecap:square;stroke-width:0.5;"/>
    </g>
    <g id="line2d_41"/>
    <g id="text_27">
     <!-- SPY2COMP-AAPL -->
     <g transform="translate(379.055 65.232813)scale(0.08 -0.08)">
      <use xlink:href="#ArialMT-83"/>
      <use x="66.699219" xlink:href="#ArialMT-80"/>
      <use x="133.398438" xlink:href="#ArialMT-89"/>
      <use x="200.097656" xlink:href="#ArialMT-50"/>
      <use x="255.712891" xlink:href="#ArialMT-67"/>
      <use x="327.929688" xlink:href="#ArialMT-79"/>
      <use x="405.712891" xlink:href="#ArialMT-77"/>
      <use x="489.013672" xlink:href="#ArialMT-80"/>
      <use x="555.712891" xlink:href="#ArialMT-45"/>
      <use x="589.013672" xlink:href="#ArialMT-65"/>
      <use x="655.712891" xlink:href="#ArialMT-65"/>
      <use x="722.412109" xlink:href="#ArialMT-80"/>
      <use x="789.111328" xlink:href="#ArialMT-76"/>
     </g>
    </g>
   </g>
  </g>
 </g>
 <defs>
  <clipPath id="pa074290dee">
   <rect height="181.176767" width="283.9875" x="33.1675" y="18.357813"/>
  </clipPath>
  <clipPath id="p85ed857f3a">
   <rect height="181.176767" width="283.9875" x="349.455" y="18.357813"/>
  </clipPath>
 </defs>
</svg>
