<?xml version="1.0" encoding="utf-8" standalone="no"?>
<!DOCTYPE svg PUBLIC "-//W3C//DTD SVG 1.1//EN"
  "http://www.w3.org/Graphics/SVG/1.1/DTD/svg11.dtd">
<!-- Created with matplotlib (https://matplotlib.org/) -->
<svg height="208.957812pt" version="1.1" viewBox="0 0 640.595 208.957812" width="640.595pt" xmlns="http://www.w3.org/2000/svg" xmlns:xlink="http://www.w3.org/1999/xlink">
 <defs>
  <style type="text/css">
*{stroke-linecap:butt;stroke-linejoin:round;}
  </style>
 </defs>
 <g id="figure_1">
  <g id="patch_1">
   <path d="M 0 208.957812 
L 640.595 208.957812 
L 640.595 0 
L 0 0 
z
" style="fill:#ffffff;"/>
  </g>
  <g id="axes_1">
   <g id="patch_2">
    <path d="M 28.495 201.757812 
L 312.4825 201.757812 
L 312.4825 18.357812 
L 28.495 18.357812 
z
" style="fill:#ffffff;"/>
   </g>
   <g id="matplotlib.axis_1"/>
   <g id="matplotlib.axis_2">
    <g id="ytick_1">
     <g id="line2d_1">
      <defs>
       <path d="M 0 0 
L 1.5 0 
" id="me0dc8fe5b4" style="stroke:#000000;stroke-width:0.5;"/>
      </defs>
      <g>
       <use style="stroke:#000000;stroke-width:0.5;" x="28.495" xlink:href="#me0dc8fe5b4" y="188.995345"/>
      </g>
     </g>
     <g id="text_1">
      <!-- 0 -->
      <defs>
       <path d="M 4.15625 35.296875 
Q 4.15625 48 6.765625 55.734375 
Q 9.375 63.484375 14.515625 67.671875 
Q 19.671875 71.875 27.484375 71.875 
Q 33.25 71.875 37.59375 69.546875 
Q 41.9375 67.234375 44.765625 62.859375 
Q 47.609375 58.5 49.21875 52.21875 
Q 50.828125 45.953125 50.828125 35.296875 
Q 50.828125 22.703125 48.234375 14.96875 
Q 45.65625 7.234375 40.5 3 
Q 35.359375 -1.21875 27.484375 -1.21875 
Q 17.140625 -1.21875 11.234375 6.203125 
Q 4.15625 15.140625 4.15625 35.296875 
z
M 13.1875 35.296875 
Q 13.1875 17.671875 17.3125 11.828125 
Q 21.4375 6 27.484375 6 
Q 33.546875 6 37.671875 11.859375 
Q 41.796875 17.71875 41.796875 35.296875 
Q 41.796875 52.984375 37.671875 58.78125 
Q 33.546875 64.59375 27.390625 64.59375 
Q 21.34375 64.59375 17.71875 59.46875 
Q 13.1875 52.9375 13.1875 35.296875 
z
" id="ArialMT-48"/>
      </defs>
      <g transform="translate(20.54625 191.85847)scale(0.08 -0.08)">
       <use xlink:href="#ArialMT-48"/>
      </g>
     </g>
    </g>
    <g id="ytick_2">
     <g id="line2d_2">
      <g>
       <use style="stroke:#000000;stroke-width:0.5;" x="28.495" xlink:href="#me0dc8fe5b4" y="155.981917"/>
      </g>
     </g>
     <g id="text_2">
      <!-- 500 -->
      <defs>
       <path d="M 4.15625 18.75 
L 13.375 19.53125 
Q 14.40625 12.796875 18.140625 9.390625 
Q 21.875 6 27.15625 6 
Q 33.5 6 37.890625 10.78125 
Q 42.28125 15.578125 42.28125 23.484375 
Q 42.28125 31 38.0625 35.34375 
Q 33.84375 39.703125 27 39.703125 
Q 22.75 39.703125 19.328125 37.765625 
Q 15.921875 35.84375 13.96875 32.765625 
L 5.71875 33.84375 
L 12.640625 70.609375 
L 48.25 70.609375 
L 48.25 62.203125 
L 19.671875 62.203125 
L 15.828125 42.96875 
Q 22.265625 47.46875 29.34375 47.46875 
Q 38.71875 47.46875 45.15625 40.96875 
Q 51.609375 34.46875 51.609375 24.265625 
Q 51.609375 14.546875 45.953125 7.46875 
Q 39.0625 -1.21875 27.15625 -1.21875 
Q 17.390625 -1.21875 11.203125 4.25 
Q 5.03125 9.71875 4.15625 18.75 
z
" id="ArialMT-53"/>
      </defs>
      <g transform="translate(11.64875 158.845042)scale(0.08 -0.08)">
       <use xlink:href="#ArialMT-53"/>
       <use x="55.615234" xlink:href="#ArialMT-48"/>
       <use x="111.230469" xlink:href="#ArialMT-48"/>
      </g>
     </g>
    </g>
    <g id="ytick_3">
     <g id="line2d_3">
      <g>
       <use style="stroke:#000000;stroke-width:0.5;" x="28.495" xlink:href="#me0dc8fe5b4" y="122.96849"/>
      </g>
     </g>
     <g id="text_3">
      <!-- 1000 -->
      <defs>
       <path d="M 37.25 0 
L 28.46875 0 
L 28.46875 56 
Q 25.296875 52.984375 20.140625 49.953125 
Q 14.984375 46.921875 10.890625 45.40625 
L 10.890625 53.90625 
Q 18.265625 57.375 23.78125 62.296875 
Q 29.296875 67.234375 31.59375 71.875 
L 37.25 71.875 
z
" id="ArialMT-49"/>
      </defs>
      <g transform="translate(7.2 125.831615)scale(0.08 -0.08)">
       <use xlink:href="#ArialMT-49"/>
       <use x="55.615234" xlink:href="#ArialMT-48"/>
       <use x="111.230469" xlink:href="#ArialMT-48"/>
       <use x="166.845703" xlink:href="#ArialMT-48"/>
      </g>
     </g>
    </g>
    <g id="ytick_4">
     <g id="line2d_4">
      <g>
       <use style="stroke:#000000;stroke-width:0.5;" x="28.495" xlink:href="#me0dc8fe5b4" y="89.955063"/>
      </g>
     </g>
     <g id="text_4">
      <!-- 1500 -->
      <g transform="translate(7.2 92.818188)scale(0.08 -0.08)">
       <use xlink:href="#ArialMT-49"/>
       <use x="55.615234" xlink:href="#ArialMT-53"/>
       <use x="111.230469" xlink:href="#ArialMT-48"/>
       <use x="166.845703" xlink:href="#ArialMT-48"/>
      </g>
     </g>
    </g>
    <g id="ytick_5">
     <g id="line2d_5">
      <g>
       <use style="stroke:#000000;stroke-width:0.5;" x="28.495" xlink:href="#me0dc8fe5b4" y="56.941635"/>
      </g>
     </g>
     <g id="text_5">
      <!-- 2000 -->
      <defs>
       <path d="M 50.34375 8.453125 
L 50.34375 0 
L 3.03125 0 
Q 2.9375 3.171875 4.046875 6.109375 
Q 5.859375 10.9375 9.828125 15.625 
Q 13.8125 20.3125 21.34375 26.46875 
Q 33.015625 36.03125 37.109375 41.625 
Q 41.21875 47.21875 41.21875 52.203125 
Q 41.21875 57.421875 37.46875 61 
Q 33.734375 64.59375 27.734375 64.59375 
Q 21.390625 64.59375 17.578125 60.78125 
Q 13.765625 56.984375 13.71875 50.25 
L 4.6875 51.171875 
Q 5.609375 61.28125 11.65625 66.578125 
Q 17.71875 71.875 27.9375 71.875 
Q 38.234375 71.875 44.234375 66.15625 
Q 50.25 60.453125 50.25 52 
Q 50.25 47.703125 48.484375 43.546875 
Q 46.734375 39.40625 42.65625 34.8125 
Q 38.578125 30.21875 29.109375 22.21875 
Q 21.1875 15.578125 18.9375 13.203125 
Q 16.703125 10.84375 15.234375 8.453125 
z
" id="ArialMT-50"/>
      </defs>
      <g transform="translate(7.2 59.80476)scale(0.08 -0.08)">
       <use xlink:href="#ArialMT-50"/>
       <use x="55.615234" xlink:href="#ArialMT-48"/>
       <use x="111.230469" xlink:href="#ArialMT-48"/>
       <use x="166.845703" xlink:href="#ArialMT-48"/>
      </g>
     </g>
    </g>
    <g id="ytick_6">
     <g id="line2d_6">
      <g>
       <use style="stroke:#000000;stroke-width:0.5;" x="28.495" xlink:href="#me0dc8fe5b4" y="23.928208"/>
      </g>
     </g>
     <g id="text_6">
      <!-- 2500 -->
      <g transform="translate(7.2 26.791333)scale(0.08 -0.08)">
       <use xlink:href="#ArialMT-50"/>
       <use x="55.615234" xlink:href="#ArialMT-53"/>
       <use x="111.230469" xlink:href="#ArialMT-48"/>
       <use x="166.845703" xlink:href="#ArialMT-48"/>
      </g>
     </g>
    </g>
   </g>
   <g id="line2d_7">
    <path clip-path="url(#p89b54f1827)" d="M 28.495 182.680603 
L 28.880262 188.116677 
L 29.267989 188.677906 
L 29.65346 188.891457 
L 30.042803 188.891457 
L 30.424038 187.503131 
L 31.08959 188.328467 
L 37.381879 188.328467 
L 37.775353 191.780928 
L 38.162904 192.994066 
L 38.548736 193.090962 
L 38.936254 193.792167 
L 39.322863 193.15304 
L 39.711782 191.568395 
L 40.097969 194.017992 
L 40.381025 194.48018 
L 46.653442 194.48018 
L 47.06451 195.971361 
L 47.453137 201.108812 
L 47.840599 200.425828 
L 48.612817 199.992362 
L 48.996483 200.065321 
L 49.42603 199.331539 
L 55.821447 199.331539 
L 56.35212 194.08649 
L 56.738092 195.524894 
L 58.282427 195.524894 
L 58.672695 194.887075 
L 58.845923 195.811451 
L 61.770153 195.811451 
L 84.207168 184.985192 
L 84.581007 184.398873 
L 92.907248 184.26682 
L 93.495231 191.408966 
L 93.875597 190.55854 
L 94.268476 191.317849 
L 94.655253 189.898272 
L 95.038749 189.006909 
L 95.815915 192.073898 
L 96.182184 192.798351 
L 102.2479 192.798351 
L 102.781244 192.603251 
L 103.162818 192.684654 
L 103.253834 193.236169 
L 111.548285 193.236169 
L 112.059788 192.806565 
L 112.448841 189.455042 
L 112.836755 190.181338 
L 113.227464 193.777782 
L 113.609526 193.777782 
L 114.387418 193.49866 
L 114.754921 193.559405 
L 120.963465 193.559405 
L 121.349255 190.728284 
L 121.739919 190.728284 
L 122.119707 191.346112 
L 122.512064 191.247126 
L 122.895516 190.955948 
L 123.285372 190.973775 
L 123.673547 194.009267 
L 123.932192 193.892069 
L 126.769651 193.892069 
L 149.59578 194.78635 
L 149.979966 194.988062 
L 151.142274 195.037291 
L 154.626578 195.037291 
L 158.49512 195.653529 
L 158.879335 190.866582 
L 159.264852 189.678099 
L 160.039484 188.546295 
L 160.426744 189.800805 
L 160.813042 191.649557 
L 161.016732 191.220382 
L 167.28378 191.220382 
L 167.776064 194.933659 
L 168.163711 195.044914 
L 168.940373 195.485313 
L 169.328389 195.455931 
L 170.101557 193.496914 
L 170.358232 193.454327 
L 176.677531 193.454327 
L 177.063712 192.213062 
L 177.451069 195.415364 
L 177.839244 197.171102 
L 178.611352 197.126467 
L 179.483346 196.855757 
L 185.896294 196.855757 
L 186.34843 197.247038 
L 186.735831 200.64547 
L 213.737927 200.64547 
L 214.205421 197.686829 
L 214.589134 199.159068 
L 219.626075 199.159068 
L 223.881693 198.413865 
L 228.911718 198.413865 
L 232.779067 198.580341 
L 233.16323 201.30707 
L 241.648308 201.30707 
L 242.061793 201.045182 
L 242.448175 201.757812 
L 242.838183 195.658252 
L 243.223881 197.472267 
L 250.852838 197.472267 
L 251.351834 182.787481 
L 252.120148 184.603853 
L 252.894457 184.694043 
L 278.760248 184.694043 
L 279.208832 181.529206 
L 279.595791 181.109452 
L 279.982206 181.608616 
L 280.365472 181.488217 
L 284.625573 181.488217 
L 288.488722 177.29359 
L 289.261511 177.376458 
L 289.654969 177.153287 
L 290.037192 177.384381 
L 290.425601 178.671905 
L 290.809912 178.374784 
L 291.009583 178.737931 
L 293.911215 178.737931 
L 297.776521 179.255905 
L 298.164186 178.364089 
L 298.940828 178.408142 
L 299.321047 178.39327 
L 299.714155 176.919072 
L 303.196858 176.919072 
L 307.061871 177.791392 
L 307.447762 176.214671 
L 307.834947 177.609158 
L 308.219402 178.375734 
L 308.610563 176.805876 
L 312.4825 176.805876 
L 312.4825 176.805876 
" style="fill:none;stroke:#1f77b4;stroke-dasharray:1.85,0.8;stroke-dashoffset:0;stroke-width:0.5;"/>
   </g>
   <g id="line2d_8">
    <path clip-path="url(#p89b54f1827)" d="M 28.495 189.089534 
L 28.880262 186.906136 
L 29.267989 185.664782 
L 29.65346 186.301399 
L 30.042803 187.381859 
L 30.424038 182.337689 
L 30.81231 182.245026 
L 31.08959 183.022079 
L 37.381879 183.022079 
L 37.775353 182.361547 
L 38.162904 174.751833 
L 38.548736 176.171828 
L 38.936254 175.748246 
L 40.097969 169.313969 
L 40.381025 166.438856 
L 46.653442 166.438856 
L 47.06451 163.434164 
L 47.840599 146.119796 
L 48.225533 144.8396 
L 48.612817 142.961965 
L 48.996483 143.133114 
L 49.42603 141.744508 
L 55.821447 141.744508 
L 56.35212 140.525902 
L 56.738092 136.016391 
L 57.12235 134.240509 
L 57.507873 134.2666 
L 57.89928 136.154808 
L 58.282427 136.61653 
L 58.672695 134.813128 
L 58.845923 134.945182 
L 61.770153 134.945182 
L 84.207168 135.279016 
L 84.581007 133.289249 
L 92.907248 133.289249 
L 93.495231 134.764065 
L 93.875597 129.782852 
L 94.268476 132.720297 
L 94.655253 130.043135 
L 95.038749 129.484852 
L 95.815915 124.53552 
L 96.182184 125.854737 
L 102.2479 125.854737 
L 102.781244 97.072944 
L 103.162818 97.381503 
L 103.253834 96.709512 
L 108.198366 96.907592 
L 111.548285 96.907592 
L 112.059788 91.479401 
L 112.448841 91.528978 
L 112.836755 93.648165 
L 113.227464 93.686988 
L 113.609526 92.820175 
L 114.387418 92.92657 
L 114.754921 93.454785 
L 120.963465 93.454785 
L 121.349255 62.656657 
L 122.512064 62.431237 
L 122.895516 61.865341 
L 123.285372 61.684593 
L 123.673547 61.040478 
L 126.769651 61.040478 
L 149.20805 62.105851 
L 149.59578 62.28819 
L 149.979966 62.004711 
L 150.366846 62.094207 
L 150.754241 61.483468 
L 151.142274 61.454304 
L 151.525932 61.839629 
L 151.813965 61.505717 
L 154.626578 61.505717 
L 158.49512 64.129223 
L 158.879335 61.764638 
L 159.264852 62.255574 
L 160.039484 59.264896 
L 160.426744 60.076258 
L 161.016732 60.003636 
L 167.28378 60.003636 
L 167.776064 60.952029 
L 168.163711 60.929376 
L 168.550598 60.518064 
L 168.940373 60.944256 
L 169.328389 60.903446 
L 169.710214 61.104775 
L 170.358232 61.080925 
L 176.677531 61.080925 
L 177.063712 59.669541 
L 177.451069 59.892351 
L 177.839244 60.264718 
L 178.611352 58.129226 
L 179.483346 56.473942 
L 185.896294 56.473942 
L 186.34843 59.354196 
L 186.735831 58.608436 
L 187.120905 56.714934 
L 187.895886 54.730648 
L 188.283369 54.588593 
L 188.667444 54.328248 
L 188.957407 55.860415 
L 213.737927 55.860415 
L 214.205421 54.740923 
L 214.589134 54.632337 
L 215.753973 54.702888 
L 216.135891 54.701145 
L 216.524803 64.38889 
L 216.80476 55.785591 
L 219.626075 55.785591 
L 223.487204 79.766641 
L 223.881693 79.234795 
L 224.65421 77.462908 
L 225.041016 77.090313 
L 225.426982 75.716919 
L 225.812349 75.415821 
L 226.114668 75.464448 
L 228.911718 75.464448 
L 232.779067 72.959629 
L 233.16323 73.27261 
L 233.548013 73.166569 
L 233.938273 71.114976 
L 234.713309 71.111965 
L 235.098626 69.637615 
L 238.19736 69.646199 
L 241.648308 69.646199 
L 242.061793 70.84395 
L 242.448175 70.669248 
L 242.838183 69.83016 
L 243.223881 69.434826 
L 243.609542 68.82739 
L 244.723026 68.788917 
L 250.852838 68.788917 
L 251.351834 61.122282 
L 251.732446 58.801471 
L 252.120148 58.600047 
L 252.506766 57.806268 
L 252.894457 58.027233 
L 253.280105 58.835402 
L 253.667395 55.511039 
L 253.932707 57.169634 
L 278.760248 57.169634 
L 279.208832 67.606006 
L 279.595791 61.869697 
L 279.982206 62.356079 
L 280.365472 62.356079 
L 280.75275 56.739325 
L 281.141234 26.506619 
L 281.526138 24.158363 
L 281.851261 24.194018 
L 284.625573 24.194018 
L 288.488722 25.639816 
L 289.261511 25.229766 
L 289.654969 24.695496 
L 290.037192 24.738592 
L 290.425601 25.091996 
L 290.809912 24.02878 
L 291.009583 24.070834 
L 293.911215 24.070834 
L 297.776521 26.16597 
L 298.164186 25.64103 
L 298.547026 27.257186 
L 298.940828 27.47665 
L 299.321047 27.036155 
L 299.714155 24.591309 
L 300.100732 23.474535 
L 303.196858 23.474535 
L 307.061871 23.864 
L 307.447762 23.734396 
L 307.834947 24.185901 
L 308.219402 22.454579 
L 308.610563 21.796826 
L 308.991591 21.983854 
L 309.386093 18.357812 
L 312.4825 18.357812 
L 312.4825 18.357812 
" style="fill:none;stroke:#1f77b4;stroke-linecap:square;stroke-width:0.5;"/>
   </g>
   <g id="line2d_9">
    <path clip-path="url(#p89b54f1827)" d="M 47.06451 192.361184 
L 47.449322 193.962863 
L 48.227642 177.005395 
L 48.612817 176.873295 
L 48.998184 178.89346 
L 49.42603 177.558959 
L 55.821447 177.558959 
L 56.346781 174.473516 
L 56.740107 175.640037 
L 57.12287 176.262023 
L 61.770153 176.18189 
L 92.907248 176.245626 
L 93.494825 176.799441 
L 93.876614 178.838113 
L 94.260832 178.716412 
L 94.656386 175.818649 
L 95.037123 175.455501 
L 95.428636 182.866662 
L 95.814375 182.984842 
L 96.182184 183.44703 
L 102.2479 183.44703 
L 102.778379 179.99166 
L 103.168472 179.420628 
L 103.258451 180.009526 
L 111.548285 180.009526 
L 112.066375 168.886841 
L 112.450843 169.302857 
L 112.836755 168.935269 
L 113.614424 166.084029 
L 113.998939 165.596742 
L 114.38694 167.304452 
L 114.754921 166.543822 
L 120.963465 166.543822 
L 121.345852 114.688428 
L 121.736678 115.168336 
L 122.508138 115.647072 
L 122.90061 106.53628 
L 123.671698 109.915974 
L 126.769651 109.915974 
L 149.202348 108.089023 
L 149.593597 108.246198 
L 149.981754 106.966598 
L 150.365062 107.93167 
L 154.626578 107.892529 
L 158.494713 111.089154 
L 158.881007 98.641433 
L 159.26456 100.047492 
L 159.654451 97.351996 
L 160.04144 96.91706 
L 160.427329 95.696264 
L 160.814981 96.555826 
L 167.28378 96.555826 
L 167.777344 100.542952 
L 168.166545 93.477305 
L 168.55341 93.793454 
L 168.940313 101.689549 
L 169.709275 101.689549 
L 170.101832 102.331925 
L 170.358232 102.391349 
L 176.677531 102.391349 
L 177.064267 98.677935 
L 177.45358 96.838264 
L 177.834651 98.756692 
L 178.223137 99.234198 
L 178.611352 98.930726 
L 178.994536 98.930726 
L 179.483346 100.681075 
L 185.896294 100.681075 
L 186.348805 96.379829 
L 186.736153 97.617852 
L 187.123295 97.700413 
L 187.50719 95.521527 
L 187.895237 94.410452 
L 213.737927 94.420693 
L 214.207083 93.546589 
L 214.591154 96.603293 
L 214.976048 96.883746 
L 215.366915 95.549 
L 215.750976 98.858596 
L 216.137892 91.080963 
L 216.5297 87.453117 
L 216.80476 87.318752 
L 219.626075 87.318752 
L 223.491693 93.95152 
L 223.877609 93.185137 
L 224.261504 91.352561 
L 225.041395 82.727803 
L 225.427389 83.536328 
L 225.815746 80.804196 
L 228.911718 80.804196 
L 232.779067 83.814717 
L 233.163812 85.364312 
L 234.711023 85.364312 
L 235.098626 85.11098 
L 235.466344 85.052876 
L 241.648308 85.052876 
L 242.066239 90.874935 
L 242.451199 91.782092 
L 242.834658 89.378717 
L 243.227025 89.355932 
L 244.385833 84.517194 
L 244.588682 84.616234 
L 250.852838 84.616234 
L 251.346089 76.271269 
L 251.731868 74.399817 
L 252.124876 75.554614 
L 252.894957 75.577076 
L 253.282962 76.014173 
L 253.932707 77.061012 
L 278.760248 77.061012 
L 279.206257 76.118123 
L 279.595731 80.953596 
L 279.982566 80.441785 
L 280.365472 83.156809 
L 280.751133 82.686713 
L 281.141234 82.686713 
L 281.851261 82.81256 
L 284.625573 82.81256 
L 288.492436 81.821031 
L 288.878145 82.4253 
L 289.265489 81.382958 
L 289.653555 81.391887 
L 290.035817 81.767827 
L 290.425601 81.88995 
L 290.81388 81.285818 
L 291.009583 81.295392 
L 293.911215 81.295392 
L 297.779131 84.150809 
L 298.160411 86.670916 
L 298.552409 86.850139 
L 298.939166 86.553805 
L 299.326621 87.344603 
L 299.705312 86.767017 
L 300.09868 92.646412 
L 300.450984 85.713592 
L 303.196858 85.713592 
L 307.063894 108.669375 
L 307.833316 108.622063 
L 308.226068 108.615209 
L 308.612548 110.279596 
L 308.995854 111.234407 
L 309.677777 105.077981 
L 312.4825 105.077981 
L 312.4825 105.077981 
" style="fill:none;stroke:#ff7f0e;stroke-dasharray:1.85,0.8;stroke-dashoffset:0;stroke-width:0.5;"/>
   </g>
   <g id="line2d_10">
    <path clip-path="url(#p89b54f1827)" d="M 47.06451 184.302979 
L 47.449322 178.429204 
L 47.836543 179.588772 
L 48.227642 177.528704 
L 48.612817 177.783088 
L 48.998184 176.963299 
L 49.38849 174.273621 
L 49.42603 174.281545 
L 55.821447 174.281545 
L 56.740107 162.868276 
L 57.12287 164.544687 
L 57.89941 154.139167 
L 58.670624 151.637878 
L 58.845923 153.19215 
L 61.770153 153.19215 
L 84.207168 162.315632 
L 84.579515 160.056605 
L 92.907248 159.935613 
L 93.494825 169.131534 
L 93.876614 161.789306 
L 94.260832 162.006618 
L 94.656386 160.49025 
L 95.037123 159.71502 
L 95.428636 163.403891 
L 95.814375 164.266354 
L 98.912723 164.274277 
L 102.2479 164.274277 
L 102.778379 150.170014 
L 103.258451 149.814112 
L 111.548285 149.814112 
L 112.066375 147.106754 
L 112.450843 146.951293 
L 112.836755 146.475313 
L 113.223953 146.193942 
L 113.614424 148.948653 
L 113.998939 143.997306 
L 114.38694 142.676632 
L 114.754921 142.173452 
L 120.963465 142.173452 
L 121.345852 125.524888 
L 121.736678 122.61064 
L 122.12528 123.244136 
L 122.90061 113.771448 
L 123.282365 115.462938 
L 123.671698 121.154474 
L 126.769651 121.154474 
L 149.202348 113.420258 
L 149.593597 112.23515 
L 149.981754 107.969325 
L 150.365062 108.308228 
L 150.752796 109.339567 
L 151.140716 109.661815 
L 151.527596 108.979592 
L 151.813965 108.905692 
L 154.626578 108.905692 
L 158.494713 141.433523 
L 159.26456 135.723058 
L 159.654451 135.595335 
L 160.04144 136.216489 
L 160.427329 134.771302 
L 160.814981 134.046929 
L 167.28378 134.046929 
L 167.777344 134.524079 
L 168.166545 130.439031 
L 168.55341 130.79647 
L 168.940313 131.743223 
L 169.709275 129.478959 
L 170.101832 131.740858 
L 170.358232 131.872912 
L 176.677531 131.872912 
L 177.064267 122.942653 
L 177.45358 124.345319 
L 177.834651 127.181097 
L 178.223137 125.840029 
L 178.611352 122.589603 
L 178.994536 122.49242 
L 179.386426 123.722529 
L 179.483346 123.458422 
L 186.348805 123.40349 
L 186.736153 124.541378 
L 187.123295 123.915518 
L 187.50719 122.611908 
L 187.895237 122.59116 
L 188.282766 122.868381 
L 188.957407 122.935519 
L 213.737927 122.935519 
L 214.207083 117.4767 
L 214.591154 116.284184 
L 214.976048 112.706772 
L 215.366915 112.948965 
L 215.750976 113.635382 
L 216.137892 112.983036 
L 216.80476 113.089813 
L 219.626075 113.089813 
L 223.491693 112.89664 
L 223.877609 109.2227 
L 224.261504 108.640784 
L 225.041395 108.640784 
L 225.427389 105.785622 
L 225.815746 107.12457 
L 226.114668 107.195164 
L 228.911718 107.195164 
L 232.779067 105.813755 
L 233.163812 97.866148 
L 233.550104 98.453852 
L 233.936864 101.013793 
L 234.325694 101.212534 
L 234.711023 96.292305 
L 235.098626 94.630458 
L 235.466344 94.001883 
L 241.648308 94.001883 
L 242.066239 94.927224 
L 242.451199 94.637029 
L 242.834658 92.759753 
L 243.227025 88.475944 
L 243.609542 90.4516 
L 244.588682 90.39746 
L 250.852838 90.39746 
L 251.731868 88.990444 
L 252.124876 87.196726 
L 252.512387 87.03484 
L 252.894957 85.700794 
L 253.282962 97.297398 
L 253.66801 97.140254 
L 253.932707 97.907486 
L 278.760248 97.907486 
L 279.206257 87.069318 
L 279.595731 85.538024 
L 279.982566 81.471161 
L 280.365472 80.818199 
L 280.751133 80.809882 
L 281.529808 80.953926 
L 284.625573 80.953926 
L 288.492436 79.078939 
L 288.878145 78.392244 
L 289.265489 80.902592 
L 289.653555 81.034858 
L 290.035817 81.036786 
L 290.425601 81.562265 
L 290.81388 79.453183 
L 291.009583 79.499233 
L 293.911215 79.499233 
L 297.779131 83.875012 
L 298.160411 83.403147 
L 298.552409 83.825169 
L 298.939166 81.381673 
L 299.326621 82.043094 
L 299.705312 79.794755 
L 300.09868 81.092973 
L 303.196858 81.092973 
L 307.063894 84.854724 
L 307.448773 79.650055 
L 308.226068 77.419216 
L 308.612548 78.47933 
L 308.995854 77.83702 
L 309.382658 80.553232 
L 312.4825 80.559333 
L 312.4825 80.559333 
" style="fill:none;stroke:#ff7f0e;stroke-linecap:square;stroke-width:0.5;"/>
   </g>
   <g id="patch_3">
    <path d="M 28.495 201.757812 
L 28.495 18.357812 
" style="fill:none;stroke:#000000;stroke-linecap:square;stroke-linejoin:miter;stroke-width:0.5;"/>
   </g>
   <g id="patch_4">
    <path d="M 312.4825 201.757812 
L 312.4825 18.357812 
" style="fill:none;stroke:#000000;stroke-linecap:square;stroke-linejoin:miter;stroke-width:0.5;"/>
   </g>
   <g id="patch_5">
    <path d="M 28.495 201.757812 
L 312.4825 201.757812 
" style="fill:none;stroke:#000000;stroke-linecap:square;stroke-linejoin:miter;stroke-width:0.5;"/>
   </g>
   <g id="patch_6">
    <path d="M 28.495 18.357812 
L 312.4825 18.357812 
" style="fill:none;stroke:#000000;stroke-linecap:square;stroke-linejoin:miter;stroke-width:0.5;"/>
   </g>
   <g id="text_7">
    <!-- COMP2COMP vs. SPY2COMP -->
    <defs>
     <path d="M 58.796875 25.09375 
L 68.265625 22.703125 
Q 65.28125 11.03125 57.546875 4.90625 
Q 49.8125 -1.21875 38.625 -1.21875 
Q 27.046875 -1.21875 19.796875 3.484375 
Q 12.546875 8.203125 8.765625 17.140625 
Q 4.984375 26.078125 4.984375 36.328125 
Q 4.984375 47.515625 9.25 55.828125 
Q 13.53125 64.15625 21.40625 68.46875 
Q 29.296875 72.796875 38.765625 72.796875 
Q 49.515625 72.796875 56.828125 67.328125 
Q 64.15625 61.859375 67.046875 51.953125 
L 57.71875 49.75 
Q 55.21875 57.5625 50.484375 61.125 
Q 45.75 64.703125 38.578125 64.703125 
Q 30.328125 64.703125 24.78125 60.734375 
Q 19.234375 56.78125 16.984375 50.109375 
Q 14.75 43.453125 14.75 36.375 
Q 14.75 27.25 17.40625 20.4375 
Q 20.0625 13.625 25.671875 10.25 
Q 31.296875 6.890625 37.84375 6.890625 
Q 45.796875 6.890625 51.3125 11.46875 
Q 56.84375 16.0625 58.796875 25.09375 
z
" id="ArialMT-67"/>
     <path d="M 4.828125 34.859375 
Q 4.828125 52.6875 14.390625 62.765625 
Q 23.96875 72.859375 39.109375 72.859375 
Q 49.03125 72.859375 56.984375 68.109375 
Q 64.9375 63.375 69.109375 54.90625 
Q 73.296875 46.4375 73.296875 35.6875 
Q 73.296875 24.8125 68.890625 16.21875 
Q 64.5 7.625 56.4375 3.203125 
Q 48.390625 -1.21875 39.0625 -1.21875 
Q 28.953125 -1.21875 20.984375 3.65625 
Q 13.03125 8.546875 8.921875 16.984375 
Q 4.828125 25.4375 4.828125 34.859375 
z
M 14.59375 34.71875 
Q 14.59375 21.78125 21.546875 14.328125 
Q 28.515625 6.890625 39.015625 6.890625 
Q 49.703125 6.890625 56.609375 14.40625 
Q 63.53125 21.921875 63.53125 35.75 
Q 63.53125 44.484375 60.578125 51 
Q 57.625 57.515625 51.921875 61.109375 
Q 46.234375 64.703125 39.15625 64.703125 
Q 29.109375 64.703125 21.84375 57.78125 
Q 14.59375 50.875 14.59375 34.71875 
z
" id="ArialMT-79"/>
     <path d="M 7.421875 0 
L 7.421875 71.578125 
L 21.6875 71.578125 
L 38.625 20.90625 
Q 40.96875 13.8125 42.046875 10.296875 
Q 43.265625 14.203125 45.84375 21.78125 
L 62.984375 71.578125 
L 75.734375 71.578125 
L 75.734375 0 
L 66.609375 0 
L 66.609375 59.90625 
L 45.796875 0 
L 37.25 0 
L 16.546875 60.9375 
L 16.546875 0 
z
" id="ArialMT-77"/>
     <path d="M 7.71875 0 
L 7.71875 71.578125 
L 34.71875 71.578125 
Q 41.84375 71.578125 45.609375 70.90625 
Q 50.875 70.015625 54.4375 67.546875 
Q 58.015625 65.09375 60.1875 60.640625 
Q 62.359375 56.203125 62.359375 50.875 
Q 62.359375 41.75 56.546875 35.421875 
Q 50.734375 29.109375 35.546875 29.109375 
L 17.1875 29.109375 
L 17.1875 0 
z
M 17.1875 37.546875 
L 35.6875 37.546875 
Q 44.875 37.546875 48.734375 40.96875 
Q 52.59375 44.390625 52.59375 50.59375 
Q 52.59375 55.078125 50.3125 58.265625 
Q 48.046875 61.46875 44.34375 62.5 
Q 41.9375 63.140625 35.5 63.140625 
L 17.1875 63.140625 
z
" id="ArialMT-80"/>
     <path id="ArialMT-32"/>
     <path d="M 21 0 
L 1.265625 51.859375 
L 10.546875 51.859375 
L 21.6875 20.796875 
Q 23.484375 15.765625 25 10.359375 
Q 26.171875 14.453125 28.265625 20.21875 
L 39.796875 51.859375 
L 48.828125 51.859375 
L 29.203125 0 
z
" id="ArialMT-118"/>
     <path d="M 3.078125 15.484375 
L 11.765625 16.84375 
Q 12.5 11.625 15.84375 8.84375 
Q 19.1875 6.0625 25.203125 6.0625 
Q 31.25 6.0625 34.171875 8.515625 
Q 37.109375 10.984375 37.109375 14.3125 
Q 37.109375 17.28125 34.515625 19 
Q 32.71875 20.171875 25.53125 21.96875 
Q 15.875 24.421875 12.140625 26.203125 
Q 8.40625 27.984375 6.46875 31.125 
Q 4.546875 34.28125 4.546875 38.09375 
Q 4.546875 41.546875 6.125 44.5 
Q 7.71875 47.46875 10.453125 49.421875 
Q 12.5 50.921875 16.03125 51.96875 
Q 19.578125 53.03125 23.640625 53.03125 
Q 29.734375 53.03125 34.34375 51.265625 
Q 38.96875 49.515625 41.15625 46.5 
Q 43.359375 43.5 44.1875 38.484375 
L 35.59375 37.3125 
Q 35.015625 41.3125 32.203125 43.546875 
Q 29.390625 45.796875 24.265625 45.796875 
Q 18.21875 45.796875 15.625 43.796875 
Q 13.03125 41.796875 13.03125 39.109375 
Q 13.03125 37.40625 14.109375 36.03125 
Q 15.1875 34.625 17.484375 33.6875 
Q 18.796875 33.203125 25.25 31.453125 
Q 34.578125 28.953125 38.25 27.359375 
Q 41.9375 25.78125 44.03125 22.75 
Q 46.140625 19.734375 46.140625 15.234375 
Q 46.140625 10.84375 43.578125 6.953125 
Q 41.015625 3.078125 36.171875 0.953125 
Q 31.34375 -1.171875 25.25 -1.171875 
Q 15.140625 -1.171875 9.84375 3.03125 
Q 4.546875 7.234375 3.078125 15.484375 
z
" id="ArialMT-115"/>
     <path d="M 9.078125 0 
L 9.078125 10.015625 
L 19.09375 10.015625 
L 19.09375 0 
z
" id="ArialMT-46"/>
     <path d="M 4.5 23 
L 13.421875 23.78125 
Q 14.0625 18.40625 16.375 14.96875 
Q 18.703125 11.53125 23.578125 9.40625 
Q 28.46875 7.28125 34.578125 7.28125 
Q 39.984375 7.28125 44.140625 8.890625 
Q 48.296875 10.5 50.3125 13.296875 
Q 52.34375 16.109375 52.34375 19.4375 
Q 52.34375 22.796875 50.390625 25.3125 
Q 48.4375 27.828125 43.953125 29.546875 
Q 41.0625 30.671875 31.203125 33.03125 
Q 21.34375 35.40625 17.390625 37.5 
Q 12.25 40.1875 9.734375 44.15625 
Q 7.234375 48.140625 7.234375 53.078125 
Q 7.234375 58.5 10.296875 63.203125 
Q 13.375 67.921875 19.28125 70.359375 
Q 25.203125 72.796875 32.421875 72.796875 
Q 40.375 72.796875 46.453125 70.234375 
Q 52.546875 67.671875 55.8125 62.6875 
Q 59.078125 57.71875 59.328125 51.421875 
L 50.25 50.734375 
Q 49.515625 57.515625 45.28125 60.984375 
Q 41.0625 64.453125 32.8125 64.453125 
Q 24.21875 64.453125 20.28125 61.296875 
Q 16.359375 58.15625 16.359375 53.71875 
Q 16.359375 49.859375 19.140625 47.359375 
Q 21.875 44.875 33.421875 42.265625 
Q 44.96875 39.65625 49.265625 37.703125 
Q 55.515625 34.8125 58.484375 30.390625 
Q 61.46875 25.984375 61.46875 20.21875 
Q 61.46875 14.5 58.203125 9.4375 
Q 54.9375 4.390625 48.796875 1.578125 
Q 42.671875 -1.21875 35.015625 -1.21875 
Q 25.296875 -1.21875 18.71875 1.609375 
Q 12.15625 4.4375 8.421875 10.125 
Q 4.6875 15.828125 4.5 23 
z
" id="ArialMT-83"/>
     <path d="M 27.875 0 
L 27.875 30.328125 
L 0.296875 71.578125 
L 11.8125 71.578125 
L 25.921875 50 
Q 29.828125 43.953125 33.203125 37.890625 
Q 36.421875 43.5 41.015625 50.53125 
L 54.890625 71.578125 
L 65.921875 71.578125 
L 37.359375 30.328125 
L 37.359375 0 
z
" id="ArialMT-89"/>
    </defs>
    <g transform="translate(100.755937 14.357812)scale(0.1 -0.1)">
     <use xlink:href="#ArialMT-67"/>
     <use x="72.216797" xlink:href="#ArialMT-79"/>
     <use x="150" xlink:href="#ArialMT-77"/>
     <use x="233.300781" xlink:href="#ArialMT-80"/>
     <use x="300" xlink:href="#ArialMT-50"/>
     <use x="355.615234" xlink:href="#ArialMT-67"/>
     <use x="427.832031" xlink:href="#ArialMT-79"/>
     <use x="505.615234" xlink:href="#ArialMT-77"/>
     <use x="588.916016" xlink:href="#ArialMT-80"/>
     <use x="655.599609" xlink:href="#ArialMT-32"/>
     <use x="683.382812" xlink:href="#ArialMT-118"/>
     <use x="733.382812" xlink:href="#ArialMT-115"/>
     <use x="783.382812" xlink:href="#ArialMT-46"/>
     <use x="811.166016" xlink:href="#ArialMT-32"/>
     <use x="838.949219" xlink:href="#ArialMT-83"/>
     <use x="905.648438" xlink:href="#ArialMT-80"/>
     <use x="972.347656" xlink:href="#ArialMT-89"/>
     <use x="1039.046875" xlink:href="#ArialMT-50"/>
     <use x="1094.662109" xlink:href="#ArialMT-67"/>
     <use x="1166.878906" xlink:href="#ArialMT-79"/>
     <use x="1244.662109" xlink:href="#ArialMT-77"/>
     <use x="1327.962891" xlink:href="#ArialMT-80"/>
    </g>
   </g>
   <g id="legend_1">
    <g id="line2d_11">
     <path d="M 35.695 28.484062 
L 51.695 28.484062 
" style="fill:none;stroke:#1f77b4;stroke-dasharray:1.85,0.8;stroke-dashoffset:0;stroke-width:0.5;"/>
    </g>
    <g id="line2d_12"/>
    <g id="text_8">
     <!-- COMP2COMP-INTC -->
     <defs>
      <path d="M 3.171875 21.484375 
L 3.171875 30.328125 
L 30.171875 30.328125 
L 30.171875 21.484375 
z
" id="ArialMT-45"/>
      <path d="M 9.328125 0 
L 9.328125 71.578125 
L 18.796875 71.578125 
L 18.796875 0 
z
" id="ArialMT-73"/>
      <path d="M 7.625 0 
L 7.625 71.578125 
L 17.328125 71.578125 
L 54.9375 15.375 
L 54.9375 71.578125 
L 64.015625 71.578125 
L 64.015625 0 
L 54.296875 0 
L 16.703125 56.25 
L 16.703125 0 
z
" id="ArialMT-78"/>
      <path d="M 25.921875 0 
L 25.921875 63.140625 
L 2.34375 63.140625 
L 2.34375 71.578125 
L 59.078125 71.578125 
L 59.078125 63.140625 
L 35.40625 63.140625 
L 35.40625 0 
z
" id="ArialMT-84"/>
     </defs>
     <g transform="translate(58.095 31.284062)scale(0.08 -0.08)">
      <use xlink:href="#ArialMT-67"/>
      <use x="72.216797" xlink:href="#ArialMT-79"/>
      <use x="150" xlink:href="#ArialMT-77"/>
      <use x="233.300781" xlink:href="#ArialMT-80"/>
      <use x="300" xlink:href="#ArialMT-50"/>
      <use x="355.615234" xlink:href="#ArialMT-67"/>
      <use x="427.832031" xlink:href="#ArialMT-79"/>
      <use x="505.615234" xlink:href="#ArialMT-77"/>
      <use x="588.916016" xlink:href="#ArialMT-80"/>
      <use x="655.615234" xlink:href="#ArialMT-45"/>
      <use x="688.916016" xlink:href="#ArialMT-73"/>
      <use x="716.699219" xlink:href="#ArialMT-78"/>
      <use x="788.916016" xlink:href="#ArialMT-84"/>
      <use x="850" xlink:href="#ArialMT-67"/>
     </g>
    </g>
    <g id="line2d_13">
     <path d="M 35.695 39.800312 
L 51.695 39.800312 
" style="fill:none;stroke:#1f77b4;stroke-linecap:square;stroke-width:0.5;"/>
    </g>
    <g id="line2d_14"/>
    <g id="text_9">
     <!-- SPY2COMP-INTC -->
     <g transform="translate(58.095 42.600312)scale(0.08 -0.08)">
      <use xlink:href="#ArialMT-83"/>
      <use x="66.699219" xlink:href="#ArialMT-80"/>
      <use x="133.398438" xlink:href="#ArialMT-89"/>
      <use x="200.097656" xlink:href="#ArialMT-50"/>
      <use x="255.712891" xlink:href="#ArialMT-67"/>
      <use x="327.929688" xlink:href="#ArialMT-79"/>
      <use x="405.712891" xlink:href="#ArialMT-77"/>
      <use x="489.013672" xlink:href="#ArialMT-80"/>
      <use x="555.712891" xlink:href="#ArialMT-45"/>
      <use x="589.013672" xlink:href="#ArialMT-73"/>
      <use x="616.796875" xlink:href="#ArialMT-78"/>
      <use x="689.013672" xlink:href="#ArialMT-84"/>
      <use x="750.097656" xlink:href="#ArialMT-67"/>
     </g>
    </g>
    <g id="line2d_15">
     <path d="M 35.695 51.116562 
L 51.695 51.116562 
" style="fill:none;stroke:#ff7f0e;stroke-dasharray:1.85,0.8;stroke-dashoffset:0;stroke-width:0.5;"/>
    </g>
    <g id="line2d_16"/>
    <g id="text_10">
     <!-- COMP2COMP-JPM -->
     <defs>
      <path d="M 2.875 20.3125 
L 11.421875 21.484375 
Q 11.765625 13.28125 14.5 10.25 
Q 17.234375 7.234375 22.078125 7.234375 
Q 25.640625 7.234375 28.21875 8.859375 
Q 30.8125 10.5 31.78125 13.296875 
Q 32.765625 16.109375 32.765625 22.265625 
L 32.765625 71.578125 
L 42.234375 71.578125 
L 42.234375 22.796875 
Q 42.234375 13.8125 40.0625 8.875 
Q 37.890625 3.953125 33.171875 1.359375 
Q 28.46875 -1.21875 22.125 -1.21875 
Q 12.703125 -1.21875 7.6875 4.203125 
Q 2.6875 9.625 2.875 20.3125 
z
" id="ArialMT-74"/>
     </defs>
     <g transform="translate(58.095 53.916562)scale(0.08 -0.08)">
      <use xlink:href="#ArialMT-67"/>
      <use x="72.216797" xlink:href="#ArialMT-79"/>
      <use x="150" xlink:href="#ArialMT-77"/>
      <use x="233.300781" xlink:href="#ArialMT-80"/>
      <use x="300" xlink:href="#ArialMT-50"/>
      <use x="355.615234" xlink:href="#ArialMT-67"/>
      <use x="427.832031" xlink:href="#ArialMT-79"/>
      <use x="505.615234" xlink:href="#ArialMT-77"/>
      <use x="588.916016" xlink:href="#ArialMT-80"/>
      <use x="655.615234" xlink:href="#ArialMT-45"/>
      <use x="688.916016" xlink:href="#ArialMT-74"/>
      <use x="738.916016" xlink:href="#ArialMT-80"/>
      <use x="805.615234" xlink:href="#ArialMT-77"/>
     </g>
    </g>
    <g id="line2d_17">
     <path d="M 35.695 62.432812 
L 51.695 62.432812 
" style="fill:none;stroke:#ff7f0e;stroke-linecap:square;stroke-width:0.5;"/>
    </g>
    <g id="line2d_18"/>
    <g id="text_11">
     <!-- SPY2COMP-JPM -->
     <g transform="translate(58.095 65.232812)scale(0.08 -0.08)">
      <use xlink:href="#ArialMT-83"/>
      <use x="66.699219" xlink:href="#ArialMT-80"/>
      <use x="133.398438" xlink:href="#ArialMT-89"/>
      <use x="200.097656" xlink:href="#ArialMT-50"/>
      <use x="255.712891" xlink:href="#ArialMT-67"/>
      <use x="327.929688" xlink:href="#ArialMT-79"/>
      <use x="405.712891" xlink:href="#ArialMT-77"/>
      <use x="489.013672" xlink:href="#ArialMT-80"/>
      <use x="555.712891" xlink:href="#ArialMT-45"/>
      <use x="589.013672" xlink:href="#ArialMT-74"/>
      <use x="639.013672" xlink:href="#ArialMT-80"/>
      <use x="705.712891" xlink:href="#ArialMT-77"/>
     </g>
    </g>
   </g>
  </g>
  <g id="axes_2">
   <g id="patch_7">
    <path d="M 349.4075 201.757812 
L 633.395 201.757812 
L 633.395 18.357812 
L 349.4075 18.357812 
z
" style="fill:#ffffff;"/>
   </g>
   <g id="matplotlib.axis_3"/>
   <g id="matplotlib.axis_4">
    <g id="ytick_7">
     <g id="line2d_19">
      <g>
       <use style="stroke:#000000;stroke-width:0.5;" x="349.4075" xlink:href="#me0dc8fe5b4" y="172.718449"/>
      </g>
     </g>
     <g id="text_12">
      <!-- −2000 -->
      <defs>
       <path d="M 52.828125 31.203125 
L 5.5625 31.203125 
L 5.5625 39.40625 
L 52.828125 39.40625 
z
" id="ArialMT-8722"/>
      </defs>
      <g transform="translate(323.44 175.581574)scale(0.08 -0.08)">
       <use xlink:href="#ArialMT-8722"/>
       <use x="58.398438" xlink:href="#ArialMT-50"/>
       <use x="114.013672" xlink:href="#ArialMT-48"/>
       <use x="169.628906" xlink:href="#ArialMT-48"/>
       <use x="225.244141" xlink:href="#ArialMT-48"/>
      </g>
     </g>
    </g>
    <g id="ytick_8">
     <g id="line2d_20">
      <g>
       <use style="stroke:#000000;stroke-width:0.5;" x="349.4075" xlink:href="#me0dc8fe5b4" y="143.517862"/>
      </g>
     </g>
     <g id="text_13">
      <!-- 0 -->
      <g transform="translate(341.45875 146.380987)scale(0.08 -0.08)">
       <use xlink:href="#ArialMT-48"/>
      </g>
     </g>
    </g>
    <g id="ytick_9">
     <g id="line2d_21">
      <g>
       <use style="stroke:#000000;stroke-width:0.5;" x="349.4075" xlink:href="#me0dc8fe5b4" y="114.317276"/>
      </g>
     </g>
     <g id="text_14">
      <!-- 2000 -->
      <g transform="translate(328.1125 117.180401)scale(0.08 -0.08)">
       <use xlink:href="#ArialMT-50"/>
       <use x="55.615234" xlink:href="#ArialMT-48"/>
       <use x="111.230469" xlink:href="#ArialMT-48"/>
       <use x="166.845703" xlink:href="#ArialMT-48"/>
      </g>
     </g>
    </g>
    <g id="ytick_10">
     <g id="line2d_22">
      <g>
       <use style="stroke:#000000;stroke-width:0.5;" x="349.4075" xlink:href="#me0dc8fe5b4" y="85.116689"/>
      </g>
     </g>
     <g id="text_15">
      <!-- 4000 -->
      <defs>
       <path d="M 32.328125 0 
L 32.328125 17.140625 
L 1.265625 17.140625 
L 1.265625 25.203125 
L 33.9375 71.578125 
L 41.109375 71.578125 
L 41.109375 25.203125 
L 50.78125 25.203125 
L 50.78125 17.140625 
L 41.109375 17.140625 
L 41.109375 0 
z
M 32.328125 25.203125 
L 32.328125 57.46875 
L 9.90625 25.203125 
z
" id="ArialMT-52"/>
      </defs>
      <g transform="translate(328.1125 87.979814)scale(0.08 -0.08)">
       <use xlink:href="#ArialMT-52"/>
       <use x="55.615234" xlink:href="#ArialMT-48"/>
       <use x="111.230469" xlink:href="#ArialMT-48"/>
       <use x="166.845703" xlink:href="#ArialMT-48"/>
      </g>
     </g>
    </g>
    <g id="ytick_11">
     <g id="line2d_23">
      <g>
       <use style="stroke:#000000;stroke-width:0.5;" x="349.4075" xlink:href="#me0dc8fe5b4" y="55.916103"/>
      </g>
     </g>
     <g id="text_16">
      <!-- 6000 -->
      <defs>
       <path d="M 49.75 54.046875 
L 41.015625 53.375 
Q 39.84375 58.546875 37.703125 60.890625 
Q 34.125 64.65625 28.90625 64.65625 
Q 24.703125 64.65625 21.53125 62.3125 
Q 17.390625 59.28125 14.984375 53.46875 
Q 12.59375 47.65625 12.5 36.921875 
Q 15.671875 41.75 20.265625 44.09375 
Q 24.859375 46.4375 29.890625 46.4375 
Q 38.671875 46.4375 44.84375 39.96875 
Q 51.03125 33.5 51.03125 23.25 
Q 51.03125 16.5 48.125 10.71875 
Q 45.21875 4.9375 40.140625 1.859375 
Q 35.0625 -1.21875 28.609375 -1.21875 
Q 17.625 -1.21875 10.6875 6.859375 
Q 3.765625 14.9375 3.765625 33.5 
Q 3.765625 54.25 11.421875 63.671875 
Q 18.109375 71.875 29.4375 71.875 
Q 37.890625 71.875 43.28125 67.140625 
Q 48.6875 62.40625 49.75 54.046875 
z
M 13.875 23.1875 
Q 13.875 18.65625 15.796875 14.5 
Q 17.71875 10.359375 21.1875 8.171875 
Q 24.65625 6 28.46875 6 
Q 34.03125 6 38.03125 10.484375 
Q 42.046875 14.984375 42.046875 22.703125 
Q 42.046875 30.125 38.078125 34.390625 
Q 34.125 38.671875 28.125 38.671875 
Q 22.171875 38.671875 18.015625 34.390625 
Q 13.875 30.125 13.875 23.1875 
z
" id="ArialMT-54"/>
      </defs>
      <g transform="translate(328.1125 58.779228)scale(0.08 -0.08)">
       <use xlink:href="#ArialMT-54"/>
       <use x="55.615234" xlink:href="#ArialMT-48"/>
       <use x="111.230469" xlink:href="#ArialMT-48"/>
       <use x="166.845703" xlink:href="#ArialMT-48"/>
      </g>
     </g>
    </g>
    <g id="ytick_12">
     <g id="line2d_24">
      <g>
       <use style="stroke:#000000;stroke-width:0.5;" x="349.4075" xlink:href="#me0dc8fe5b4" y="26.715516"/>
      </g>
     </g>
     <g id="text_17">
      <!-- 8000 -->
      <defs>
       <path d="M 17.671875 38.8125 
Q 12.203125 40.828125 9.5625 44.53125 
Q 6.9375 48.25 6.9375 53.421875 
Q 6.9375 61.234375 12.546875 66.546875 
Q 18.171875 71.875 27.484375 71.875 
Q 36.859375 71.875 42.578125 66.421875 
Q 48.296875 60.984375 48.296875 53.171875 
Q 48.296875 48.1875 45.671875 44.5 
Q 43.0625 40.828125 37.75 38.8125 
Q 44.34375 36.671875 47.78125 31.875 
Q 51.21875 27.09375 51.21875 20.453125 
Q 51.21875 11.28125 44.71875 5.03125 
Q 38.234375 -1.21875 27.640625 -1.21875 
Q 17.046875 -1.21875 10.546875 5.046875 
Q 4.046875 11.328125 4.046875 20.703125 
Q 4.046875 27.6875 7.59375 32.390625 
Q 11.140625 37.109375 17.671875 38.8125 
z
M 15.921875 53.71875 
Q 15.921875 48.640625 19.1875 45.40625 
Q 22.46875 42.1875 27.6875 42.1875 
Q 32.765625 42.1875 36.015625 45.375 
Q 39.265625 48.578125 39.265625 53.21875 
Q 39.265625 58.0625 35.90625 61.359375 
Q 32.5625 64.65625 27.59375 64.65625 
Q 22.5625 64.65625 19.234375 61.421875 
Q 15.921875 58.203125 15.921875 53.71875 
z
M 13.09375 20.65625 
Q 13.09375 16.890625 14.875 13.375 
Q 16.65625 9.859375 20.171875 7.921875 
Q 23.6875 6 27.734375 6 
Q 34.03125 6 38.125 10.046875 
Q 42.234375 14.109375 42.234375 20.359375 
Q 42.234375 26.703125 38.015625 30.859375 
Q 33.796875 35.015625 27.4375 35.015625 
Q 21.234375 35.015625 17.15625 30.90625 
Q 13.09375 26.8125 13.09375 20.65625 
z
" id="ArialMT-56"/>
      </defs>
      <g transform="translate(328.1125 29.578641)scale(0.08 -0.08)">
       <use xlink:href="#ArialMT-56"/>
       <use x="55.615234" xlink:href="#ArialMT-48"/>
       <use x="111.230469" xlink:href="#ArialMT-48"/>
       <use x="166.845703" xlink:href="#ArialMT-48"/>
      </g>
     </g>
    </g>
   </g>
   <g id="line2d_25">
    <path clip-path="url(#p66156e1f95)" d="M 349.4075 145.566695 
L 349.811983 145.27007 
L 350.613467 146.080546 
L 351.012417 145.90177 
L 351.410318 141.626486 
L 351.810761 142.123831 
L 352.100354 141.775087 
L 358.58469 141.775087 
L 359.009647 142.733207 
L 359.406929 142.998507 
L 359.812837 140.415514 
L 360.206749 140.293635 
L 360.609726 139.85696 
L 361.004544 140.440869 
L 361.407961 140.524228 
L 361.450952 140.380036 
L 368.062443 140.380036 
L 368.60933 140.097401 
L 369.012141 140.462215 
L 369.411393 139.177679 
L 369.805847 139.364889 
L 370.206229 139.125394 
L 370.60657 139.061807 
L 371.189104 139.400045 
L 374.212132 139.400045 
L 397.792305 140.549595 
L 407.003461 140.454579 
L 407.405212 141.447729 
L 407.808444 141.884395 
L 408.202805 141.125826 
L 409.005422 141.44988 
L 409.40905 143.959447 
L 416.057452 143.959447 
L 417.009127 144.24489 
L 417.100876 144.649777 
L 425.672058 144.680437 
L 426.60615 143.1646 
L 427.000394 143.047552 
L 427.402265 142.775794 
L 427.801336 142.814047 
L 428.205687 143.738109 
L 428.605568 144.330258 
L 435.405338 144.330258 
L 435.802376 142.185735 
L 436.205718 142.376751 
L 436.605828 141.944674 
L 437.000483 142.805213 
L 437.405389 143.216834 
L 437.800872 143.01679 
L 438.206293 144.669118 
L 438.474366 144.685255 
L 441.40769 144.685255 
L 464.602464 144.925913 
L 464.999831 144.730758 
L 465.799922 145.447396 
L 466.605955 145.402614 
L 467.298147 145.447955 
L 470.205787 145.447955 
L 474.20461 145.86979 
L 474.597194 145.101791 
L 475.002404 145.49932 
L 475.398143 145.515672 
L 475.799343 145.334002 
L 476.204193 145.486385 
L 476.604937 145.971506 
L 483.290623 145.971506 
L 483.801466 146.672336 
L 484.200416 144.911599 
L 484.603069 144.67148 
L 485.402139 145.085171 
L 485.801484 145.017274 
L 486.200697 145.199641 
L 486.468947 145.090139 
L 493.397497 144.985309 
L 493.804017 146.45076 
L 494.202712 146.915102 
L 495.000503 147.019056 
L 495.400273 147.185112 
L 495.80049 147.584529 
L 495.902361 147.5196 
L 502.531975 147.5196 
L 502.998319 147.94925 
L 503.402951 148.851916 
L 503.800431 148.836158 
L 504.197131 148.9646 
L 504.599103 136.939278 
L 504.997983 137.685797 
L 505.397722 139.532964 
L 505.696511 139.664367 
L 531.314261 139.664367 
L 532.196005 136.64249 
L 532.596795 138.200196 
L 533.000508 137.106959 
L 537.401345 137.106959 
L 541.400671 137.41998 
L 541.79787 137.317566 
L 542.194215 137.781354 
L 542.595816 137.464044 
L 542.99875 138.899794 
L 543.398433 137.969628 
L 543.800139 141.431178 
L 544.10916 141.372776 
L 547.000711 141.372776 
L 550.995169 140.350628 
L 551.396773 140.747065 
L 551.79757 140.963109 
L 552.197914 140.847611 
L 552.592757 140.85215 
L 552.997549 140.7225 
L 553.39833 139.137311 
L 560.167617 139.137311 
L 560.593554 139.415388 
L 561.397693 138.145216 
L 561.797024 137.762206 
L 562.192887 137.945304 
L 563.207334 137.968754 
L 569.683129 137.968754 
L 570.194105 136.803957 
L 570.59408 134.427747 
L 570.998415 134.924235 
L 571.398748 135.210193 
L 571.794244 135.297654 
L 572.193113 135.565053 
L 572.594567 134.157705 
L 572.867054 134.687923 
L 598.533415 134.687923 
L 598.992893 134.251584 
L 599.390231 134.427669 
L 599.79225 134.270013 
L 600.191247 134.511331 
L 600.595994 133.730302 
L 600.996695 133.454648 
L 601.72886 133.754871 
L 604.596904 133.754871 
L 608.591044 132.986682 
L 608.994909 133.224648 
L 609.392916 133.114309 
L 609.79476 132.769312 
L 610.191681 132.792582 
L 610.59 132.444868 
L 614.196269 132.449623 
L 618.991276 133.069748 
L 619.388094 132.761098 
L 619.788877 133.152924 
L 620.192551 132.508749 
L 620.594507 132.2585 
L 620.966118 132.387447 
L 623.795635 132.387447 
L 627.791557 132.007428 
L 628.191913 132.386595 
L 629.393519 132.568515 
L 629.795192 132.568515 
L 630.191385 132.868705 
L 633.395 132.868705 
L 633.395 132.868705 
" style="fill:none;stroke:#2ca02c;stroke-dasharray:1.85,0.8;stroke-dashoffset:0;stroke-width:0.5;"/>
   </g>
   <g id="line2d_26">
    <path clip-path="url(#p66156e1f95)" d="M 349.4075 144.505483 
L 350.211162 141.438264 
L 350.613467 141.437922 
L 351.012417 141.013459 
L 351.810761 139.193401 
L 352.100354 139.069909 
L 358.58469 139.069909 
L 359.009647 137.50407 
L 359.406929 128.605672 
L 359.812837 125.80451 
L 360.206749 125.327776 
L 360.609726 125.101255 
L 361.407961 125.161786 
L 361.450952 124.884381 
L 368.062443 124.884381 
L 368.60933 121.53371 
L 369.411393 118.953497 
L 369.805847 118.783066 
L 370.206229 119.295131 
L 370.60657 119.230448 
L 371.007609 118.806761 
L 374.212132 118.806761 
L 397.404259 118.129893 
L 397.792305 117.408839 
L 406.401219 117.408901 
L 407.003461 116.851108 
L 407.405212 115.164916 
L 407.808444 114.210795 
L 408.202805 113.975546 
L 408.606401 113.27196 
L 409.005422 111.119797 
L 409.40905 110.708055 
L 412.609594 110.717984 
L 416.057452 110.717984 
L 416.607785 107.455583 
L 417.009127 103.236713 
L 417.100876 103.508376 
L 425.672058 103.609556 
L 426.20556 99.827594 
L 426.60615 98.715657 
L 427.000394 98.073492 
L 427.402265 97.923399 
L 427.801336 97.580191 
L 428.205687 96.806271 
L 428.605568 96.474734 
L 428.987033 96.490841 
L 435.405338 96.490841 
L 435.802376 93.910558 
L 436.205718 93.214626 
L 436.605828 90.51524 
L 437.000483 89.587902 
L 437.405389 89.837074 
L 437.800872 89.743178 
L 438.206293 87.594953 
L 438.474366 87.51542 
L 464.602464 87.493159 
L 464.999831 86.884632 
L 465.403384 87.094583 
L 466.19923 87.06417 
L 467.005501 86.535118 
L 470.205787 86.541439 
L 474.20461 85.691202 
L 474.597194 84.951439 
L 475.002404 85.021319 
L 475.398143 85.204932 
L 475.799343 84.987062 
L 476.204193 85.358606 
L 476.604937 84.901403 
L 483.290623 84.901403 
L 483.801466 85.28243 
L 484.200416 83.782571 
L 484.603069 84.42796 
L 485.402139 84.841694 
L 485.801484 84.086563 
L 486.468947 83.749636 
L 493.00175 83.749636 
L 493.397497 82.566177 
L 493.804017 83.927012 
L 494.202712 83.057008 
L 495.000503 82.442254 
L 495.400273 82.242829 
L 495.80049 82.760027 
L 495.902361 82.584824 
L 502.531975 82.584824 
L 502.998319 82.078258 
L 503.402951 83.184445 
L 504.197131 82.699459 
L 504.599103 81.357667 
L 505.397722 81.649315 
L 531.314261 81.649315 
L 532.196005 83.843639 
L 532.596795 83.906158 
L 533.394576 83.145395 
L 533.801396 83.145395 
L 534.200219 82.290312 
L 534.484709 82.494716 
L 537.401345 82.494716 
L 541.79787 76.875559 
L 542.194215 77.891599 
L 542.595816 77.386289 
L 542.99875 78.52556 
L 543.398433 78.360195 
L 543.800139 78.904591 
L 544.10916 78.880453 
L 547.000711 78.880453 
L 550.995169 79.93629 
L 551.396773 80.879021 
L 551.79757 80.362446 
L 552.197914 78.640464 
L 552.592757 78.640464 
L 552.997549 78.444681 
L 553.39833 78.598675 
L 560.167617 78.598675 
L 560.593554 77.272747 
L 560.992912 78.650077 
L 561.397693 80.727877 
L 561.797024 80.417221 
L 562.593617 80.605535 
L 563.207334 80.657044 
L 569.683129 80.657044 
L 570.194105 80.84763 
L 570.59408 80.233955 
L 570.998415 80.56825 
L 571.398748 80.731931 
L 571.794244 80.729718 
L 572.594567 81.23337 
L 572.867054 81.245635 
L 598.533415 81.245635 
L 598.992893 41.105579 
L 599.390231 41.171218 
L 599.79225 39.293247 
L 600.191247 39.343514 
L 600.595994 38.915469 
L 601.72886 38.87288 
L 604.596904 38.87288 
L 608.591044 38.999061 
L 609.79476 38.557159 
L 610.191681 38.448774 
L 610.59 38.556611 
L 610.993642 39.152259 
L 611.196603 39.162186 
L 614.196269 39.162186 
L 618.195605 38.484584 
L 618.595042 38.148681 
L 619.388094 37.895444 
L 619.788877 37.773931 
L 620.192551 36.512075 
L 620.594507 36.208943 
L 627.791557 36.225457 
L 628.191913 35.33819 
L 628.592482 35.318863 
L 628.992543 34.38271 
L 629.393519 34.498996 
L 629.795192 34.398934 
L 630.495517 34.421113 
L 633.395 34.421113 
L 633.395 34.421113 
" style="fill:none;stroke:#2ca02c;stroke-linecap:square;stroke-width:0.5;"/>
   </g>
   <g id="line2d_27">
    <path clip-path="url(#p66156e1f95)" d="M 368.607515 144.635577 
L 369.009498 143.388803 
L 369.409285 143.964069 
L 369.808701 144.114824 
L 370.205532 144.774511 
L 370.60657 143.691588 
L 371.007701 143.427026 
L 371.212522 143.586444 
L 396.723824 143.586444 
L 397.793409 141.057091 
L 406.401219 141.054609 
L 407.403454 144.396209 
L 407.807816 145.958647 
L 408.206851 145.139567 
L 408.604614 144.61771 
L 409.003735 143.205881 
L 409.786801 144.677165 
L 416.094784 144.677165 
L 416.607785 145.448056 
L 417.005912 145.005113 
L 417.099099 145.070898 
L 425.672058 145.198788 
L 426.203884 141.160385 
L 427.00406 143.045603 
L 427.4042 145.96408 
L 427.804939 146.030861 
L 428.202078 144.857732 
L 428.607943 144.163274 
L 435.405338 144.165026 
L 435.805969 139.422734 
L 436.204437 141.294736 
L 436.600469 141.055588 
L 437.001496 138.714594 
L 437.405389 138.254858 
L 437.803886 138.04233 
L 438.201104 135.013395 
L 438.474366 133.821544 
L 441.40769 133.821544 
L 465.404626 199.050547 
L 466.202854 199.023141 
L 466.605851 198.703676 
L 467.002069 199.756281 
L 467.298147 199.739991 
L 473.456567 199.739991 
L 474.603526 197.538801 
L 475.004941 197.839977 
L 475.404948 196.840269 
L 475.801912 197.252915 
L 476.200193 196.053189 
L 476.599303 196.644509 
L 484.200024 196.86657 
L 484.603019 198.189937 
L 485.801666 199.081606 
L 486.202866 198.891495 
L 486.468947 199.642976 
L 493.00175 199.642976 
L 493.401219 200.263651 
L 493.801633 201.757812 
L 494.200614 197.611458 
L 494.601991 197.11933 
L 495.004133 198.392663 
L 495.902361 197.499165 
L 502.531975 197.499165 
L 503.000529 199.239857 
L 503.401212 190.502278 
L 503.800431 191.482204 
L 504.201971 190.398347 
L 505.003165 190.200902 
L 505.400013 190.397763 
L 505.696511 191.307488 
L 531.37566 191.307488 
L 531.801139 189.365202 
L 532.194551 190.339076 
L 532.598629 187.934033 
L 532.998353 187.934268 
L 533.395334 187.788688 
L 533.793242 187.795088 
L 534.194817 188.213293 
L 541.395441 188.226872 
L 541.794518 186.304786 
L 542.196398 185.366482 
L 542.600741 185.521333 
L 542.99648 185.517879 
L 543.400192 190.799879 
L 543.800139 191.632585 
L 544.10916 191.426312 
L 547.000711 191.426312 
L 550.997938 190.454983 
L 551.396965 188.894659 
L 551.79687 190.883879 
L 552.197092 189.66533 
L 552.594475 189.960306 
L 552.998034 189.499173 
L 553.396906 189.73951 
L 553.77679 189.63906 
L 560.167617 189.63906 
L 560.593635 188.798686 
L 560.994049 187.435295 
L 561.394049 187.375947 
L 561.795576 187.028793 
L 562.198673 187.145334 
L 562.595426 185.884031 
L 563.258408 185.436768 
L 569.76726 185.436768 
L 570.193236 185.89108 
L 570.592752 187.112876 
L 570.991934 186.671227 
L 571.398748 188.147491 
L 572.193113 189.587282 
L 572.596236 188.977603 
L 572.867054 189.076775 
L 598.533415 189.076775 
L 598.99138 189.986031 
L 599.3938 191.38808 
L 599.79225 191.382945 
L 600.196117 191.237501 
L 600.996695 191.276473 
L 601.395936 190.831991 
L 604.596904 190.831991 
L 608.993153 190.452205 
L 609.391765 191.454549 
L 609.794511 193.342648 
L 610.593716 193.876546 
L 610.990898 192.405625 
L 611.196603 192.414782 
L 614.196269 192.414782 
L 618.195605 184.067499 
L 618.590167 185.902852 
L 619.394093 185.95591 
L 620.189913 185.096845 
L 620.593068 184.995564 
L 620.956989 184.718158 
L 627.232873 184.718158 
L 627.793322 173.759307 
L 628.191913 170.263149 
L 628.58874 168.923547 
L 628.994016 168.290521 
L 629.387973 166.809372 
L 629.793695 165.963096 
L 630.190478 165.767391 
L 630.495517 166.376742 
L 633.395 166.376742 
L 633.395 166.376742 
" style="fill:none;stroke:#d62728;stroke-dasharray:1.85,0.8;stroke-dashoffset:0;stroke-width:0.5;"/>
   </g>
   <g id="line2d_28">
    <path clip-path="url(#p66156e1f95)" d="M 368.607515 141.116803 
L 369.009498 138.417353 
L 369.409285 137.68805 
L 370.205532 137.267004 
L 371.007701 135.195999 
L 396.723824 135.195999 
L 397.403523 135.421278 
L 397.793409 135.924195 
L 403.010228 135.677742 
L 406.401219 135.677742 
L 407.009067 131.746357 
L 407.403454 131.008534 
L 407.807816 129.341446 
L 408.206851 127.137648 
L 408.604614 126.159163 
L 409.003735 120.414718 
L 409.403114 118.620124 
L 416.094784 118.623719 
L 416.607785 117.417796 
L 417.099099 117.26391 
L 425.672058 117.3918 
L 426.605822 114.82708 
L 427.00406 109.273555 
L 427.4042 109.522807 
L 427.804939 110.36946 
L 428.202078 101.574019 
L 428.607943 100.400656 
L 428.987033 100.327655 
L 435.405338 100.327655 
L 435.805969 95.600014 
L 436.204437 96.042957 
L 436.600469 95.127495 
L 437.001496 92.271075 
L 437.405389 90.834649 
L 437.803886 90.051329 
L 438.201104 78.348084 
L 438.474366 78.666718 
L 441.40769 78.666718 
L 464.60419 72.861324 
L 465.002762 71.803452 
L 465.801873 72.674089 
L 466.202854 72.70165 
L 466.605851 73.904984 
L 467.002069 74.422859 
L 470.205787 74.432327 
L 473.456567 74.432327 
L 474.200585 75.548578 
L 474.603526 74.396614 
L 475.004941 75.750888 
L 475.404948 74.612415 
L 476.811837 75.152068 
L 483.290623 75.152068 
L 483.803324 74.79642 
L 484.200024 74.091064 
L 484.603019 73.87279 
L 484.997517 74.256694 
L 485.399934 74.104361 
L 485.801666 73.772815 
L 486.202866 71.952081 
L 486.468947 71.995882 
L 493.00175 71.995882 
L 493.401219 68.873194 
L 493.801633 69.091731 
L 494.200614 69.617894 
L 494.601991 67.980102 
L 495.004133 67.497353 
L 495.397184 67.454998 
L 495.902361 66.527166 
L 502.531975 66.527166 
L 503.000529 67.47814 
L 503.401212 66.793361 
L 503.800431 66.602741 
L 504.201971 65.944553 
L 504.601274 64.791111 
L 505.003165 59.487444 
L 505.696511 58.889485 
L 531.37566 58.889485 
L 531.801139 57.89625 
L 532.194551 56.313252 
L 532.598629 55.460233 
L 532.998353 56.041958 
L 533.395334 55.858556 
L 533.793242 55.857697 
L 534.484709 55.648919 
L 537.401345 55.648919 
L 541.395441 54.487595 
L 541.794518 53.584507 
L 542.196398 51.513326 
L 542.600741 50.604985 
L 542.99648 50.130894 
L 543.400192 50.487019 
L 543.800139 53.622041 
L 544.10916 53.602561 
L 547.000711 53.602561 
L 550.997938 52.49358 
L 551.396965 50.456614 
L 551.79687 50.450791 
L 552.197092 50.648542 
L 552.594475 50.486412 
L 552.998034 50.131787 
L 553.77679 49.829153 
L 560.167617 49.829153 
L 560.994049 47.494993 
L 561.394049 47.065144 
L 561.795576 45.392209 
L 562.198673 45.822175 
L 562.595426 45.117762 
L 563.258408 44.915224 
L 570.193236 44.982276 
L 570.592752 38.827046 
L 571.794244 36.74527 
L 572.193113 35.667569 
L 572.596236 33.297963 
L 575.798807 33.294933 
L 598.533415 33.294933 
L 598.99138 30.375835 
L 599.3938 29.893142 
L 599.79225 29.770264 
L 600.589821 30.175084 
L 600.996695 29.859569 
L 601.395936 25.823369 
L 604.596904 25.823369 
L 608.590573 27.77594 
L 608.993153 31.232891 
L 609.391765 32.423841 
L 609.794511 29.992379 
L 610.195275 29.988166 
L 610.593716 32.03047 
L 610.990898 30.614421 
L 611.196603 30.549742 
L 614.196269 30.549742 
L 618.590167 28.395828 
L 618.988994 29.153614 
L 619.394093 29.151706 
L 619.795585 35.625773 
L 620.189913 32.8614 
L 620.593068 31.871721 
L 627.232873 31.871721 
L 627.793322 32.081503 
L 628.191913 24.925578 
L 628.58874 21.291119 
L 628.994016 20.485185 
L 629.387973 21.094005 
L 629.793695 20.389546 
L 630.190478 18.357812 
L 630.495517 18.433113 
L 633.395 18.433113 
L 633.395 18.433113 
" style="fill:none;stroke:#d62728;stroke-linecap:square;stroke-width:0.5;"/>
   </g>
   <g id="patch_8">
    <path d="M 349.4075 201.757812 
L 349.4075 18.357812 
" style="fill:none;stroke:#000000;stroke-linecap:square;stroke-linejoin:miter;stroke-width:0.5;"/>
   </g>
   <g id="patch_9">
    <path d="M 633.395 201.757812 
L 633.395 18.357812 
" style="fill:none;stroke:#000000;stroke-linecap:square;stroke-linejoin:miter;stroke-width:0.5;"/>
   </g>
   <g id="patch_10">
    <path d="M 349.4075 201.757812 
L 633.395 201.757812 
" style="fill:none;stroke:#000000;stroke-linecap:square;stroke-linejoin:miter;stroke-width:0.5;"/>
   </g>
   <g id="patch_11">
    <path d="M 349.4075 18.357812 
L 633.395 18.357812 
" style="fill:none;stroke:#000000;stroke-linecap:square;stroke-linejoin:miter;stroke-width:0.5;"/>
   </g>
   <g id="text_18">
    <!-- COMP2COMP vs. SPY2COMP -->
    <g transform="translate(421.668437 14.357812)scale(0.1 -0.1)">
     <use xlink:href="#ArialMT-67"/>
     <use x="72.216797" xlink:href="#ArialMT-79"/>
     <use x="150" xlink:href="#ArialMT-77"/>
     <use x="233.300781" xlink:href="#ArialMT-80"/>
     <use x="300" xlink:href="#ArialMT-50"/>
     <use x="355.615234" xlink:href="#ArialMT-67"/>
     <use x="427.832031" xlink:href="#ArialMT-79"/>
     <use x="505.615234" xlink:href="#ArialMT-77"/>
     <use x="588.916016" xlink:href="#ArialMT-80"/>
     <use x="655.599609" xlink:href="#ArialMT-32"/>
     <use x="683.382812" xlink:href="#ArialMT-118"/>
     <use x="733.382812" xlink:href="#ArialMT-115"/>
     <use x="783.382812" xlink:href="#ArialMT-46"/>
     <use x="811.166016" xlink:href="#ArialMT-32"/>
     <use x="838.949219" xlink:href="#ArialMT-83"/>
     <use x="905.648438" xlink:href="#ArialMT-80"/>
     <use x="972.347656" xlink:href="#ArialMT-89"/>
     <use x="1039.046875" xlink:href="#ArialMT-50"/>
     <use x="1094.662109" xlink:href="#ArialMT-67"/>
     <use x="1166.878906" xlink:href="#ArialMT-79"/>
     <use x="1244.662109" xlink:href="#ArialMT-77"/>
     <use x="1327.962891" xlink:href="#ArialMT-80"/>
    </g>
   </g>
   <g id="legend_2">
    <g id="line2d_29">
     <path d="M 356.6075 28.484062 
L 372.6075 28.484062 
" style="fill:none;stroke:#2ca02c;stroke-dasharray:1.85,0.8;stroke-dashoffset:0;stroke-width:0.5;"/>
    </g>
    <g id="line2d_30"/>
    <g id="text_19">
     <!-- COMP2COMP-MSFT -->
     <defs>
      <path d="M 8.203125 0 
L 8.203125 71.578125 
L 56.5 71.578125 
L 56.5 63.140625 
L 17.671875 63.140625 
L 17.671875 40.96875 
L 51.265625 40.96875 
L 51.265625 32.515625 
L 17.671875 32.515625 
L 17.671875 0 
z
" id="ArialMT-70"/>
     </defs>
     <g transform="translate(379.0075 31.284062)scale(0.08 -0.08)">
      <use xlink:href="#ArialMT-67"/>
      <use x="72.216797" xlink:href="#ArialMT-79"/>
      <use x="150" xlink:href="#ArialMT-77"/>
      <use x="233.300781" xlink:href="#ArialMT-80"/>
      <use x="300" xlink:href="#ArialMT-50"/>
      <use x="355.615234" xlink:href="#ArialMT-67"/>
      <use x="427.832031" xlink:href="#ArialMT-79"/>
      <use x="505.615234" xlink:href="#ArialMT-77"/>
      <use x="588.916016" xlink:href="#ArialMT-80"/>
      <use x="655.615234" xlink:href="#ArialMT-45"/>
      <use x="688.916016" xlink:href="#ArialMT-77"/>
      <use x="772.216797" xlink:href="#ArialMT-83"/>
      <use x="838.916016" xlink:href="#ArialMT-70"/>
      <use x="900" xlink:href="#ArialMT-84"/>
     </g>
    </g>
    <g id="line2d_31">
     <path d="M 356.6075 39.800312 
L 372.6075 39.800312 
" style="fill:none;stroke:#2ca02c;stroke-linecap:square;stroke-width:0.5;"/>
    </g>
    <g id="line2d_32"/>
    <g id="text_20">
     <!-- SPY2COMP-MSFT -->
     <g transform="translate(379.0075 42.600312)scale(0.08 -0.08)">
      <use xlink:href="#ArialMT-83"/>
      <use x="66.699219" xlink:href="#ArialMT-80"/>
      <use x="133.398438" xlink:href="#ArialMT-89"/>
      <use x="200.097656" xlink:href="#ArialMT-50"/>
      <use x="255.712891" xlink:href="#ArialMT-67"/>
      <use x="327.929688" xlink:href="#ArialMT-79"/>
      <use x="405.712891" xlink:href="#ArialMT-77"/>
      <use x="489.013672" xlink:href="#ArialMT-80"/>
      <use x="555.712891" xlink:href="#ArialMT-45"/>
      <use x="589.013672" xlink:href="#ArialMT-77"/>
      <use x="672.314453" xlink:href="#ArialMT-83"/>
      <use x="739.013672" xlink:href="#ArialMT-70"/>
      <use x="800.097656" xlink:href="#ArialMT-84"/>
     </g>
    </g>
    <g id="line2d_33">
     <path d="M 356.6075 51.116562 
L 372.6075 51.116562 
" style="fill:none;stroke:#d62728;stroke-dasharray:1.85,0.8;stroke-dashoffset:0;stroke-width:0.5;"/>
    </g>
    <g id="line2d_34"/>
    <g id="text_21">
     <!-- COMP2COMP-AAPL -->
     <defs>
      <path d="M -0.140625 0 
L 27.34375 71.578125 
L 37.546875 71.578125 
L 66.84375 0 
L 56.0625 0 
L 47.703125 21.6875 
L 17.78125 21.6875 
L 9.90625 0 
z
M 20.515625 29.390625 
L 44.78125 29.390625 
L 37.3125 49.21875 
Q 33.890625 58.25 32.234375 64.0625 
Q 30.859375 57.171875 28.375 50.390625 
z
" id="ArialMT-65"/>
      <path d="M 7.328125 0 
L 7.328125 71.578125 
L 16.796875 71.578125 
L 16.796875 8.453125 
L 52.046875 8.453125 
L 52.046875 0 
z
" id="ArialMT-76"/>
     </defs>
     <g transform="translate(379.0075 53.916562)scale(0.08 -0.08)">
      <use xlink:href="#ArialMT-67"/>
      <use x="72.216797" xlink:href="#ArialMT-79"/>
      <use x="150" xlink:href="#ArialMT-77"/>
      <use x="233.300781" xlink:href="#ArialMT-80"/>
      <use x="300" xlink:href="#ArialMT-50"/>
      <use x="355.615234" xlink:href="#ArialMT-67"/>
      <use x="427.832031" xlink:href="#ArialMT-79"/>
      <use x="505.615234" xlink:href="#ArialMT-77"/>
      <use x="588.916016" xlink:href="#ArialMT-80"/>
      <use x="655.615234" xlink:href="#ArialMT-45"/>
      <use x="688.916016" xlink:href="#ArialMT-65"/>
      <use x="755.615234" xlink:href="#ArialMT-65"/>
      <use x="822.314453" xlink:href="#ArialMT-80"/>
      <use x="889.013672" xlink:href="#ArialMT-76"/>
     </g>
    </g>
    <g id="line2d_35">
     <path d="M 356.6075 62.432812 
L 372.6075 62.432812 
" style="fill:none;stroke:#d62728;stroke-linecap:square;stroke-width:0.5;"/>
    </g>
    <g id="line2d_36"/>
    <g id="text_22">
     <!-- SPY2COMP-AAPL -->
     <g transform="translate(379.0075 65.232812)scale(0.08 -0.08)">
      <use xlink:href="#ArialMT-83"/>
      <use x="66.699219" xlink:href="#ArialMT-80"/>
      <use x="133.398438" xlink:href="#ArialMT-89"/>
      <use x="200.097656" xlink:href="#ArialMT-50"/>
      <use x="255.712891" xlink:href="#ArialMT-67"/>
      <use x="327.929688" xlink:href="#ArialMT-79"/>
      <use x="405.712891" xlink:href="#ArialMT-77"/>
      <use x="489.013672" xlink:href="#ArialMT-80"/>
      <use x="555.712891" xlink:href="#ArialMT-45"/>
      <use x="589.013672" xlink:href="#ArialMT-65"/>
      <use x="655.712891" xlink:href="#ArialMT-65"/>
      <use x="722.412109" xlink:href="#ArialMT-80"/>
      <use x="789.111328" xlink:href="#ArialMT-76"/>
     </g>
    </g>
   </g>
  </g>
 </g>
 <defs>
  <clipPath id="p89b54f1827">
   <rect height="183.4" width="283.9875" x="28.495" y="18.357812"/>
  </clipPath>
  <clipPath id="p66156e1f95">
   <rect height="183.4" width="283.9875" x="349.4075" y="18.357812"/>
  </clipPath>
 </defs>
</svg>
