<?xml version="1.0" encoding="utf-8" standalone="no"?>
<!DOCTYPE svg PUBLIC "-//W3C//DTD SVG 1.1//EN"
  "http://www.w3.org/Graphics/SVG/1.1/DTD/svg11.dtd">
<!-- Created with matplotlib (https://matplotlib.org/) -->
<svg height="424.957812pt" version="1.1" viewBox="0 0 640.64625 424.957812" width="640.64625pt" xmlns="http://www.w3.org/2000/svg" xmlns:xlink="http://www.w3.org/1999/xlink">
 <defs>
  <style type="text/css">
*{stroke-linecap:butt;stroke-linejoin:round;}
  </style>
 </defs>
 <g id="figure_1">
  <g id="patch_1">
   <path d="M -0 424.957812 
L 640.64625 424.957812 
L 640.64625 0 
L -0 0 
z
" style="fill:#ffffff;"/>
  </g>
  <g id="axes_1">
   <g id="patch_2">
    <path d="M 24.04625 207.157812 
L 314.84625 207.157812 
L 314.84625 18.357812 
L 24.04625 18.357812 
z
" style="fill:#ffffff;"/>
   </g>
   <g id="matplotlib.axis_1"/>
   <g id="matplotlib.axis_2">
    <g id="ytick_1">
     <g id="line2d_1">
      <defs>
       <path d="M 0 0 
L 1.5 0 
" id="m3241302211" style="stroke:#000000;stroke-width:0.5;"/>
      </defs>
      <g>
       <use style="stroke:#000000;stroke-width:0.5;" x="24.04625" xlink:href="#m3241302211" y="178.22878"/>
      </g>
     </g>
     <g id="text_1">
      <!-- 20 -->
      <defs>
       <path d="M 50.34375 8.453125 
L 50.34375 0 
L 3.03125 0 
Q 2.9375 3.171875 4.046875 6.109375 
Q 5.859375 10.9375 9.828125 15.625 
Q 13.8125 20.3125 21.34375 26.46875 
Q 33.015625 36.03125 37.109375 41.625 
Q 41.21875 47.21875 41.21875 52.203125 
Q 41.21875 57.421875 37.46875 61 
Q 33.734375 64.59375 27.734375 64.59375 
Q 21.390625 64.59375 17.578125 60.78125 
Q 13.765625 56.984375 13.71875 50.25 
L 4.6875 51.171875 
Q 5.609375 61.28125 11.65625 66.578125 
Q 17.71875 71.875 27.9375 71.875 
Q 38.234375 71.875 44.234375 66.15625 
Q 50.25 60.453125 50.25 52 
Q 50.25 47.703125 48.484375 43.546875 
Q 46.734375 39.40625 42.65625 34.8125 
Q 38.578125 30.21875 29.109375 22.21875 
Q 21.1875 15.578125 18.9375 13.203125 
Q 16.703125 10.84375 15.234375 8.453125 
z
" id="ArialMT-50"/>
       <path d="M 4.15625 35.296875 
Q 4.15625 48 6.765625 55.734375 
Q 9.375 63.484375 14.515625 67.671875 
Q 19.671875 71.875 27.484375 71.875 
Q 33.25 71.875 37.59375 69.546875 
Q 41.9375 67.234375 44.765625 62.859375 
Q 47.609375 58.5 49.21875 52.21875 
Q 50.828125 45.953125 50.828125 35.296875 
Q 50.828125 22.703125 48.234375 14.96875 
Q 45.65625 7.234375 40.5 3 
Q 35.359375 -1.21875 27.484375 -1.21875 
Q 17.140625 -1.21875 11.234375 6.203125 
Q 4.15625 15.140625 4.15625 35.296875 
z
M 13.1875 35.296875 
Q 13.1875 17.671875 17.3125 11.828125 
Q 21.4375 6 27.484375 6 
Q 33.546875 6 37.671875 11.859375 
Q 41.796875 17.71875 41.796875 35.296875 
Q 41.796875 52.984375 37.671875 58.78125 
Q 33.546875 64.59375 27.390625 64.59375 
Q 21.34375 64.59375 17.71875 59.46875 
Q 13.1875 52.9375 13.1875 35.296875 
z
" id="ArialMT-48"/>
      </defs>
      <g transform="translate(11.64875 181.091905)scale(0.08 -0.08)">
       <use xlink:href="#ArialMT-50"/>
       <use x="55.615234" xlink:href="#ArialMT-48"/>
      </g>
     </g>
    </g>
    <g id="ytick_2">
     <g id="line2d_2">
      <g>
       <use style="stroke:#000000;stroke-width:0.5;" x="24.04625" xlink:href="#m3241302211" y="147.777167"/>
      </g>
     </g>
     <g id="text_2">
      <!-- 40 -->
      <defs>
       <path d="M 32.328125 0 
L 32.328125 17.140625 
L 1.265625 17.140625 
L 1.265625 25.203125 
L 33.9375 71.578125 
L 41.109375 71.578125 
L 41.109375 25.203125 
L 50.78125 25.203125 
L 50.78125 17.140625 
L 41.109375 17.140625 
L 41.109375 0 
z
M 32.328125 25.203125 
L 32.328125 57.46875 
L 9.90625 25.203125 
z
" id="ArialMT-52"/>
      </defs>
      <g transform="translate(11.64875 150.640292)scale(0.08 -0.08)">
       <use xlink:href="#ArialMT-52"/>
       <use x="55.615234" xlink:href="#ArialMT-48"/>
      </g>
     </g>
    </g>
    <g id="ytick_3">
     <g id="line2d_3">
      <g>
       <use style="stroke:#000000;stroke-width:0.5;" x="24.04625" xlink:href="#m3241302211" y="117.325554"/>
      </g>
     </g>
     <g id="text_3">
      <!-- 60 -->
      <defs>
       <path d="M 49.75 54.046875 
L 41.015625 53.375 
Q 39.84375 58.546875 37.703125 60.890625 
Q 34.125 64.65625 28.90625 64.65625 
Q 24.703125 64.65625 21.53125 62.3125 
Q 17.390625 59.28125 14.984375 53.46875 
Q 12.59375 47.65625 12.5 36.921875 
Q 15.671875 41.75 20.265625 44.09375 
Q 24.859375 46.4375 29.890625 46.4375 
Q 38.671875 46.4375 44.84375 39.96875 
Q 51.03125 33.5 51.03125 23.25 
Q 51.03125 16.5 48.125 10.71875 
Q 45.21875 4.9375 40.140625 1.859375 
Q 35.0625 -1.21875 28.609375 -1.21875 
Q 17.625 -1.21875 10.6875 6.859375 
Q 3.765625 14.9375 3.765625 33.5 
Q 3.765625 54.25 11.421875 63.671875 
Q 18.109375 71.875 29.4375 71.875 
Q 37.890625 71.875 43.28125 67.140625 
Q 48.6875 62.40625 49.75 54.046875 
z
M 13.875 23.1875 
Q 13.875 18.65625 15.796875 14.5 
Q 17.71875 10.359375 21.1875 8.171875 
Q 24.65625 6 28.46875 6 
Q 34.03125 6 38.03125 10.484375 
Q 42.046875 14.984375 42.046875 22.703125 
Q 42.046875 30.125 38.078125 34.390625 
Q 34.125 38.671875 28.125 38.671875 
Q 22.171875 38.671875 18.015625 34.390625 
Q 13.875 30.125 13.875 23.1875 
z
" id="ArialMT-54"/>
      </defs>
      <g transform="translate(11.64875 120.188679)scale(0.08 -0.08)">
       <use xlink:href="#ArialMT-54"/>
       <use x="55.615234" xlink:href="#ArialMT-48"/>
      </g>
     </g>
    </g>
    <g id="ytick_4">
     <g id="line2d_4">
      <g>
       <use style="stroke:#000000;stroke-width:0.5;" x="24.04625" xlink:href="#m3241302211" y="86.873942"/>
      </g>
     </g>
     <g id="text_4">
      <!-- 80 -->
      <defs>
       <path d="M 17.671875 38.8125 
Q 12.203125 40.828125 9.5625 44.53125 
Q 6.9375 48.25 6.9375 53.421875 
Q 6.9375 61.234375 12.546875 66.546875 
Q 18.171875 71.875 27.484375 71.875 
Q 36.859375 71.875 42.578125 66.421875 
Q 48.296875 60.984375 48.296875 53.171875 
Q 48.296875 48.1875 45.671875 44.5 
Q 43.0625 40.828125 37.75 38.8125 
Q 44.34375 36.671875 47.78125 31.875 
Q 51.21875 27.09375 51.21875 20.453125 
Q 51.21875 11.28125 44.71875 5.03125 
Q 38.234375 -1.21875 27.640625 -1.21875 
Q 17.046875 -1.21875 10.546875 5.046875 
Q 4.046875 11.328125 4.046875 20.703125 
Q 4.046875 27.6875 7.59375 32.390625 
Q 11.140625 37.109375 17.671875 38.8125 
z
M 15.921875 53.71875 
Q 15.921875 48.640625 19.1875 45.40625 
Q 22.46875 42.1875 27.6875 42.1875 
Q 32.765625 42.1875 36.015625 45.375 
Q 39.265625 48.578125 39.265625 53.21875 
Q 39.265625 58.0625 35.90625 61.359375 
Q 32.5625 64.65625 27.59375 64.65625 
Q 22.5625 64.65625 19.234375 61.421875 
Q 15.921875 58.203125 15.921875 53.71875 
z
M 13.09375 20.65625 
Q 13.09375 16.890625 14.875 13.375 
Q 16.65625 9.859375 20.171875 7.921875 
Q 23.6875 6 27.734375 6 
Q 34.03125 6 38.125 10.046875 
Q 42.234375 14.109375 42.234375 20.359375 
Q 42.234375 26.703125 38.015625 30.859375 
Q 33.796875 35.015625 27.4375 35.015625 
Q 21.234375 35.015625 17.15625 30.90625 
Q 13.09375 26.8125 13.09375 20.65625 
z
" id="ArialMT-56"/>
      </defs>
      <g transform="translate(11.64875 89.737067)scale(0.08 -0.08)">
       <use xlink:href="#ArialMT-56"/>
       <use x="55.615234" xlink:href="#ArialMT-48"/>
      </g>
     </g>
    </g>
    <g id="ytick_5">
     <g id="line2d_5">
      <g>
       <use style="stroke:#000000;stroke-width:0.5;" x="24.04625" xlink:href="#m3241302211" y="56.422329"/>
      </g>
     </g>
     <g id="text_5">
      <!-- 100 -->
      <defs>
       <path d="M 37.25 0 
L 28.46875 0 
L 28.46875 56 
Q 25.296875 52.984375 20.140625 49.953125 
Q 14.984375 46.921875 10.890625 45.40625 
L 10.890625 53.90625 
Q 18.265625 57.375 23.78125 62.296875 
Q 29.296875 67.234375 31.59375 71.875 
L 37.25 71.875 
z
" id="ArialMT-49"/>
      </defs>
      <g transform="translate(7.2 59.285454)scale(0.08 -0.08)">
       <use xlink:href="#ArialMT-49"/>
       <use x="55.615234" xlink:href="#ArialMT-48"/>
       <use x="111.230469" xlink:href="#ArialMT-48"/>
      </g>
     </g>
    </g>
    <g id="ytick_6">
     <g id="line2d_6">
      <g>
       <use style="stroke:#000000;stroke-width:0.5;" x="24.04625" xlink:href="#m3241302211" y="25.970716"/>
      </g>
     </g>
     <g id="text_6">
      <!-- 120 -->
      <g transform="translate(7.2 28.833841)scale(0.08 -0.08)">
       <use xlink:href="#ArialMT-49"/>
       <use x="55.615234" xlink:href="#ArialMT-50"/>
       <use x="111.230469" xlink:href="#ArialMT-48"/>
      </g>
     </g>
    </g>
   </g>
   <g id="line2d_7">
    <path clip-path="url(#pee1a793201)" d="M 24.04625 97.532006 
L 37.264432 102.099748 
L 50.482614 30.538458 
L 63.700795 114.280393 
L 76.918977 188.886845 
L 90.137159 18.357812 
L 103.355341 169.093296 
L 116.573523 115.802974 
L 129.791705 79.261038 
L 143.009886 184.319103 
L 156.228068 169.093296 
L 169.44625 176.7062 
L 182.664432 158.435232 
L 195.882614 158.435232 
L 209.100795 184.319103 
L 222.318977 172.138458 
L 235.537159 193.454587 
L 248.755341 172.138458 
L 261.973523 178.22878 
L 275.191705 194.977167 
L 288.409886 176.7062 
L 301.628068 102.099748 
L 314.84625 159.957812 
" style="fill:none;stroke:#1f77b4;stroke-linecap:square;stroke-width:0.5;"/>
   </g>
   <g id="line2d_8">
    <path clip-path="url(#pee1a793201)" d="M 24.04625 155.390071 
L 37.264432 155.390071 
L 50.482614 134.073942 
L 63.700795 143.209425 
L 76.918977 199.544909 
L 90.137159 115.802974 
L 103.355341 190.409425 
L 116.573523 161.480393 
L 129.791705 150.822329 
L 143.009886 201.06749 
L 156.228068 190.409425 
L 169.44625 194.977167 
L 182.664432 178.22878 
L 195.882614 184.319103 
L 209.100795 196.499748 
L 222.318977 190.409425 
L 235.537159 199.544909 
L 248.755341 188.886845 
L 261.973523 188.886845 
L 275.191705 201.06749 
L 288.409886 193.454587 
L 301.628068 158.435232 
L 314.84625 182.796522 
" style="fill:none;stroke:#1f77b4;stroke-dasharray:1.85,0.8;stroke-dashoffset:0;stroke-width:0.5;"/>
   </g>
   <g id="line2d_9">
    <path clip-path="url(#pee1a793201)" d="M 24.04625 176.7062 
L 37.264432 182.796522 
L 50.482614 172.138458 
L 63.700795 191.932006 
L 76.918977 201.06749 
L 90.137159 176.7062 
L 103.355341 207.157812 
L 116.573523 185.841683 
L 129.791705 176.7062 
L 143.009886 194.977167 
L 156.228068 193.454587 
L 169.44625 194.977167 
L 182.664432 201.06749 
L 195.882614 191.932006 
L 209.100795 205.635232 
L 222.318977 196.499748 
L 235.537159 205.635232 
L 248.755341 198.022329 
L 261.973523 199.544909 
L 275.191705 204.112651 
L 288.409886 198.022329 
L 301.628068 191.932006 
L 314.84625 193.454587 
" style="fill:none;stroke:#1f77b4;stroke-dasharray:3.2,0.8,0.5,0.8;stroke-dashoffset:0;stroke-width:0.5;"/>
   </g>
   <g id="patch_3">
    <path d="M 24.04625 207.157812 
L 24.04625 18.357812 
" style="fill:none;stroke:#000000;stroke-linecap:square;stroke-linejoin:miter;stroke-width:0.5;"/>
   </g>
   <g id="patch_4">
    <path d="M 314.84625 207.157812 
L 314.84625 18.357812 
" style="fill:none;stroke:#000000;stroke-linecap:square;stroke-linejoin:miter;stroke-width:0.5;"/>
   </g>
   <g id="patch_5">
    <path d="M 24.04625 207.157812 
L 314.84625 207.157812 
" style="fill:none;stroke:#000000;stroke-linecap:square;stroke-linejoin:miter;stroke-width:0.5;"/>
   </g>
   <g id="patch_6">
    <path d="M 24.04625 18.357812 
L 314.84625 18.357812 
" style="fill:none;stroke:#000000;stroke-linecap:square;stroke-linejoin:miter;stroke-width:0.5;"/>
   </g>
   <g id="text_7">
    <!-- SPY2COMP-INTC -->
    <defs>
     <path d="M 4.5 23 
L 13.421875 23.78125 
Q 14.0625 18.40625 16.375 14.96875 
Q 18.703125 11.53125 23.578125 9.40625 
Q 28.46875 7.28125 34.578125 7.28125 
Q 39.984375 7.28125 44.140625 8.890625 
Q 48.296875 10.5 50.3125 13.296875 
Q 52.34375 16.109375 52.34375 19.4375 
Q 52.34375 22.796875 50.390625 25.3125 
Q 48.4375 27.828125 43.953125 29.546875 
Q 41.0625 30.671875 31.203125 33.03125 
Q 21.34375 35.40625 17.390625 37.5 
Q 12.25 40.1875 9.734375 44.15625 
Q 7.234375 48.140625 7.234375 53.078125 
Q 7.234375 58.5 10.296875 63.203125 
Q 13.375 67.921875 19.28125 70.359375 
Q 25.203125 72.796875 32.421875 72.796875 
Q 40.375 72.796875 46.453125 70.234375 
Q 52.546875 67.671875 55.8125 62.6875 
Q 59.078125 57.71875 59.328125 51.421875 
L 50.25 50.734375 
Q 49.515625 57.515625 45.28125 60.984375 
Q 41.0625 64.453125 32.8125 64.453125 
Q 24.21875 64.453125 20.28125 61.296875 
Q 16.359375 58.15625 16.359375 53.71875 
Q 16.359375 49.859375 19.140625 47.359375 
Q 21.875 44.875 33.421875 42.265625 
Q 44.96875 39.65625 49.265625 37.703125 
Q 55.515625 34.8125 58.484375 30.390625 
Q 61.46875 25.984375 61.46875 20.21875 
Q 61.46875 14.5 58.203125 9.4375 
Q 54.9375 4.390625 48.796875 1.578125 
Q 42.671875 -1.21875 35.015625 -1.21875 
Q 25.296875 -1.21875 18.71875 1.609375 
Q 12.15625 4.4375 8.421875 10.125 
Q 4.6875 15.828125 4.5 23 
z
" id="ArialMT-83"/>
     <path d="M 7.71875 0 
L 7.71875 71.578125 
L 34.71875 71.578125 
Q 41.84375 71.578125 45.609375 70.90625 
Q 50.875 70.015625 54.4375 67.546875 
Q 58.015625 65.09375 60.1875 60.640625 
Q 62.359375 56.203125 62.359375 50.875 
Q 62.359375 41.75 56.546875 35.421875 
Q 50.734375 29.109375 35.546875 29.109375 
L 17.1875 29.109375 
L 17.1875 0 
z
M 17.1875 37.546875 
L 35.6875 37.546875 
Q 44.875 37.546875 48.734375 40.96875 
Q 52.59375 44.390625 52.59375 50.59375 
Q 52.59375 55.078125 50.3125 58.265625 
Q 48.046875 61.46875 44.34375 62.5 
Q 41.9375 63.140625 35.5 63.140625 
L 17.1875 63.140625 
z
" id="ArialMT-80"/>
     <path d="M 27.875 0 
L 27.875 30.328125 
L 0.296875 71.578125 
L 11.8125 71.578125 
L 25.921875 50 
Q 29.828125 43.953125 33.203125 37.890625 
Q 36.421875 43.5 41.015625 50.53125 
L 54.890625 71.578125 
L 65.921875 71.578125 
L 37.359375 30.328125 
L 37.359375 0 
z
" id="ArialMT-89"/>
     <path d="M 58.796875 25.09375 
L 68.265625 22.703125 
Q 65.28125 11.03125 57.546875 4.90625 
Q 49.8125 -1.21875 38.625 -1.21875 
Q 27.046875 -1.21875 19.796875 3.484375 
Q 12.546875 8.203125 8.765625 17.140625 
Q 4.984375 26.078125 4.984375 36.328125 
Q 4.984375 47.515625 9.25 55.828125 
Q 13.53125 64.15625 21.40625 68.46875 
Q 29.296875 72.796875 38.765625 72.796875 
Q 49.515625 72.796875 56.828125 67.328125 
Q 64.15625 61.859375 67.046875 51.953125 
L 57.71875 49.75 
Q 55.21875 57.5625 50.484375 61.125 
Q 45.75 64.703125 38.578125 64.703125 
Q 30.328125 64.703125 24.78125 60.734375 
Q 19.234375 56.78125 16.984375 50.109375 
Q 14.75 43.453125 14.75 36.375 
Q 14.75 27.25 17.40625 20.4375 
Q 20.0625 13.625 25.671875 10.25 
Q 31.296875 6.890625 37.84375 6.890625 
Q 45.796875 6.890625 51.3125 11.46875 
Q 56.84375 16.0625 58.796875 25.09375 
z
" id="ArialMT-67"/>
     <path d="M 4.828125 34.859375 
Q 4.828125 52.6875 14.390625 62.765625 
Q 23.96875 72.859375 39.109375 72.859375 
Q 49.03125 72.859375 56.984375 68.109375 
Q 64.9375 63.375 69.109375 54.90625 
Q 73.296875 46.4375 73.296875 35.6875 
Q 73.296875 24.8125 68.890625 16.21875 
Q 64.5 7.625 56.4375 3.203125 
Q 48.390625 -1.21875 39.0625 -1.21875 
Q 28.953125 -1.21875 20.984375 3.65625 
Q 13.03125 8.546875 8.921875 16.984375 
Q 4.828125 25.4375 4.828125 34.859375 
z
M 14.59375 34.71875 
Q 14.59375 21.78125 21.546875 14.328125 
Q 28.515625 6.890625 39.015625 6.890625 
Q 49.703125 6.890625 56.609375 14.40625 
Q 63.53125 21.921875 63.53125 35.75 
Q 63.53125 44.484375 60.578125 51 
Q 57.625 57.515625 51.921875 61.109375 
Q 46.234375 64.703125 39.15625 64.703125 
Q 29.109375 64.703125 21.84375 57.78125 
Q 14.59375 50.875 14.59375 34.71875 
z
" id="ArialMT-79"/>
     <path d="M 7.421875 0 
L 7.421875 71.578125 
L 21.6875 71.578125 
L 38.625 20.90625 
Q 40.96875 13.8125 42.046875 10.296875 
Q 43.265625 14.203125 45.84375 21.78125 
L 62.984375 71.578125 
L 75.734375 71.578125 
L 75.734375 0 
L 66.609375 0 
L 66.609375 59.90625 
L 45.796875 0 
L 37.25 0 
L 16.546875 60.9375 
L 16.546875 0 
z
" id="ArialMT-77"/>
     <path d="M 3.171875 21.484375 
L 3.171875 30.328125 
L 30.171875 30.328125 
L 30.171875 21.484375 
z
" id="ArialMT-45"/>
     <path d="M 9.328125 0 
L 9.328125 71.578125 
L 18.796875 71.578125 
L 18.796875 0 
z
" id="ArialMT-73"/>
     <path d="M 7.625 0 
L 7.625 71.578125 
L 17.328125 71.578125 
L 54.9375 15.375 
L 54.9375 71.578125 
L 64.015625 71.578125 
L 64.015625 0 
L 54.296875 0 
L 16.703125 56.25 
L 16.703125 0 
z
" id="ArialMT-78"/>
     <path d="M 25.921875 0 
L 25.921875 63.140625 
L 2.34375 63.140625 
L 2.34375 71.578125 
L 59.078125 71.578125 
L 59.078125 63.140625 
L 35.40625 63.140625 
L 35.40625 0 
z
" id="ArialMT-84"/>
    </defs>
    <g transform="translate(128.330625 14.357812)scale(0.1 -0.1)">
     <use xlink:href="#ArialMT-83"/>
     <use x="66.699219" xlink:href="#ArialMT-80"/>
     <use x="133.398438" xlink:href="#ArialMT-89"/>
     <use x="200.097656" xlink:href="#ArialMT-50"/>
     <use x="255.712891" xlink:href="#ArialMT-67"/>
     <use x="327.929688" xlink:href="#ArialMT-79"/>
     <use x="405.712891" xlink:href="#ArialMT-77"/>
     <use x="489.013672" xlink:href="#ArialMT-80"/>
     <use x="555.712891" xlink:href="#ArialMT-45"/>
     <use x="589.013672" xlink:href="#ArialMT-73"/>
     <use x="616.796875" xlink:href="#ArialMT-78"/>
     <use x="689.013672" xlink:href="#ArialMT-84"/>
     <use x="750.097656" xlink:href="#ArialMT-67"/>
    </g>
   </g>
   <g id="legend_1">
    <g id="line2d_10">
     <path d="M 250.565 28.484062 
L 266.565 28.484062 
" style="fill:none;stroke:#1f77b4;stroke-linecap:square;stroke-width:0.5;"/>
    </g>
    <g id="line2d_11"/>
    <g id="text_8">
     <!-- All -->
     <defs>
      <path d="M -0.140625 0 
L 27.34375 71.578125 
L 37.546875 71.578125 
L 66.84375 0 
L 56.0625 0 
L 47.703125 21.6875 
L 17.78125 21.6875 
L 9.90625 0 
z
M 20.515625 29.390625 
L 44.78125 29.390625 
L 37.3125 49.21875 
Q 33.890625 58.25 32.234375 64.0625 
Q 30.859375 57.171875 28.375 50.390625 
z
" id="ArialMT-65"/>
      <path d="M 6.390625 0 
L 6.390625 71.578125 
L 15.1875 71.578125 
L 15.1875 0 
z
" id="ArialMT-108"/>
     </defs>
     <g transform="translate(272.965 31.284062)scale(0.08 -0.08)">
      <use xlink:href="#ArialMT-65"/>
      <use x="66.699219" xlink:href="#ArialMT-108"/>
      <use x="88.916016" xlink:href="#ArialMT-108"/>
     </g>
    </g>
    <g id="line2d_12">
     <path d="M 250.565 39.800312 
L 266.565 39.800312 
" style="fill:none;stroke:#1f77b4;stroke-dasharray:1.85,0.8;stroke-dashoffset:0;stroke-width:0.5;"/>
    </g>
    <g id="line2d_13"/>
    <g id="text_9">
     <!-- win trade -->
     <defs>
      <path d="M 16.15625 0 
L 0.296875 51.859375 
L 9.375 51.859375 
L 17.625 21.921875 
L 20.703125 10.796875 
Q 20.90625 11.625 23.390625 21.484375 
L 31.640625 51.859375 
L 40.671875 51.859375 
L 48.4375 21.78125 
L 51.03125 11.859375 
L 54 21.875 
L 62.890625 51.859375 
L 71.4375 51.859375 
L 55.21875 0 
L 46.09375 0 
L 37.84375 31.0625 
L 35.84375 39.890625 
L 25.34375 0 
z
" id="ArialMT-119"/>
      <path d="M 6.640625 61.46875 
L 6.640625 71.578125 
L 15.4375 71.578125 
L 15.4375 61.46875 
z
M 6.640625 0 
L 6.640625 51.859375 
L 15.4375 51.859375 
L 15.4375 0 
z
" id="ArialMT-105"/>
      <path d="M 6.59375 0 
L 6.59375 51.859375 
L 14.5 51.859375 
L 14.5 44.484375 
Q 20.21875 53.03125 31 53.03125 
Q 35.6875 53.03125 39.625 51.34375 
Q 43.5625 49.65625 45.515625 46.921875 
Q 47.46875 44.1875 48.25 40.4375 
Q 48.734375 37.984375 48.734375 31.890625 
L 48.734375 0 
L 39.9375 0 
L 39.9375 31.546875 
Q 39.9375 36.921875 38.90625 39.578125 
Q 37.890625 42.234375 35.28125 43.8125 
Q 32.671875 45.40625 29.15625 45.40625 
Q 23.53125 45.40625 19.453125 41.84375 
Q 15.375 38.28125 15.375 28.328125 
L 15.375 0 
z
" id="ArialMT-110"/>
      <path id="ArialMT-32"/>
      <path d="M 25.78125 7.859375 
L 27.046875 0.09375 
Q 23.34375 -0.6875 20.40625 -0.6875 
Q 15.625 -0.6875 12.984375 0.828125 
Q 10.359375 2.34375 9.28125 4.8125 
Q 8.203125 7.28125 8.203125 15.1875 
L 8.203125 45.015625 
L 1.765625 45.015625 
L 1.765625 51.859375 
L 8.203125 51.859375 
L 8.203125 64.703125 
L 16.9375 69.96875 
L 16.9375 51.859375 
L 25.78125 51.859375 
L 25.78125 45.015625 
L 16.9375 45.015625 
L 16.9375 14.703125 
Q 16.9375 10.9375 17.40625 9.859375 
Q 17.875 8.796875 18.921875 8.15625 
Q 19.96875 7.515625 21.921875 7.515625 
Q 23.390625 7.515625 25.78125 7.859375 
z
" id="ArialMT-116"/>
      <path d="M 6.5 0 
L 6.5 51.859375 
L 14.40625 51.859375 
L 14.40625 44 
Q 17.4375 49.515625 20 51.265625 
Q 22.5625 53.03125 25.640625 53.03125 
Q 30.078125 53.03125 34.671875 50.203125 
L 31.640625 42.046875 
Q 28.421875 43.953125 25.203125 43.953125 
Q 22.3125 43.953125 20.015625 42.21875 
Q 17.71875 40.484375 16.75 37.40625 
Q 15.28125 32.71875 15.28125 27.15625 
L 15.28125 0 
z
" id="ArialMT-114"/>
      <path d="M 40.4375 6.390625 
Q 35.546875 2.25 31.03125 0.53125 
Q 26.515625 -1.171875 21.34375 -1.171875 
Q 12.796875 -1.171875 8.203125 3 
Q 3.609375 7.171875 3.609375 13.671875 
Q 3.609375 17.484375 5.34375 20.625 
Q 7.078125 23.78125 9.890625 25.6875 
Q 12.703125 27.59375 16.21875 28.5625 
Q 18.796875 29.25 24.03125 29.890625 
Q 34.671875 31.15625 39.703125 32.90625 
Q 39.75 34.71875 39.75 35.203125 
Q 39.75 40.578125 37.25 42.78125 
Q 33.890625 45.75 27.25 45.75 
Q 21.046875 45.75 18.09375 43.578125 
Q 15.140625 41.40625 13.71875 35.890625 
L 5.125 37.0625 
Q 6.296875 42.578125 8.984375 45.96875 
Q 11.671875 49.359375 16.75 51.1875 
Q 21.828125 53.03125 28.515625 53.03125 
Q 35.15625 53.03125 39.296875 51.46875 
Q 43.453125 49.90625 45.40625 47.53125 
Q 47.359375 45.171875 48.140625 41.546875 
Q 48.578125 39.3125 48.578125 33.453125 
L 48.578125 21.734375 
Q 48.578125 9.46875 49.140625 6.21875 
Q 49.703125 2.984375 51.375 0 
L 42.1875 0 
Q 40.828125 2.734375 40.4375 6.390625 
z
M 39.703125 26.03125 
Q 34.90625 24.078125 25.34375 22.703125 
Q 19.921875 21.921875 17.671875 20.9375 
Q 15.4375 19.96875 14.203125 18.09375 
Q 12.984375 16.21875 12.984375 13.921875 
Q 12.984375 10.40625 15.640625 8.0625 
Q 18.3125 5.71875 23.4375 5.71875 
Q 28.515625 5.71875 32.46875 7.9375 
Q 36.421875 10.15625 38.28125 14.015625 
Q 39.703125 17 39.703125 22.796875 
z
" id="ArialMT-97"/>
      <path d="M 40.234375 0 
L 40.234375 6.546875 
Q 35.296875 -1.171875 25.734375 -1.171875 
Q 19.53125 -1.171875 14.328125 2.25 
Q 9.125 5.671875 6.265625 11.796875 
Q 3.421875 17.921875 3.421875 25.875 
Q 3.421875 33.640625 6 39.96875 
Q 8.59375 46.296875 13.765625 49.65625 
Q 18.953125 53.03125 25.34375 53.03125 
Q 30.03125 53.03125 33.6875 51.046875 
Q 37.359375 49.078125 39.65625 45.90625 
L 39.65625 71.578125 
L 48.390625 71.578125 
L 48.390625 0 
z
M 12.453125 25.875 
Q 12.453125 15.921875 16.640625 10.984375 
Q 20.84375 6.0625 26.5625 6.0625 
Q 32.328125 6.0625 36.34375 10.765625 
Q 40.375 15.484375 40.375 25.140625 
Q 40.375 35.796875 36.265625 40.765625 
Q 32.171875 45.75 26.171875 45.75 
Q 20.3125 45.75 16.375 40.96875 
Q 12.453125 36.1875 12.453125 25.875 
z
" id="ArialMT-100"/>
      <path d="M 42.09375 16.703125 
L 51.171875 15.578125 
Q 49.03125 7.625 43.21875 3.21875 
Q 37.40625 -1.171875 28.375 -1.171875 
Q 17 -1.171875 10.328125 5.828125 
Q 3.65625 12.84375 3.65625 25.484375 
Q 3.65625 38.578125 10.390625 45.796875 
Q 17.140625 53.03125 27.875 53.03125 
Q 38.28125 53.03125 44.875 45.953125 
Q 51.46875 38.875 51.46875 26.03125 
Q 51.46875 25.25 51.421875 23.6875 
L 12.75 23.6875 
Q 13.234375 15.140625 17.578125 10.59375 
Q 21.921875 6.0625 28.421875 6.0625 
Q 33.25 6.0625 36.671875 8.59375 
Q 40.09375 11.140625 42.09375 16.703125 
z
M 13.234375 30.90625 
L 42.1875 30.90625 
Q 41.609375 37.453125 38.875 40.71875 
Q 34.671875 45.796875 27.984375 45.796875 
Q 21.921875 45.796875 17.796875 41.75 
Q 13.671875 37.703125 13.234375 30.90625 
z
" id="ArialMT-101"/>
     </defs>
     <g transform="translate(272.965 42.600312)scale(0.08 -0.08)">
      <use xlink:href="#ArialMT-119"/>
      <use x="72.216797" xlink:href="#ArialMT-105"/>
      <use x="94.433594" xlink:href="#ArialMT-110"/>
      <use x="150.048828" xlink:href="#ArialMT-32"/>
      <use x="177.832031" xlink:href="#ArialMT-116"/>
      <use x="205.615234" xlink:href="#ArialMT-114"/>
      <use x="238.916016" xlink:href="#ArialMT-97"/>
      <use x="294.53125" xlink:href="#ArialMT-100"/>
      <use x="350.146484" xlink:href="#ArialMT-101"/>
     </g>
    </g>
    <g id="line2d_14">
     <path d="M 250.565 51.116562 
L 266.565 51.116562 
" style="fill:none;stroke:#1f77b4;stroke-dasharray:3.2,0.8,0.5,0.8;stroke-dashoffset:0;stroke-width:0.5;"/>
    </g>
    <g id="line2d_15"/>
    <g id="text_10">
     <!-- loss trade -->
     <defs>
      <path d="M 3.328125 25.921875 
Q 3.328125 40.328125 11.328125 47.265625 
Q 18.015625 53.03125 27.640625 53.03125 
Q 38.328125 53.03125 45.109375 46.015625 
Q 51.90625 39.015625 51.90625 26.65625 
Q 51.90625 16.65625 48.90625 10.90625 
Q 45.90625 5.171875 40.15625 2 
Q 34.421875 -1.171875 27.640625 -1.171875 
Q 16.75 -1.171875 10.03125 5.8125 
Q 3.328125 12.796875 3.328125 25.921875 
z
M 12.359375 25.921875 
Q 12.359375 15.96875 16.703125 11.015625 
Q 21.046875 6.0625 27.640625 6.0625 
Q 34.1875 6.0625 38.53125 11.03125 
Q 42.875 16.015625 42.875 26.21875 
Q 42.875 35.84375 38.5 40.796875 
Q 34.125 45.75 27.640625 45.75 
Q 21.046875 45.75 16.703125 40.8125 
Q 12.359375 35.890625 12.359375 25.921875 
z
" id="ArialMT-111"/>
      <path d="M 3.078125 15.484375 
L 11.765625 16.84375 
Q 12.5 11.625 15.84375 8.84375 
Q 19.1875 6.0625 25.203125 6.0625 
Q 31.25 6.0625 34.171875 8.515625 
Q 37.109375 10.984375 37.109375 14.3125 
Q 37.109375 17.28125 34.515625 19 
Q 32.71875 20.171875 25.53125 21.96875 
Q 15.875 24.421875 12.140625 26.203125 
Q 8.40625 27.984375 6.46875 31.125 
Q 4.546875 34.28125 4.546875 38.09375 
Q 4.546875 41.546875 6.125 44.5 
Q 7.71875 47.46875 10.453125 49.421875 
Q 12.5 50.921875 16.03125 51.96875 
Q 19.578125 53.03125 23.640625 53.03125 
Q 29.734375 53.03125 34.34375 51.265625 
Q 38.96875 49.515625 41.15625 46.5 
Q 43.359375 43.5 44.1875 38.484375 
L 35.59375 37.3125 
Q 35.015625 41.3125 32.203125 43.546875 
Q 29.390625 45.796875 24.265625 45.796875 
Q 18.21875 45.796875 15.625 43.796875 
Q 13.03125 41.796875 13.03125 39.109375 
Q 13.03125 37.40625 14.109375 36.03125 
Q 15.1875 34.625 17.484375 33.6875 
Q 18.796875 33.203125 25.25 31.453125 
Q 34.578125 28.953125 38.25 27.359375 
Q 41.9375 25.78125 44.03125 22.75 
Q 46.140625 19.734375 46.140625 15.234375 
Q 46.140625 10.84375 43.578125 6.953125 
Q 41.015625 3.078125 36.171875 0.953125 
Q 31.34375 -1.171875 25.25 -1.171875 
Q 15.140625 -1.171875 9.84375 3.03125 
Q 4.546875 7.234375 3.078125 15.484375 
z
" id="ArialMT-115"/>
     </defs>
     <g transform="translate(272.965 53.916562)scale(0.08 -0.08)">
      <use xlink:href="#ArialMT-108"/>
      <use x="22.216797" xlink:href="#ArialMT-111"/>
      <use x="77.832031" xlink:href="#ArialMT-115"/>
      <use x="127.832031" xlink:href="#ArialMT-115"/>
      <use x="177.832031" xlink:href="#ArialMT-32"/>
      <use x="205.615234" xlink:href="#ArialMT-116"/>
      <use x="233.398438" xlink:href="#ArialMT-114"/>
      <use x="266.699219" xlink:href="#ArialMT-97"/>
      <use x="322.314453" xlink:href="#ArialMT-100"/>
      <use x="377.929688" xlink:href="#ArialMT-101"/>
     </g>
    </g>
   </g>
  </g>
  <g id="axes_2">
   <g id="patch_7">
    <path d="M 342.64625 207.157812 
L 633.44625 207.157812 
L 633.44625 18.357812 
L 342.64625 18.357812 
z
" style="fill:#ffffff;"/>
   </g>
   <g id="matplotlib.axis_3"/>
   <g id="matplotlib.axis_4">
    <g id="ytick_7">
     <g id="line2d_16">
      <g>
       <use style="stroke:#000000;stroke-width:0.5;" x="342.64625" xlink:href="#m3241302211" y="182.926796"/>
      </g>
     </g>
     <g id="text_11">
      <!-- 25 -->
      <defs>
       <path d="M 4.15625 18.75 
L 13.375 19.53125 
Q 14.40625 12.796875 18.140625 9.390625 
Q 21.875 6 27.15625 6 
Q 33.5 6 37.890625 10.78125 
Q 42.28125 15.578125 42.28125 23.484375 
Q 42.28125 31 38.0625 35.34375 
Q 33.84375 39.703125 27 39.703125 
Q 22.75 39.703125 19.328125 37.765625 
Q 15.921875 35.84375 13.96875 32.765625 
L 5.71875 33.84375 
L 12.640625 70.609375 
L 48.25 70.609375 
L 48.25 62.203125 
L 19.671875 62.203125 
L 15.828125 42.96875 
Q 22.265625 47.46875 29.34375 47.46875 
Q 38.71875 47.46875 45.15625 40.96875 
Q 51.609375 34.46875 51.609375 24.265625 
Q 51.609375 14.546875 45.953125 7.46875 
Q 39.0625 -1.21875 27.15625 -1.21875 
Q 17.390625 -1.21875 11.203125 4.25 
Q 5.03125 9.71875 4.15625 18.75 
z
" id="ArialMT-53"/>
      </defs>
      <g transform="translate(330.24875 185.789921)scale(0.08 -0.08)">
       <use xlink:href="#ArialMT-50"/>
       <use x="55.615234" xlink:href="#ArialMT-53"/>
      </g>
     </g>
    </g>
    <g id="ytick_8">
     <g id="line2d_17">
      <g>
       <use style="stroke:#000000;stroke-width:0.5;" x="342.64625" xlink:href="#m3241302211" y="157.686155"/>
      </g>
     </g>
     <g id="text_12">
      <!-- 50 -->
      <g transform="translate(330.24875 160.54928)scale(0.08 -0.08)">
       <use xlink:href="#ArialMT-53"/>
       <use x="55.615234" xlink:href="#ArialMT-48"/>
      </g>
     </g>
    </g>
    <g id="ytick_9">
     <g id="line2d_18">
      <g>
       <use style="stroke:#000000;stroke-width:0.5;" x="342.64625" xlink:href="#m3241302211" y="132.445513"/>
      </g>
     </g>
     <g id="text_13">
      <!-- 75 -->
      <defs>
       <path d="M 4.734375 62.203125 
L 4.734375 70.65625 
L 51.078125 70.65625 
L 51.078125 63.8125 
Q 44.234375 56.546875 37.515625 44.484375 
Q 30.8125 32.421875 27.15625 19.671875 
Q 24.515625 10.6875 23.78125 0 
L 14.75 0 
Q 14.890625 8.453125 18.0625 20.40625 
Q 21.234375 32.375 27.171875 43.484375 
Q 33.109375 54.59375 39.796875 62.203125 
z
" id="ArialMT-55"/>
      </defs>
      <g transform="translate(330.24875 135.308638)scale(0.08 -0.08)">
       <use xlink:href="#ArialMT-55"/>
       <use x="55.615234" xlink:href="#ArialMT-53"/>
      </g>
     </g>
    </g>
    <g id="ytick_10">
     <g id="line2d_19">
      <g>
       <use style="stroke:#000000;stroke-width:0.5;" x="342.64625" xlink:href="#m3241302211" y="107.204871"/>
      </g>
     </g>
     <g id="text_14">
      <!-- 100 -->
      <g transform="translate(325.8 110.067996)scale(0.08 -0.08)">
       <use xlink:href="#ArialMT-49"/>
       <use x="55.615234" xlink:href="#ArialMT-48"/>
       <use x="111.230469" xlink:href="#ArialMT-48"/>
      </g>
     </g>
    </g>
    <g id="ytick_11">
     <g id="line2d_20">
      <g>
       <use style="stroke:#000000;stroke-width:0.5;" x="342.64625" xlink:href="#m3241302211" y="81.96423"/>
      </g>
     </g>
     <g id="text_15">
      <!-- 125 -->
      <g transform="translate(325.8 84.827355)scale(0.08 -0.08)">
       <use xlink:href="#ArialMT-49"/>
       <use x="55.615234" xlink:href="#ArialMT-50"/>
       <use x="111.230469" xlink:href="#ArialMT-53"/>
      </g>
     </g>
    </g>
    <g id="ytick_12">
     <g id="line2d_21">
      <g>
       <use style="stroke:#000000;stroke-width:0.5;" x="342.64625" xlink:href="#m3241302211" y="56.723588"/>
      </g>
     </g>
     <g id="text_16">
      <!-- 150 -->
      <g transform="translate(325.8 59.586713)scale(0.08 -0.08)">
       <use xlink:href="#ArialMT-49"/>
       <use x="55.615234" xlink:href="#ArialMT-53"/>
       <use x="111.230469" xlink:href="#ArialMT-48"/>
      </g>
     </g>
    </g>
    <g id="ytick_13">
     <g id="line2d_22">
      <g>
       <use style="stroke:#000000;stroke-width:0.5;" x="342.64625" xlink:href="#m3241302211" y="31.482946"/>
      </g>
     </g>
     <g id="text_17">
      <!-- 175 -->
      <g transform="translate(325.8 34.346071)scale(0.08 -0.08)">
       <use xlink:href="#ArialMT-49"/>
       <use x="55.615234" xlink:href="#ArialMT-55"/>
       <use x="111.230469" xlink:href="#ArialMT-53"/>
      </g>
     </g>
    </g>
   </g>
   <g id="line2d_23">
    <path clip-path="url(#pf19f4ea97e)" d="M 342.64625 18.357812 
L 357.18625 142.54177 
L 371.72625 186.965299 
L 386.26625 99.127866 
L 400.80625 174.849791 
L 415.34625 125.378133 
L 429.88625 96.098989 
L 444.42625 183.936422 
L 458.96625 172.83054 
L 473.50625 193.023053 
L 488.04625 181.917171 
L 502.58625 180.907545 
L 517.12625 182.926796 
L 531.66625 179.897919 
L 546.20625 193.023053 
L 560.74625 176.869042 
L 575.28625 189.994176 
L 589.82625 195.042304 
L 604.36625 186.965299 
L 618.90625 148.599524 
L 633.44625 179.897919 
" style="fill:none;stroke:#ff7f0e;stroke-linecap:square;stroke-width:0.5;"/>
   </g>
   <g id="line2d_24">
    <path clip-path="url(#pf19f4ea97e)" d="M 342.64625 139.512893 
L 357.18625 177.878668 
L 371.72625 198.071181 
L 386.26625 163.743909 
L 400.80625 187.974925 
L 415.34625 171.820914 
L 429.88625 156.676529 
L 444.42625 196.05193 
L 458.96625 193.023053 
L 473.50625 201.100058 
L 488.04625 195.042304 
L 502.58625 194.032679 
L 517.12625 193.023053 
L 531.66625 189.994176 
L 546.20625 195.042304 
L 560.74625 195.042304 
L 575.28625 195.042304 
L 589.82625 200.090433 
L 604.36625 196.05193 
L 618.90625 186.965299 
L 633.44625 193.023053 
" style="fill:none;stroke:#ff7f0e;stroke-dasharray:1.85,0.8;stroke-dashoffset:0;stroke-width:0.5;"/>
   </g>
   <g id="line2d_25">
    <path clip-path="url(#pf19f4ea97e)" d="M 342.64625 174.849791 
L 357.18625 200.090433 
L 371.72625 202.109684 
L 386.26625 178.888294 
L 400.80625 204.128935 
L 415.34625 188.98455 
L 429.88625 175.859417 
L 444.42625 201.100058 
L 458.96625 191.003802 
L 473.50625 200.090433 
L 488.04625 198.071181 
L 502.58625 199.080807 
L 517.12625 203.11931 
L 531.66625 201.100058 
L 546.20625 207.157812 
L 560.74625 197.061556 
L 575.28625 206.148187 
L 589.82625 203.11931 
L 604.36625 202.109684 
L 618.90625 194.032679 
L 633.44625 199.080807 
" style="fill:none;stroke:#ff7f0e;stroke-dasharray:3.2,0.8,0.5,0.8;stroke-dashoffset:0;stroke-width:0.5;"/>
   </g>
   <g id="patch_8">
    <path d="M 342.64625 207.157812 
L 342.64625 18.357812 
" style="fill:none;stroke:#000000;stroke-linecap:square;stroke-linejoin:miter;stroke-width:0.5;"/>
   </g>
   <g id="patch_9">
    <path d="M 633.44625 207.157812 
L 633.44625 18.357812 
" style="fill:none;stroke:#000000;stroke-linecap:square;stroke-linejoin:miter;stroke-width:0.5;"/>
   </g>
   <g id="patch_10">
    <path d="M 342.64625 207.157812 
L 633.44625 207.157812 
" style="fill:none;stroke:#000000;stroke-linecap:square;stroke-linejoin:miter;stroke-width:0.5;"/>
   </g>
   <g id="patch_11">
    <path d="M 342.64625 18.357812 
L 633.44625 18.357812 
" style="fill:none;stroke:#000000;stroke-linecap:square;stroke-linejoin:miter;stroke-width:0.5;"/>
   </g>
   <g id="text_18">
    <!-- SPY2COMP-JPM -->
    <defs>
     <path d="M 2.875 20.3125 
L 11.421875 21.484375 
Q 11.765625 13.28125 14.5 10.25 
Q 17.234375 7.234375 22.078125 7.234375 
Q 25.640625 7.234375 28.21875 8.859375 
Q 30.8125 10.5 31.78125 13.296875 
Q 32.765625 16.109375 32.765625 22.265625 
L 32.765625 71.578125 
L 42.234375 71.578125 
L 42.234375 22.796875 
Q 42.234375 13.8125 40.0625 8.875 
Q 37.890625 3.953125 33.171875 1.359375 
Q 28.46875 -1.21875 22.125 -1.21875 
Q 12.703125 -1.21875 7.6875 4.203125 
Q 2.6875 9.625 2.875 20.3125 
z
" id="ArialMT-74"/>
    </defs>
    <g transform="translate(448.595469 14.357812)scale(0.1 -0.1)">
     <use xlink:href="#ArialMT-83"/>
     <use x="66.699219" xlink:href="#ArialMT-80"/>
     <use x="133.398438" xlink:href="#ArialMT-89"/>
     <use x="200.097656" xlink:href="#ArialMT-50"/>
     <use x="255.712891" xlink:href="#ArialMT-67"/>
     <use x="327.929688" xlink:href="#ArialMT-79"/>
     <use x="405.712891" xlink:href="#ArialMT-77"/>
     <use x="489.013672" xlink:href="#ArialMT-80"/>
     <use x="555.712891" xlink:href="#ArialMT-45"/>
     <use x="589.013672" xlink:href="#ArialMT-74"/>
     <use x="639.013672" xlink:href="#ArialMT-80"/>
     <use x="705.712891" xlink:href="#ArialMT-77"/>
    </g>
   </g>
   <g id="legend_2">
    <g id="line2d_26">
     <path d="M 569.165 28.484062 
L 585.165 28.484062 
" style="fill:none;stroke:#ff7f0e;stroke-linecap:square;stroke-width:0.5;"/>
    </g>
    <g id="line2d_27"/>
    <g id="text_19">
     <!-- All -->
     <g transform="translate(591.565 31.284062)scale(0.08 -0.08)">
      <use xlink:href="#ArialMT-65"/>
      <use x="66.699219" xlink:href="#ArialMT-108"/>
      <use x="88.916016" xlink:href="#ArialMT-108"/>
     </g>
    </g>
    <g id="line2d_28">
     <path d="M 569.165 39.800312 
L 585.165 39.800312 
" style="fill:none;stroke:#ff7f0e;stroke-dasharray:1.85,0.8;stroke-dashoffset:0;stroke-width:0.5;"/>
    </g>
    <g id="line2d_29"/>
    <g id="text_20">
     <!-- win trade -->
     <g transform="translate(591.565 42.600312)scale(0.08 -0.08)">
      <use xlink:href="#ArialMT-119"/>
      <use x="72.216797" xlink:href="#ArialMT-105"/>
      <use x="94.433594" xlink:href="#ArialMT-110"/>
      <use x="150.048828" xlink:href="#ArialMT-32"/>
      <use x="177.832031" xlink:href="#ArialMT-116"/>
      <use x="205.615234" xlink:href="#ArialMT-114"/>
      <use x="238.916016" xlink:href="#ArialMT-97"/>
      <use x="294.53125" xlink:href="#ArialMT-100"/>
      <use x="350.146484" xlink:href="#ArialMT-101"/>
     </g>
    </g>
    <g id="line2d_30">
     <path d="M 569.165 51.116562 
L 585.165 51.116562 
" style="fill:none;stroke:#ff7f0e;stroke-dasharray:3.2,0.8,0.5,0.8;stroke-dashoffset:0;stroke-width:0.5;"/>
    </g>
    <g id="line2d_31"/>
    <g id="text_21">
     <!-- loss trade -->
     <g transform="translate(591.565 53.916562)scale(0.08 -0.08)">
      <use xlink:href="#ArialMT-108"/>
      <use x="22.216797" xlink:href="#ArialMT-111"/>
      <use x="77.832031" xlink:href="#ArialMT-115"/>
      <use x="127.832031" xlink:href="#ArialMT-115"/>
      <use x="177.832031" xlink:href="#ArialMT-32"/>
      <use x="205.615234" xlink:href="#ArialMT-116"/>
      <use x="233.398438" xlink:href="#ArialMT-114"/>
      <use x="266.699219" xlink:href="#ArialMT-97"/>
      <use x="322.314453" xlink:href="#ArialMT-100"/>
      <use x="377.929688" xlink:href="#ArialMT-101"/>
     </g>
    </g>
   </g>
  </g>
  <g id="axes_3">
   <g id="patch_12">
    <path d="M 24.04625 417.757812 
L 314.84625 417.757812 
L 314.84625 228.957812 
L 24.04625 228.957812 
z
" style="fill:#ffffff;"/>
   </g>
   <g id="matplotlib.axis_5"/>
   <g id="matplotlib.axis_6">
    <g id="ytick_14">
     <g id="line2d_32">
      <g>
       <use style="stroke:#000000;stroke-width:0.5;" x="24.04625" xlink:href="#m3241302211" y="401.441763"/>
      </g>
     </g>
     <g id="text_22">
      <!-- 20 -->
      <g transform="translate(11.64875 404.304888)scale(0.08 -0.08)">
       <use xlink:href="#ArialMT-50"/>
       <use x="55.615234" xlink:href="#ArialMT-48"/>
      </g>
     </g>
    </g>
    <g id="ytick_15">
     <g id="line2d_33">
      <g>
       <use style="stroke:#000000;stroke-width:0.5;" x="24.04625" xlink:href="#m3241302211" y="378.133121"/>
      </g>
     </g>
     <g id="text_23">
      <!-- 40 -->
      <g transform="translate(11.64875 380.996246)scale(0.08 -0.08)">
       <use xlink:href="#ArialMT-52"/>
       <use x="55.615234" xlink:href="#ArialMT-48"/>
      </g>
     </g>
    </g>
    <g id="ytick_16">
     <g id="line2d_34">
      <g>
       <use style="stroke:#000000;stroke-width:0.5;" x="24.04625" xlink:href="#m3241302211" y="354.824479"/>
      </g>
     </g>
     <g id="text_24">
      <!-- 60 -->
      <g transform="translate(11.64875 357.687604)scale(0.08 -0.08)">
       <use xlink:href="#ArialMT-54"/>
       <use x="55.615234" xlink:href="#ArialMT-48"/>
      </g>
     </g>
    </g>
    <g id="ytick_17">
     <g id="line2d_35">
      <g>
       <use style="stroke:#000000;stroke-width:0.5;" x="24.04625" xlink:href="#m3241302211" y="331.515837"/>
      </g>
     </g>
     <g id="text_25">
      <!-- 80 -->
      <g transform="translate(11.64875 334.378962)scale(0.08 -0.08)">
       <use xlink:href="#ArialMT-56"/>
       <use x="55.615234" xlink:href="#ArialMT-48"/>
      </g>
     </g>
    </g>
    <g id="ytick_18">
     <g id="line2d_36">
      <g>
       <use style="stroke:#000000;stroke-width:0.5;" x="24.04625" xlink:href="#m3241302211" y="308.207195"/>
      </g>
     </g>
     <g id="text_26">
      <!-- 100 -->
      <g transform="translate(7.2 311.07032)scale(0.08 -0.08)">
       <use xlink:href="#ArialMT-49"/>
       <use x="55.615234" xlink:href="#ArialMT-48"/>
       <use x="111.230469" xlink:href="#ArialMT-48"/>
      </g>
     </g>
    </g>
    <g id="ytick_19">
     <g id="line2d_37">
      <g>
       <use style="stroke:#000000;stroke-width:0.5;" x="24.04625" xlink:href="#m3241302211" y="284.898553"/>
      </g>
     </g>
     <g id="text_27">
      <!-- 120 -->
      <g transform="translate(7.2 287.761678)scale(0.08 -0.08)">
       <use xlink:href="#ArialMT-49"/>
       <use x="55.615234" xlink:href="#ArialMT-50"/>
       <use x="111.230469" xlink:href="#ArialMT-48"/>
      </g>
     </g>
    </g>
    <g id="ytick_20">
     <g id="line2d_38">
      <g>
       <use style="stroke:#000000;stroke-width:0.5;" x="24.04625" xlink:href="#m3241302211" y="261.589911"/>
      </g>
     </g>
     <g id="text_28">
      <!-- 140 -->
      <g transform="translate(7.2 264.453036)scale(0.08 -0.08)">
       <use xlink:href="#ArialMT-49"/>
       <use x="55.615234" xlink:href="#ArialMT-52"/>
       <use x="111.230469" xlink:href="#ArialMT-48"/>
      </g>
     </g>
    </g>
    <g id="ytick_21">
     <g id="line2d_39">
      <g>
       <use style="stroke:#000000;stroke-width:0.5;" x="24.04625" xlink:href="#m3241302211" y="238.281269"/>
      </g>
     </g>
     <g id="text_29">
      <!-- 160 -->
      <g transform="translate(7.2 241.144394)scale(0.08 -0.08)">
       <use xlink:href="#ArialMT-49"/>
       <use x="55.615234" xlink:href="#ArialMT-54"/>
       <use x="111.230469" xlink:href="#ArialMT-48"/>
      </g>
     </g>
    </g>
   </g>
   <g id="line2d_40">
    <path clip-path="url(#p5bee2bdade)" d="M 24.04625 265.086208 
L 37.893869 228.957812 
L 51.741488 352.493615 
L 65.589107 400.276331 
L 79.436726 238.281269 
L 93.284345 385.125714 
L 107.131964 317.530652 
L 120.979583 276.740529 
L 134.827202 388.62201 
L 148.674821 394.449171 
L 162.52244 401.441763 
L 176.37006 383.960282 
L 190.217679 382.79485 
L 204.065298 397.945467 
L 217.912917 376.967689 
L 231.760536 397.945467 
L 245.608155 376.967689 
L 259.455774 388.62201 
L 273.303393 403.772627 
L 287.151012 386.291146 
L 300.998631 331.515837 
L 314.84625 382.79485 
" style="fill:none;stroke:#2ca02c;stroke-linecap:square;stroke-width:0.5;"/>
   </g>
   <g id="line2d_41">
    <path clip-path="url(#p5bee2bdade)" d="M 24.04625 333.846701 
L 37.893869 311.703492 
L 51.741488 380.463985 
L 65.589107 408.434356 
L 79.436726 308.207195 
L 93.284345 404.938059 
L 107.131964 360.65164 
L 120.979583 347.831887 
L 134.827202 403.772627 
L 148.674821 404.938059 
L 162.52244 413.096084 
L 176.37006 403.772627 
L 190.217679 408.434356 
L 204.065298 416.59238 
L 217.912917 403.772627 
L 231.760536 416.59238 
L 245.608155 399.110899 
L 259.455774 407.268924 
L 273.303393 415.426948 
L 287.151012 413.096084 
L 300.998631 379.298553 
L 314.84625 402.607195 
" style="fill:none;stroke:#2ca02c;stroke-dasharray:1.85,0.8;stroke-dashoffset:0;stroke-width:0.5;"/>
   </g>
   <g id="line2d_42">
    <path clip-path="url(#p5bee2bdade)" d="M 24.04625 378.133121 
L 37.893869 378.133121 
L 51.741488 406.103492 
L 65.589107 417.757812 
L 79.436726 387.456578 
L 93.284345 408.434356 
L 107.131964 400.276331 
L 120.979583 389.787442 
L 134.827202 416.59238 
L 148.674821 416.59238 
L 162.52244 413.096084 
L 176.37006 411.930652 
L 190.217679 402.607195 
L 204.065298 409.599788 
L 217.912917 402.607195 
L 231.760536 407.268924 
L 245.608155 403.772627 
L 259.455774 408.434356 
L 273.303393 413.096084 
L 287.151012 406.103492 
L 300.998631 403.772627 
L 314.84625 408.434356 
" style="fill:none;stroke:#2ca02c;stroke-dasharray:3.2,0.8,0.5,0.8;stroke-dashoffset:0;stroke-width:0.5;"/>
   </g>
   <g id="patch_13">
    <path d="M 24.04625 417.757812 
L 24.04625 228.957812 
" style="fill:none;stroke:#000000;stroke-linecap:square;stroke-linejoin:miter;stroke-width:0.5;"/>
   </g>
   <g id="patch_14">
    <path d="M 314.84625 417.757812 
L 314.84625 228.957812 
" style="fill:none;stroke:#000000;stroke-linecap:square;stroke-linejoin:miter;stroke-width:0.5;"/>
   </g>
   <g id="patch_15">
    <path d="M 24.04625 417.757812 
L 314.84625 417.757812 
" style="fill:none;stroke:#000000;stroke-linecap:square;stroke-linejoin:miter;stroke-width:0.5;"/>
   </g>
   <g id="patch_16">
    <path d="M 24.04625 228.957812 
L 314.84625 228.957812 
" style="fill:none;stroke:#000000;stroke-linecap:square;stroke-linejoin:miter;stroke-width:0.5;"/>
   </g>
   <g id="text_30">
    <!-- SPY2COMP-MSFT -->
    <defs>
     <path d="M 8.203125 0 
L 8.203125 71.578125 
L 56.5 71.578125 
L 56.5 63.140625 
L 17.671875 63.140625 
L 17.671875 40.96875 
L 51.265625 40.96875 
L 51.265625 32.515625 
L 17.671875 32.515625 
L 17.671875 0 
z
" id="ArialMT-70"/>
    </defs>
    <g transform="translate(126.387656 224.957812)scale(0.1 -0.1)">
     <use xlink:href="#ArialMT-83"/>
     <use x="66.699219" xlink:href="#ArialMT-80"/>
     <use x="133.398438" xlink:href="#ArialMT-89"/>
     <use x="200.097656" xlink:href="#ArialMT-50"/>
     <use x="255.712891" xlink:href="#ArialMT-67"/>
     <use x="327.929688" xlink:href="#ArialMT-79"/>
     <use x="405.712891" xlink:href="#ArialMT-77"/>
     <use x="489.013672" xlink:href="#ArialMT-80"/>
     <use x="555.712891" xlink:href="#ArialMT-45"/>
     <use x="589.013672" xlink:href="#ArialMT-77"/>
     <use x="672.314453" xlink:href="#ArialMT-83"/>
     <use x="739.013672" xlink:href="#ArialMT-70"/>
     <use x="800.097656" xlink:href="#ArialMT-84"/>
    </g>
   </g>
   <g id="legend_3">
    <g id="line2d_43">
     <path d="M 250.565 239.084062 
L 266.565 239.084062 
" style="fill:none;stroke:#2ca02c;stroke-linecap:square;stroke-width:0.5;"/>
    </g>
    <g id="line2d_44"/>
    <g id="text_31">
     <!-- All -->
     <g transform="translate(272.965 241.884062)scale(0.08 -0.08)">
      <use xlink:href="#ArialMT-65"/>
      <use x="66.699219" xlink:href="#ArialMT-108"/>
      <use x="88.916016" xlink:href="#ArialMT-108"/>
     </g>
    </g>
    <g id="line2d_45">
     <path d="M 250.565 250.400312 
L 266.565 250.400312 
" style="fill:none;stroke:#2ca02c;stroke-dasharray:1.85,0.8;stroke-dashoffset:0;stroke-width:0.5;"/>
    </g>
    <g id="line2d_46"/>
    <g id="text_32">
     <!-- win trade -->
     <g transform="translate(272.965 253.200312)scale(0.08 -0.08)">
      <use xlink:href="#ArialMT-119"/>
      <use x="72.216797" xlink:href="#ArialMT-105"/>
      <use x="94.433594" xlink:href="#ArialMT-110"/>
      <use x="150.048828" xlink:href="#ArialMT-32"/>
      <use x="177.832031" xlink:href="#ArialMT-116"/>
      <use x="205.615234" xlink:href="#ArialMT-114"/>
      <use x="238.916016" xlink:href="#ArialMT-97"/>
      <use x="294.53125" xlink:href="#ArialMT-100"/>
      <use x="350.146484" xlink:href="#ArialMT-101"/>
     </g>
    </g>
    <g id="line2d_47">
     <path d="M 250.565 261.716562 
L 266.565 261.716562 
" style="fill:none;stroke:#2ca02c;stroke-dasharray:3.2,0.8,0.5,0.8;stroke-dashoffset:0;stroke-width:0.5;"/>
    </g>
    <g id="line2d_48"/>
    <g id="text_33">
     <!-- loss trade -->
     <g transform="translate(272.965 264.516562)scale(0.08 -0.08)">
      <use xlink:href="#ArialMT-108"/>
      <use x="22.216797" xlink:href="#ArialMT-111"/>
      <use x="77.832031" xlink:href="#ArialMT-115"/>
      <use x="127.832031" xlink:href="#ArialMT-115"/>
      <use x="177.832031" xlink:href="#ArialMT-32"/>
      <use x="205.615234" xlink:href="#ArialMT-116"/>
      <use x="233.398438" xlink:href="#ArialMT-114"/>
      <use x="266.699219" xlink:href="#ArialMT-97"/>
      <use x="322.314453" xlink:href="#ArialMT-100"/>
      <use x="377.929688" xlink:href="#ArialMT-101"/>
     </g>
    </g>
   </g>
  </g>
  <g id="axes_4">
   <g id="patch_17">
    <path d="M 342.64625 417.757812 
L 633.44625 417.757812 
L 633.44625 228.957812 
L 342.64625 228.957812 
z
" style="fill:#ffffff;"/>
   </g>
   <g id="matplotlib.axis_7"/>
   <g id="matplotlib.axis_8">
    <g id="ytick_22">
     <g id="line2d_49">
      <g>
       <use style="stroke:#000000;stroke-width:0.5;" x="342.64625" xlink:href="#m3241302211" y="396.092239"/>
      </g>
     </g>
     <g id="text_34">
      <!-- 25 -->
      <g transform="translate(330.24875 398.955364)scale(0.08 -0.08)">
       <use xlink:href="#ArialMT-50"/>
       <use x="55.615234" xlink:href="#ArialMT-53"/>
      </g>
     </g>
    </g>
    <g id="ytick_23">
     <g id="line2d_50">
      <g>
       <use style="stroke:#000000;stroke-width:0.5;" x="342.64625" xlink:href="#m3241302211" y="370.299889"/>
      </g>
     </g>
     <g id="text_35">
      <!-- 50 -->
      <g transform="translate(330.24875 373.163014)scale(0.08 -0.08)">
       <use xlink:href="#ArialMT-53"/>
       <use x="55.615234" xlink:href="#ArialMT-48"/>
      </g>
     </g>
    </g>
    <g id="ytick_24">
     <g id="line2d_51">
      <g>
       <use style="stroke:#000000;stroke-width:0.5;" x="342.64625" xlink:href="#m3241302211" y="344.507539"/>
      </g>
     </g>
     <g id="text_36">
      <!-- 75 -->
      <g transform="translate(330.24875 347.370664)scale(0.08 -0.08)">
       <use xlink:href="#ArialMT-55"/>
       <use x="55.615234" xlink:href="#ArialMT-53"/>
      </g>
     </g>
    </g>
    <g id="ytick_25">
     <g id="line2d_52">
      <g>
       <use style="stroke:#000000;stroke-width:0.5;" x="342.64625" xlink:href="#m3241302211" y="318.71519"/>
      </g>
     </g>
     <g id="text_37">
      <!-- 100 -->
      <g transform="translate(325.8 321.578315)scale(0.08 -0.08)">
       <use xlink:href="#ArialMT-49"/>
       <use x="55.615234" xlink:href="#ArialMT-48"/>
       <use x="111.230469" xlink:href="#ArialMT-48"/>
      </g>
     </g>
    </g>
    <g id="ytick_26">
     <g id="line2d_53">
      <g>
       <use style="stroke:#000000;stroke-width:0.5;" x="342.64625" xlink:href="#m3241302211" y="292.92284"/>
      </g>
     </g>
     <g id="text_38">
      <!-- 125 -->
      <g transform="translate(325.8 295.785965)scale(0.08 -0.08)">
       <use xlink:href="#ArialMT-49"/>
       <use x="55.615234" xlink:href="#ArialMT-50"/>
       <use x="111.230469" xlink:href="#ArialMT-53"/>
      </g>
     </g>
    </g>
    <g id="ytick_27">
     <g id="line2d_54">
      <g>
       <use style="stroke:#000000;stroke-width:0.5;" x="342.64625" xlink:href="#m3241302211" y="267.13049"/>
      </g>
     </g>
     <g id="text_39">
      <!-- 150 -->
      <g transform="translate(325.8 269.993615)scale(0.08 -0.08)">
       <use xlink:href="#ArialMT-49"/>
       <use x="55.615234" xlink:href="#ArialMT-53"/>
       <use x="111.230469" xlink:href="#ArialMT-48"/>
      </g>
     </g>
    </g>
    <g id="ytick_28">
     <g id="line2d_55">
      <g>
       <use style="stroke:#000000;stroke-width:0.5;" x="342.64625" xlink:href="#m3241302211" y="241.33814"/>
      </g>
     </g>
     <g id="text_40">
      <!-- 175 -->
      <g transform="translate(325.8 244.201265)scale(0.08 -0.08)">
       <use xlink:href="#ArialMT-49"/>
       <use x="55.615234" xlink:href="#ArialMT-55"/>
       <use x="111.230469" xlink:href="#ArialMT-53"/>
      </g>
     </g>
    </g>
   </g>
   <g id="line2d_56">
    <path clip-path="url(#pcecc2fab43)" d="M 342.64625 343.475845 
L 357.951513 400.219015 
L 373.256776 228.957812 
L 388.562039 387.838687 
L 403.867303 304.271474 
L 419.172566 286.732676 
L 434.477829 390.933769 
L 449.783092 382.680217 
L 465.088355 384.743605 
L 480.393618 385.775299 
L 495.698882 376.490053 
L 511.004145 387.838687 
L 526.309408 364.109725 
L 541.614671 395.060545 
L 556.919934 383.711911 
L 572.225197 391.965463 
L 587.530461 407.440873 
L 602.835724 385.775299 
L 618.140987 345.539233 
L 633.44625 377.521747 
" style="fill:none;stroke:#d62728;stroke-linecap:square;stroke-width:0.5;"/>
   </g>
   <g id="line2d_57">
    <path clip-path="url(#pcecc2fab43)" d="M 342.64625 369.268195 
L 357.951513 407.440873 
L 373.256776 320.778578 
L 388.562039 403.314097 
L 403.867303 353.792785 
L 419.172566 345.539233 
L 434.477829 403.314097 
L 449.783092 403.314097 
L 465.088355 404.345791 
L 480.393618 399.187321 
L 495.698882 391.965463 
L 511.004145 400.219015 
L 526.309408 384.743605 
L 541.614671 407.440873 
L 556.919934 402.282403 
L 572.225197 405.377485 
L 587.530461 413.631037 
L 602.835724 405.377485 
L 618.140987 384.743605 
L 633.44625 396.092239 
" style="fill:none;stroke:#d62728;stroke-dasharray:1.85,0.8;stroke-dashoffset:0;stroke-width:0.5;"/>
   </g>
   <g id="line2d_58">
    <path clip-path="url(#pcecc2fab43)" d="M 342.64625 401.250709 
L 357.951513 415.694425 
L 373.256776 369.268195 
L 388.562039 409.504261 
L 403.867303 386.806993 
L 419.172566 389.902075 
L 434.477829 411.567649 
L 449.783092 404.345791 
L 465.088355 405.377485 
L 480.393618 411.567649 
L 495.698882 409.504261 
L 511.004145 412.599343 
L 526.309408 407.440873 
L 541.614671 412.599343 
L 556.919934 406.409179 
L 572.225197 411.567649 
L 587.530461 417.757812 
L 602.835724 405.377485 
L 618.140987 400.219015 
L 633.44625 405.377485 
" style="fill:none;stroke:#d62728;stroke-dasharray:3.2,0.8,0.5,0.8;stroke-dashoffset:0;stroke-width:0.5;"/>
   </g>
   <g id="patch_18">
    <path d="M 342.64625 417.757812 
L 342.64625 228.957812 
" style="fill:none;stroke:#000000;stroke-linecap:square;stroke-linejoin:miter;stroke-width:0.5;"/>
   </g>
   <g id="patch_19">
    <path d="M 633.44625 417.757812 
L 633.44625 228.957812 
" style="fill:none;stroke:#000000;stroke-linecap:square;stroke-linejoin:miter;stroke-width:0.5;"/>
   </g>
   <g id="patch_20">
    <path d="M 342.64625 417.757812 
L 633.44625 417.757812 
" style="fill:none;stroke:#000000;stroke-linecap:square;stroke-linejoin:miter;stroke-width:0.5;"/>
   </g>
   <g id="patch_21">
    <path d="M 342.64625 228.957812 
L 633.44625 228.957812 
" style="fill:none;stroke:#000000;stroke-linecap:square;stroke-linejoin:miter;stroke-width:0.5;"/>
   </g>
   <g id="text_41">
    <!-- SPY2COMP-AAPL -->
    <defs>
     <path d="M 7.328125 0 
L 7.328125 71.578125 
L 16.796875 71.578125 
L 16.796875 8.453125 
L 52.046875 8.453125 
L 52.046875 0 
z
" id="ArialMT-76"/>
    </defs>
    <g transform="translate(445.809531 224.957812)scale(0.1 -0.1)">
     <use xlink:href="#ArialMT-83"/>
     <use x="66.699219" xlink:href="#ArialMT-80"/>
     <use x="133.398438" xlink:href="#ArialMT-89"/>
     <use x="200.097656" xlink:href="#ArialMT-50"/>
     <use x="255.712891" xlink:href="#ArialMT-67"/>
     <use x="327.929688" xlink:href="#ArialMT-79"/>
     <use x="405.712891" xlink:href="#ArialMT-77"/>
     <use x="489.013672" xlink:href="#ArialMT-80"/>
     <use x="555.712891" xlink:href="#ArialMT-45"/>
     <use x="589.013672" xlink:href="#ArialMT-65"/>
     <use x="655.712891" xlink:href="#ArialMT-65"/>
     <use x="722.412109" xlink:href="#ArialMT-80"/>
     <use x="789.111328" xlink:href="#ArialMT-76"/>
    </g>
   </g>
   <g id="legend_4">
    <g id="line2d_59">
     <path d="M 569.165 239.084062 
L 585.165 239.084062 
" style="fill:none;stroke:#d62728;stroke-linecap:square;stroke-width:0.5;"/>
    </g>
    <g id="line2d_60"/>
    <g id="text_42">
     <!-- All -->
     <g transform="translate(591.565 241.884062)scale(0.08 -0.08)">
      <use xlink:href="#ArialMT-65"/>
      <use x="66.699219" xlink:href="#ArialMT-108"/>
      <use x="88.916016" xlink:href="#ArialMT-108"/>
     </g>
    </g>
    <g id="line2d_61">
     <path d="M 569.165 250.400312 
L 585.165 250.400312 
" style="fill:none;stroke:#d62728;stroke-dasharray:1.85,0.8;stroke-dashoffset:0;stroke-width:0.5;"/>
    </g>
    <g id="line2d_62"/>
    <g id="text_43">
     <!-- win trade -->
     <g transform="translate(591.565 253.200312)scale(0.08 -0.08)">
      <use xlink:href="#ArialMT-119"/>
      <use x="72.216797" xlink:href="#ArialMT-105"/>
      <use x="94.433594" xlink:href="#ArialMT-110"/>
      <use x="150.048828" xlink:href="#ArialMT-32"/>
      <use x="177.832031" xlink:href="#ArialMT-116"/>
      <use x="205.615234" xlink:href="#ArialMT-114"/>
      <use x="238.916016" xlink:href="#ArialMT-97"/>
      <use x="294.53125" xlink:href="#ArialMT-100"/>
      <use x="350.146484" xlink:href="#ArialMT-101"/>
     </g>
    </g>
    <g id="line2d_63">
     <path d="M 569.165 261.716562 
L 585.165 261.716562 
" style="fill:none;stroke:#d62728;stroke-dasharray:3.2,0.8,0.5,0.8;stroke-dashoffset:0;stroke-width:0.5;"/>
    </g>
    <g id="line2d_64"/>
    <g id="text_44">
     <!-- loss trade -->
     <g transform="translate(591.565 264.516562)scale(0.08 -0.08)">
      <use xlink:href="#ArialMT-108"/>
      <use x="22.216797" xlink:href="#ArialMT-111"/>
      <use x="77.832031" xlink:href="#ArialMT-115"/>
      <use x="127.832031" xlink:href="#ArialMT-115"/>
      <use x="177.832031" xlink:href="#ArialMT-32"/>
      <use x="205.615234" xlink:href="#ArialMT-116"/>
      <use x="233.398438" xlink:href="#ArialMT-114"/>
      <use x="266.699219" xlink:href="#ArialMT-97"/>
      <use x="322.314453" xlink:href="#ArialMT-100"/>
      <use x="377.929688" xlink:href="#ArialMT-101"/>
     </g>
    </g>
   </g>
  </g>
 </g>
 <defs>
  <clipPath id="pee1a793201">
   <rect height="188.8" width="290.8" x="24.04625" y="18.357812"/>
  </clipPath>
  <clipPath id="pf19f4ea97e">
   <rect height="188.8" width="290.8" x="342.64625" y="18.357812"/>
  </clipPath>
  <clipPath id="p5bee2bdade">
   <rect height="188.8" width="290.8" x="24.04625" y="228.957812"/>
  </clipPath>
  <clipPath id="pcecc2fab43">
   <rect height="188.8" width="290.8" x="342.64625" y="228.957812"/>
  </clipPath>
 </defs>
</svg>
