<?xml version="1.0" encoding="utf-8" standalone="no"?>
<!DOCTYPE svg PUBLIC "-//W3C//DTD SVG 1.1//EN"
  "http://www.w3.org/Graphics/SVG/1.1/DTD/svg11.dtd">
<!-- Created with matplotlib (https://matplotlib.org/) -->
<svg height="282.274062pt" version="1.1" viewBox="0 0 425.200625 282.274062" width="425.200625pt" xmlns="http://www.w3.org/2000/svg" xmlns:xlink="http://www.w3.org/1999/xlink">
 <defs>
  <style type="text/css">
*{stroke-linecap:butt;stroke-linejoin:round;}
  </style>
 </defs>
 <g id="figure_1">
  <g id="patch_1">
   <path d="M 0 282.274062 
L 425.200625 282.274062 
L 425.200625 0 
L 0 0 
z
" style="fill:#ffffff;"/>
  </g>
  <g id="axes_1">
   <g id="patch_2">
    <path d="M 30.981875 264.257812 
L 402.751625 264.257812 
L 402.751625 18.357812 
L 30.981875 18.357812 
z
" style="fill:#ffffff;"/>
   </g>
   <g id="matplotlib.axis_1">
    <g id="xtick_1">
     <g id="line2d_1">
      <defs>
       <path d="M 0 0 
L 0 -1.5 
" id="m5730c0126c" style="stroke:#000000;stroke-width:0.5;"/>
      </defs>
      <g>
       <use style="stroke:#000000;stroke-width:0.5;" x="102.331625" xlink:href="#m5730c0126c" y="264.257812"/>
      </g>
     </g>
     <g id="text_1">
      <!-- 20 -->
      <defs>
       <path d="M 50.34375 8.453125 
L 50.34375 0 
L 3.03125 0 
Q 2.9375 3.171875 4.046875 6.109375 
Q 5.859375 10.9375 9.828125 15.625 
Q 13.8125 20.3125 21.34375 26.46875 
Q 33.015625 36.03125 37.109375 41.625 
Q 41.21875 47.21875 41.21875 52.203125 
Q 41.21875 57.421875 37.46875 61 
Q 33.734375 64.59375 27.734375 64.59375 
Q 21.390625 64.59375 17.578125 60.78125 
Q 13.765625 56.984375 13.71875 50.25 
L 4.6875 51.171875 
Q 5.609375 61.28125 11.65625 66.578125 
Q 17.71875 71.875 27.9375 71.875 
Q 38.234375 71.875 44.234375 66.15625 
Q 50.25 60.453125 50.25 52 
Q 50.25 47.703125 48.484375 43.546875 
Q 46.734375 39.40625 42.65625 34.8125 
Q 38.578125 30.21875 29.109375 22.21875 
Q 21.1875 15.578125 18.9375 13.203125 
Q 16.703125 10.84375 15.234375 8.453125 
z
" id="ArialMT-50"/>
       <path d="M 4.15625 35.296875 
Q 4.15625 48 6.765625 55.734375 
Q 9.375 63.484375 14.515625 67.671875 
Q 19.671875 71.875 27.484375 71.875 
Q 33.25 71.875 37.59375 69.546875 
Q 41.9375 67.234375 44.765625 62.859375 
Q 47.609375 58.5 49.21875 52.21875 
Q 50.828125 45.953125 50.828125 35.296875 
Q 50.828125 22.703125 48.234375 14.96875 
Q 45.65625 7.234375 40.5 3 
Q 35.359375 -1.21875 27.484375 -1.21875 
Q 17.140625 -1.21875 11.234375 6.203125 
Q 4.15625 15.140625 4.15625 35.296875 
z
M 13.1875 35.296875 
Q 13.1875 17.671875 17.3125 11.828125 
Q 21.4375 6 27.484375 6 
Q 33.546875 6 37.671875 11.859375 
Q 41.796875 17.71875 41.796875 35.296875 
Q 41.796875 52.984375 37.671875 58.78125 
Q 33.546875 64.59375 27.390625 64.59375 
Q 21.34375 64.59375 17.71875 59.46875 
Q 13.1875 52.9375 13.1875 35.296875 
z
" id="ArialMT-48"/>
      </defs>
      <g transform="translate(97.882875 273.484062)scale(0.08 -0.08)">
       <use xlink:href="#ArialMT-50"/>
       <use x="55.615234" xlink:href="#ArialMT-48"/>
      </g>
     </g>
    </g>
    <g id="xtick_2">
     <g id="line2d_2">
      <g>
       <use style="stroke:#000000;stroke-width:0.5;" x="177.436625" xlink:href="#m5730c0126c" y="264.257812"/>
      </g>
     </g>
     <g id="text_2">
      <!-- 40 -->
      <defs>
       <path d="M 32.328125 0 
L 32.328125 17.140625 
L 1.265625 17.140625 
L 1.265625 25.203125 
L 33.9375 71.578125 
L 41.109375 71.578125 
L 41.109375 25.203125 
L 50.78125 25.203125 
L 50.78125 17.140625 
L 41.109375 17.140625 
L 41.109375 0 
z
M 32.328125 25.203125 
L 32.328125 57.46875 
L 9.90625 25.203125 
z
" id="ArialMT-52"/>
      </defs>
      <g transform="translate(172.987875 273.484062)scale(0.08 -0.08)">
       <use xlink:href="#ArialMT-52"/>
       <use x="55.615234" xlink:href="#ArialMT-48"/>
      </g>
     </g>
    </g>
    <g id="xtick_3">
     <g id="line2d_3">
      <g>
       <use style="stroke:#000000;stroke-width:0.5;" x="252.541625" xlink:href="#m5730c0126c" y="264.257812"/>
      </g>
     </g>
     <g id="text_3">
      <!-- 60 -->
      <defs>
       <path d="M 49.75 54.046875 
L 41.015625 53.375 
Q 39.84375 58.546875 37.703125 60.890625 
Q 34.125 64.65625 28.90625 64.65625 
Q 24.703125 64.65625 21.53125 62.3125 
Q 17.390625 59.28125 14.984375 53.46875 
Q 12.59375 47.65625 12.5 36.921875 
Q 15.671875 41.75 20.265625 44.09375 
Q 24.859375 46.4375 29.890625 46.4375 
Q 38.671875 46.4375 44.84375 39.96875 
Q 51.03125 33.5 51.03125 23.25 
Q 51.03125 16.5 48.125 10.71875 
Q 45.21875 4.9375 40.140625 1.859375 
Q 35.0625 -1.21875 28.609375 -1.21875 
Q 17.625 -1.21875 10.6875 6.859375 
Q 3.765625 14.9375 3.765625 33.5 
Q 3.765625 54.25 11.421875 63.671875 
Q 18.109375 71.875 29.4375 71.875 
Q 37.890625 71.875 43.28125 67.140625 
Q 48.6875 62.40625 49.75 54.046875 
z
M 13.875 23.1875 
Q 13.875 18.65625 15.796875 14.5 
Q 17.71875 10.359375 21.1875 8.171875 
Q 24.65625 6 28.46875 6 
Q 34.03125 6 38.03125 10.484375 
Q 42.046875 14.984375 42.046875 22.703125 
Q 42.046875 30.125 38.078125 34.390625 
Q 34.125 38.671875 28.125 38.671875 
Q 22.171875 38.671875 18.015625 34.390625 
Q 13.875 30.125 13.875 23.1875 
z
" id="ArialMT-54"/>
      </defs>
      <g transform="translate(248.092875 273.484062)scale(0.08 -0.08)">
       <use xlink:href="#ArialMT-54"/>
       <use x="55.615234" xlink:href="#ArialMT-48"/>
      </g>
     </g>
    </g>
    <g id="xtick_4">
     <g id="line2d_4">
      <g>
       <use style="stroke:#000000;stroke-width:0.5;" x="327.646625" xlink:href="#m5730c0126c" y="264.257812"/>
      </g>
     </g>
     <g id="text_4">
      <!-- 80 -->
      <defs>
       <path d="M 17.671875 38.8125 
Q 12.203125 40.828125 9.5625 44.53125 
Q 6.9375 48.25 6.9375 53.421875 
Q 6.9375 61.234375 12.546875 66.546875 
Q 18.171875 71.875 27.484375 71.875 
Q 36.859375 71.875 42.578125 66.421875 
Q 48.296875 60.984375 48.296875 53.171875 
Q 48.296875 48.1875 45.671875 44.5 
Q 43.0625 40.828125 37.75 38.8125 
Q 44.34375 36.671875 47.78125 31.875 
Q 51.21875 27.09375 51.21875 20.453125 
Q 51.21875 11.28125 44.71875 5.03125 
Q 38.234375 -1.21875 27.640625 -1.21875 
Q 17.046875 -1.21875 10.546875 5.046875 
Q 4.046875 11.328125 4.046875 20.703125 
Q 4.046875 27.6875 7.59375 32.390625 
Q 11.140625 37.109375 17.671875 38.8125 
z
M 15.921875 53.71875 
Q 15.921875 48.640625 19.1875 45.40625 
Q 22.46875 42.1875 27.6875 42.1875 
Q 32.765625 42.1875 36.015625 45.375 
Q 39.265625 48.578125 39.265625 53.21875 
Q 39.265625 58.0625 35.90625 61.359375 
Q 32.5625 64.65625 27.59375 64.65625 
Q 22.5625 64.65625 19.234375 61.421875 
Q 15.921875 58.203125 15.921875 53.71875 
z
M 13.09375 20.65625 
Q 13.09375 16.890625 14.875 13.375 
Q 16.65625 9.859375 20.171875 7.921875 
Q 23.6875 6 27.734375 6 
Q 34.03125 6 38.125 10.046875 
Q 42.234375 14.109375 42.234375 20.359375 
Q 42.234375 26.703125 38.015625 30.859375 
Q 33.796875 35.015625 27.4375 35.015625 
Q 21.234375 35.015625 17.15625 30.90625 
Q 13.09375 26.8125 13.09375 20.65625 
z
" id="ArialMT-56"/>
      </defs>
      <g transform="translate(323.197875 273.484062)scale(0.08 -0.08)">
       <use xlink:href="#ArialMT-56"/>
       <use x="55.615234" xlink:href="#ArialMT-48"/>
      </g>
     </g>
    </g>
    <g id="xtick_5">
     <g id="line2d_5">
      <g>
       <use style="stroke:#000000;stroke-width:0.5;" x="402.751625" xlink:href="#m5730c0126c" y="264.257812"/>
      </g>
     </g>
     <g id="text_5">
      <!-- 100 -->
      <defs>
       <path d="M 37.25 0 
L 28.46875 0 
L 28.46875 56 
Q 25.296875 52.984375 20.140625 49.953125 
Q 14.984375 46.921875 10.890625 45.40625 
L 10.890625 53.90625 
Q 18.265625 57.375 23.78125 62.296875 
Q 29.296875 67.234375 31.59375 71.875 
L 37.25 71.875 
z
" id="ArialMT-49"/>
      </defs>
      <g transform="translate(396.0785 273.484062)scale(0.08 -0.08)">
       <use xlink:href="#ArialMT-49"/>
       <use x="55.615234" xlink:href="#ArialMT-48"/>
       <use x="111.230469" xlink:href="#ArialMT-48"/>
      </g>
     </g>
    </g>
   </g>
   <g id="matplotlib.axis_2">
    <g id="ytick_1">
     <g id="line2d_6">
      <defs>
       <path d="M 0 0 
L 1.5 0 
" id="md60a7ce81b" style="stroke:#000000;stroke-width:0.5;"/>
      </defs>
      <g>
       <use style="stroke:#000000;stroke-width:0.5;" x="30.981875" xlink:href="#md60a7ce81b" y="239.510702"/>
      </g>
     </g>
     <g id="text_6">
      <!-- 2 -->
      <g transform="translate(23.033125 242.373827)scale(0.08 -0.08)">
       <use xlink:href="#ArialMT-50"/>
      </g>
     </g>
    </g>
    <g id="ytick_2">
     <g id="line2d_7">
      <g>
       <use style="stroke:#000000;stroke-width:0.5;" x="30.981875" xlink:href="#md60a7ce81b" y="190.016482"/>
      </g>
     </g>
     <g id="text_7">
      <!-- 4 -->
      <g transform="translate(23.033125 192.879607)scale(0.08 -0.08)">
       <use xlink:href="#ArialMT-52"/>
      </g>
     </g>
    </g>
    <g id="ytick_3">
     <g id="line2d_8">
      <g>
       <use style="stroke:#000000;stroke-width:0.5;" x="30.981875" xlink:href="#md60a7ce81b" y="140.522262"/>
      </g>
     </g>
     <g id="text_8">
      <!-- 6 -->
      <g transform="translate(23.033125 143.385387)scale(0.08 -0.08)">
       <use xlink:href="#ArialMT-54"/>
      </g>
     </g>
    </g>
    <g id="ytick_4">
     <g id="line2d_9">
      <g>
       <use style="stroke:#000000;stroke-width:0.5;" x="30.981875" xlink:href="#md60a7ce81b" y="91.028042"/>
      </g>
     </g>
     <g id="text_9">
      <!-- 8 -->
      <g transform="translate(23.033125 93.891167)scale(0.08 -0.08)">
       <use xlink:href="#ArialMT-56"/>
      </g>
     </g>
    </g>
    <g id="ytick_5">
     <g id="line2d_10">
      <g>
       <use style="stroke:#000000;stroke-width:0.5;" x="30.981875" xlink:href="#md60a7ce81b" y="41.533821"/>
      </g>
     </g>
     <g id="text_10">
      <!-- 10 -->
      <g transform="translate(18.584375 44.396946)scale(0.08 -0.08)">
       <use xlink:href="#ArialMT-49"/>
       <use x="55.615234" xlink:href="#ArialMT-48"/>
      </g>
     </g>
    </g>
    <g id="text_11">
     <!-- log(milliseconds) -->
     <defs>
      <path d="M 6.390625 0 
L 6.390625 71.578125 
L 15.1875 71.578125 
L 15.1875 0 
z
" id="ArialMT-108"/>
      <path d="M 3.328125 25.921875 
Q 3.328125 40.328125 11.328125 47.265625 
Q 18.015625 53.03125 27.640625 53.03125 
Q 38.328125 53.03125 45.109375 46.015625 
Q 51.90625 39.015625 51.90625 26.65625 
Q 51.90625 16.65625 48.90625 10.90625 
Q 45.90625 5.171875 40.15625 2 
Q 34.421875 -1.171875 27.640625 -1.171875 
Q 16.75 -1.171875 10.03125 5.8125 
Q 3.328125 12.796875 3.328125 25.921875 
z
M 12.359375 25.921875 
Q 12.359375 15.96875 16.703125 11.015625 
Q 21.046875 6.0625 27.640625 6.0625 
Q 34.1875 6.0625 38.53125 11.03125 
Q 42.875 16.015625 42.875 26.21875 
Q 42.875 35.84375 38.5 40.796875 
Q 34.125 45.75 27.640625 45.75 
Q 21.046875 45.75 16.703125 40.8125 
Q 12.359375 35.890625 12.359375 25.921875 
z
" id="ArialMT-111"/>
      <path d="M 4.984375 -4.296875 
L 13.53125 -5.5625 
Q 14.0625 -9.515625 16.5 -11.328125 
Q 19.78125 -13.765625 25.4375 -13.765625 
Q 31.546875 -13.765625 34.859375 -11.328125 
Q 38.1875 -8.890625 39.359375 -4.5 
Q 40.046875 -1.8125 39.984375 6.78125 
Q 34.234375 0 25.640625 0 
Q 14.9375 0 9.078125 7.71875 
Q 3.21875 15.4375 3.21875 26.21875 
Q 3.21875 33.640625 5.90625 39.90625 
Q 8.59375 46.1875 13.6875 49.609375 
Q 18.796875 53.03125 25.6875 53.03125 
Q 34.859375 53.03125 40.828125 45.609375 
L 40.828125 51.859375 
L 48.921875 51.859375 
L 48.921875 7.03125 
Q 48.921875 -5.078125 46.453125 -10.125 
Q 44 -15.1875 38.640625 -18.109375 
Q 33.296875 -21.046875 25.484375 -21.046875 
Q 16.21875 -21.046875 10.5 -16.875 
Q 4.78125 -12.703125 4.984375 -4.296875 
z
M 12.25 26.859375 
Q 12.25 16.65625 16.296875 11.96875 
Q 20.359375 7.28125 26.46875 7.28125 
Q 32.515625 7.28125 36.609375 11.9375 
Q 40.71875 16.609375 40.71875 26.5625 
Q 40.71875 36.078125 36.5 40.90625 
Q 32.28125 45.75 26.3125 45.75 
Q 20.453125 45.75 16.34375 40.984375 
Q 12.25 36.234375 12.25 26.859375 
z
" id="ArialMT-103"/>
      <path d="M 23.390625 -21.046875 
Q 16.109375 -11.859375 11.078125 0.4375 
Q 6.0625 12.75 6.0625 25.921875 
Q 6.0625 37.546875 9.8125 48.1875 
Q 14.203125 60.546875 23.390625 72.796875 
L 29.6875 72.796875 
Q 23.78125 62.640625 21.875 58.296875 
Q 18.890625 51.5625 17.1875 44.234375 
Q 15.09375 35.109375 15.09375 25.875 
Q 15.09375 2.390625 29.6875 -21.046875 
z
" id="ArialMT-40"/>
      <path d="M 6.59375 0 
L 6.59375 51.859375 
L 14.453125 51.859375 
L 14.453125 44.578125 
Q 16.890625 48.390625 20.9375 50.703125 
Q 25 53.03125 30.171875 53.03125 
Q 35.9375 53.03125 39.625 50.640625 
Q 43.3125 48.25 44.828125 43.953125 
Q 50.984375 53.03125 60.84375 53.03125 
Q 68.5625 53.03125 72.703125 48.75 
Q 76.859375 44.484375 76.859375 35.59375 
L 76.859375 0 
L 68.109375 0 
L 68.109375 32.671875 
Q 68.109375 37.9375 67.25 40.25 
Q 66.40625 42.578125 64.15625 43.984375 
Q 61.921875 45.40625 58.890625 45.40625 
Q 53.421875 45.40625 49.796875 41.765625 
Q 46.1875 38.140625 46.1875 30.125 
L 46.1875 0 
L 37.40625 0 
L 37.40625 33.6875 
Q 37.40625 39.546875 35.25 42.46875 
Q 33.109375 45.40625 28.21875 45.40625 
Q 24.515625 45.40625 21.359375 43.453125 
Q 18.21875 41.5 16.796875 37.734375 
Q 15.375 33.984375 15.375 26.90625 
L 15.375 0 
z
" id="ArialMT-109"/>
      <path d="M 6.640625 61.46875 
L 6.640625 71.578125 
L 15.4375 71.578125 
L 15.4375 61.46875 
z
M 6.640625 0 
L 6.640625 51.859375 
L 15.4375 51.859375 
L 15.4375 0 
z
" id="ArialMT-105"/>
      <path d="M 3.078125 15.484375 
L 11.765625 16.84375 
Q 12.5 11.625 15.84375 8.84375 
Q 19.1875 6.0625 25.203125 6.0625 
Q 31.25 6.0625 34.171875 8.515625 
Q 37.109375 10.984375 37.109375 14.3125 
Q 37.109375 17.28125 34.515625 19 
Q 32.71875 20.171875 25.53125 21.96875 
Q 15.875 24.421875 12.140625 26.203125 
Q 8.40625 27.984375 6.46875 31.125 
Q 4.546875 34.28125 4.546875 38.09375 
Q 4.546875 41.546875 6.125 44.5 
Q 7.71875 47.46875 10.453125 49.421875 
Q 12.5 50.921875 16.03125 51.96875 
Q 19.578125 53.03125 23.640625 53.03125 
Q 29.734375 53.03125 34.34375 51.265625 
Q 38.96875 49.515625 41.15625 46.5 
Q 43.359375 43.5 44.1875 38.484375 
L 35.59375 37.3125 
Q 35.015625 41.3125 32.203125 43.546875 
Q 29.390625 45.796875 24.265625 45.796875 
Q 18.21875 45.796875 15.625 43.796875 
Q 13.03125 41.796875 13.03125 39.109375 
Q 13.03125 37.40625 14.109375 36.03125 
Q 15.1875 34.625 17.484375 33.6875 
Q 18.796875 33.203125 25.25 31.453125 
Q 34.578125 28.953125 38.25 27.359375 
Q 41.9375 25.78125 44.03125 22.75 
Q 46.140625 19.734375 46.140625 15.234375 
Q 46.140625 10.84375 43.578125 6.953125 
Q 41.015625 3.078125 36.171875 0.953125 
Q 31.34375 -1.171875 25.25 -1.171875 
Q 15.140625 -1.171875 9.84375 3.03125 
Q 4.546875 7.234375 3.078125 15.484375 
z
" id="ArialMT-115"/>
      <path d="M 42.09375 16.703125 
L 51.171875 15.578125 
Q 49.03125 7.625 43.21875 3.21875 
Q 37.40625 -1.171875 28.375 -1.171875 
Q 17 -1.171875 10.328125 5.828125 
Q 3.65625 12.84375 3.65625 25.484375 
Q 3.65625 38.578125 10.390625 45.796875 
Q 17.140625 53.03125 27.875 53.03125 
Q 38.28125 53.03125 44.875 45.953125 
Q 51.46875 38.875 51.46875 26.03125 
Q 51.46875 25.25 51.421875 23.6875 
L 12.75 23.6875 
Q 13.234375 15.140625 17.578125 10.59375 
Q 21.921875 6.0625 28.421875 6.0625 
Q 33.25 6.0625 36.671875 8.59375 
Q 40.09375 11.140625 42.09375 16.703125 
z
M 13.234375 30.90625 
L 42.1875 30.90625 
Q 41.609375 37.453125 38.875 40.71875 
Q 34.671875 45.796875 27.984375 45.796875 
Q 21.921875 45.796875 17.796875 41.75 
Q 13.671875 37.703125 13.234375 30.90625 
z
" id="ArialMT-101"/>
      <path d="M 40.4375 19 
L 49.078125 17.875 
Q 47.65625 8.9375 41.8125 3.875 
Q 35.984375 -1.171875 27.484375 -1.171875 
Q 16.84375 -1.171875 10.375 5.78125 
Q 3.90625 12.75 3.90625 25.734375 
Q 3.90625 34.125 6.6875 40.421875 
Q 9.46875 46.734375 15.15625 49.875 
Q 20.84375 53.03125 27.546875 53.03125 
Q 35.984375 53.03125 41.359375 48.75 
Q 46.734375 44.484375 48.25 36.625 
L 39.703125 35.296875 
Q 38.484375 40.53125 35.375 43.15625 
Q 32.28125 45.796875 27.875 45.796875 
Q 21.234375 45.796875 17.078125 41.03125 
Q 12.9375 36.28125 12.9375 25.984375 
Q 12.9375 15.53125 16.9375 10.796875 
Q 20.953125 6.0625 27.390625 6.0625 
Q 32.5625 6.0625 36.03125 9.234375 
Q 39.5 12.40625 40.4375 19 
z
" id="ArialMT-99"/>
      <path d="M 6.59375 0 
L 6.59375 51.859375 
L 14.5 51.859375 
L 14.5 44.484375 
Q 20.21875 53.03125 31 53.03125 
Q 35.6875 53.03125 39.625 51.34375 
Q 43.5625 49.65625 45.515625 46.921875 
Q 47.46875 44.1875 48.25 40.4375 
Q 48.734375 37.984375 48.734375 31.890625 
L 48.734375 0 
L 39.9375 0 
L 39.9375 31.546875 
Q 39.9375 36.921875 38.90625 39.578125 
Q 37.890625 42.234375 35.28125 43.8125 
Q 32.671875 45.40625 29.15625 45.40625 
Q 23.53125 45.40625 19.453125 41.84375 
Q 15.375 38.28125 15.375 28.328125 
L 15.375 0 
z
" id="ArialMT-110"/>
      <path d="M 40.234375 0 
L 40.234375 6.546875 
Q 35.296875 -1.171875 25.734375 -1.171875 
Q 19.53125 -1.171875 14.328125 2.25 
Q 9.125 5.671875 6.265625 11.796875 
Q 3.421875 17.921875 3.421875 25.875 
Q 3.421875 33.640625 6 39.96875 
Q 8.59375 46.296875 13.765625 49.65625 
Q 18.953125 53.03125 25.34375 53.03125 
Q 30.03125 53.03125 33.6875 51.046875 
Q 37.359375 49.078125 39.65625 45.90625 
L 39.65625 71.578125 
L 48.390625 71.578125 
L 48.390625 0 
z
M 12.453125 25.875 
Q 12.453125 15.921875 16.640625 10.984375 
Q 20.84375 6.0625 26.5625 6.0625 
Q 32.328125 6.0625 36.34375 10.765625 
Q 40.375 15.484375 40.375 25.140625 
Q 40.375 35.796875 36.265625 40.765625 
Q 32.171875 45.75 26.171875 45.75 
Q 20.3125 45.75 16.375 40.96875 
Q 12.453125 36.1875 12.453125 25.875 
z
" id="ArialMT-100"/>
      <path d="M 12.359375 -21.046875 
L 6.0625 -21.046875 
Q 20.65625 2.390625 20.65625 25.875 
Q 20.65625 35.0625 18.5625 44.09375 
Q 16.890625 51.421875 13.921875 58.15625 
Q 12.015625 62.546875 6.0625 72.796875 
L 12.359375 72.796875 
Q 21.53125 60.546875 25.921875 48.1875 
Q 29.6875 37.546875 29.6875 25.921875 
Q 29.6875 12.75 24.625 0.4375 
Q 19.578125 -11.859375 12.359375 -21.046875 
z
" id="ArialMT-41"/>
     </defs>
     <g transform="translate(14.479687 178.539844)rotate(-90)scale(0.1 -0.1)">
      <use xlink:href="#ArialMT-108"/>
      <use x="22.216797" xlink:href="#ArialMT-111"/>
      <use x="77.832031" xlink:href="#ArialMT-103"/>
      <use x="133.447266" xlink:href="#ArialMT-40"/>
      <use x="166.748047" xlink:href="#ArialMT-109"/>
      <use x="250.048828" xlink:href="#ArialMT-105"/>
      <use x="272.265625" xlink:href="#ArialMT-108"/>
      <use x="294.482422" xlink:href="#ArialMT-108"/>
      <use x="316.699219" xlink:href="#ArialMT-105"/>
      <use x="338.916016" xlink:href="#ArialMT-115"/>
      <use x="388.916016" xlink:href="#ArialMT-101"/>
      <use x="444.53125" xlink:href="#ArialMT-99"/>
      <use x="494.53125" xlink:href="#ArialMT-111"/>
      <use x="550.146484" xlink:href="#ArialMT-110"/>
      <use x="605.761719" xlink:href="#ArialMT-100"/>
      <use x="661.376953" xlink:href="#ArialMT-115"/>
      <use x="711.376953" xlink:href="#ArialMT-41"/>
     </g>
    </g>
   </g>
   <g id="LineCollection_1">
    <path clip-path="url(#p30f1b0c204)" d="M 30.981875 140.522262 
L 402.751625 140.522262 
" style="fill:none;stroke:#ff0000;stroke-dasharray:1.85,0.8;stroke-dashoffset:0;stroke-width:0.5;"/>
   </g>
   <g id="LineCollection_2">
    <path clip-path="url(#p30f1b0c204)" d="M 30.981875 140.522262 
L 402.751625 140.522262 
" style="fill:none;stroke:#ff0000;stroke-dasharray:1.85,0.8;stroke-dashoffset:0;stroke-width:0.5;"/>
   </g>
   <g id="LineCollection_3">
    <path clip-path="url(#p30f1b0c204)" d="M 30.981875 140.522262 
L 402.751625 140.522262 
" style="fill:none;stroke:#ff0000;stroke-dasharray:1.85,0.8;stroke-dashoffset:0;stroke-width:0.5;"/>
   </g>
   <g id="LineCollection_4">
    <path clip-path="url(#p30f1b0c204)" d="M 30.981875 140.522262 
L 402.751625 140.522262 
" style="fill:none;stroke:#ff0000;stroke-dasharray:1.85,0.8;stroke-dashoffset:0;stroke-width:0.5;"/>
   </g>
   <g id="LineCollection_5">
    <path clip-path="url(#p30f1b0c204)" d="M 30.981875 140.522262 
L 402.751625 140.522262 
" style="fill:none;stroke:#ff0000;stroke-dasharray:1.85,0.8;stroke-dashoffset:0;stroke-width:0.5;"/>
   </g>
   <g id="line2d_11">
    <path clip-path="url(#p30f1b0c204)" d="M 30.981875 263.233463 
L 34.737125 260.641566 
L 38.492375 259.206433 
L 42.247625 257.940556 
L 46.002875 256.80819 
L 49.758125 253.988421 
L 53.513375 248.834194 
L 57.268625 245.552094 
L 61.023875 240.643068 
L 64.779125 235.817961 
L 68.534375 232.007476 
L 72.289625 227.043339 
L 76.044875 222.518439 
L 79.800125 217.514155 
L 83.555375 215.224742 
L 87.310625 213.048667 
L 91.065875 210.477011 
L 94.821125 207.408967 
L 98.576375 204.005317 
L 102.331625 199.797384 
L 106.086875 196.117243 
L 109.842125 193.079447 
L 113.597375 191.829366 
L 117.352625 189.224227 
L 121.107875 185.968012 
L 124.863125 181.802996 
L 128.618375 177.375071 
L 132.373625 172.74357 
L 136.128875 168.890716 
L 139.884125 165.299938 
L 143.639375 162.266196 
L 147.394625 159.09569 
L 151.149875 156.609334 
L 154.905125 154.165684 
L 158.660375 152.125011 
L 162.415625 150.064794 
L 166.170875 148.313275 
L 169.926125 146.895082 
L 173.681375 145.399829 
L 177.436625 143.968476 
L 181.191875 142.638452 
L 184.947125 141.470893 
L 188.702375 140.495426 
L 192.457625 139.511889 
L 196.212875 138.494733 
L 199.968125 137.522273 
L 203.723375 136.559967 
L 207.478625 135.676061 
L 211.233875 134.784897 
L 214.989125 133.90079 
L 218.744375 133.114978 
L 222.499625 132.438764 
L 226.254875 131.686255 
L 230.010125 130.943138 
L 233.765375 130.197114 
L 237.520625 129.456448 
L 241.275875 128.726835 
L 245.031125 127.995291 
L 248.786375 127.273763 
L 252.541625 126.631632 
L 256.296875 125.946125 
L 260.052125 125.36645 
L 263.807375 124.709663 
L 267.562625 124.14618 
L 271.317875 123.582497 
L 275.073125 123.181565 
L 278.828375 122.821228 
L 282.583625 122.289336 
L 286.338875 121.65673 
L 290.094125 121.038924 
L 293.849375 120.383563 
L 297.604625 119.776472 
L 301.359875 119.161858 
L 305.115125 118.53073 
L 308.870375 117.924181 
L 312.625625 117.313501 
L 316.380875 116.709124 
L 320.136125 116.099432 
L 323.891375 115.598073 
L 327.646625 115.001196 
L 331.401875 114.370371 
L 335.157125 113.727954 
L 338.912375 112.998053 
L 342.667625 112.313908 
L 346.422875 111.634745 
L 350.178125 110.962854 
L 353.933375 110.203473 
L 357.688625 109.426449 
L 361.443875 108.573469 
L 365.199125 107.766582 
L 368.954375 106.860662 
L 372.709625 105.945686 
L 376.464875 104.931476 
L 380.220125 103.799963 
L 383.975375 102.499085 
L 387.730625 100.879112 
L 391.485875 98.814146 
L 395.241125 95.457286 
L 398.996375 18.357898 
L 402.751625 18.357813 
" style="fill:none;stroke:#1f77b4;stroke-linecap:round;stroke-width:0.5;"/>
   </g>
   <g id="line2d_12">
    <path clip-path="url(#p30f1b0c204)" d="M 30.981875 262.298305 
L 34.737125 259.900063 
L 38.492375 258.554868 
L 42.247625 256.80819 
L 46.002875 251.105245 
L 49.758125 243.976468 
L 53.513375 236.080297 
L 57.268625 229.433162 
L 61.023875 221.77104 
L 64.779125 219.099868 
L 68.534375 218.145956 
L 72.289625 215.090954 
L 76.044875 212.746917 
L 79.800125 209.065706 
L 83.555375 206.299395 
L 87.310625 201.233967 
L 91.065875 198.537027 
L 94.821125 196.446055 
L 98.576375 194.987001 
L 102.331625 193.832982 
L 106.086875 193.051472 
L 109.842125 192.305655 
L 113.597375 190.78789 
L 117.352625 187.971692 
L 121.107875 183.994626 
L 124.863125 179.23816 
L 128.618375 174.008122 
L 132.373625 169.972059 
L 136.128875 166.473363 
L 139.884125 163.224227 
L 143.639375 159.367267 
L 147.394625 156.519335 
L 151.149875 154.004893 
L 154.905125 151.766804 
L 158.660375 149.727011 
L 162.415625 148.109265 
L 166.170875 146.686586 
L 169.926125 145.195295 
L 173.681375 143.852857 
L 177.436625 142.588665 
L 181.191875 141.370565 
L 184.947125 140.413933 
L 188.702375 139.403769 
L 192.457625 138.302707 
L 196.212875 137.282343 
L 199.968125 136.32763 
L 203.723375 135.372744 
L 207.478625 134.410194 
L 211.233875 133.559325 
L 214.989125 132.879141 
L 218.744375 132.141716 
L 222.499625 131.330698 
L 226.254875 130.567382 
L 230.010125 129.795443 
L 233.765375 129.07821 
L 237.520625 128.417177 
L 241.275875 127.698862 
L 245.031125 126.955658 
L 248.786375 126.215861 
L 252.541625 125.535151 
L 256.296875 124.926081 
L 260.052125 124.282886 
L 263.807375 123.645727 
L 267.562625 123.024433 
L 271.317875 122.434832 
L 275.073125 121.80325 
L 278.828375 121.228498 
L 282.583625 120.629357 
L 286.338875 120.012619 
L 290.094125 119.389581 
L 293.849375 118.776176 
L 297.604625 118.176082 
L 301.359875 117.602862 
L 305.115125 117.013661 
L 308.870375 116.400201 
L 312.625625 115.770446 
L 316.380875 115.189266 
L 320.136125 114.549157 
L 323.891375 113.893159 
L 327.646625 113.24979 
L 331.401875 112.599848 
L 335.157125 111.923364 
L 338.912375 111.221651 
L 342.667625 110.556724 
L 346.422875 109.837861 
L 350.178125 109.084009 
L 353.933375 108.339784 
L 357.688625 107.580899 
L 361.443875 106.769791 
L 365.199125 105.913942 
L 368.954375 104.960264 
L 372.709625 103.953542 
L 376.464875 102.920307 
L 380.220125 101.656466 
L 383.975375 100.07694 
L 387.730625 98.434024 
L 391.485875 96.068008 
L 395.241125 91.938506 
L 398.996375 18.3579 
L 402.751625 18.357813 
" style="fill:none;stroke:#ff7f0e;stroke-linecap:round;stroke-width:0.5;"/>
   </g>
   <g id="line2d_13">
    <path clip-path="url(#p30f1b0c204)" d="M 30.981875 262.298305 
L 34.737125 260.641566 
L 38.492375 259.206433 
L 42.247625 257.940556 
L 46.002875 256.80819 
L 49.758125 253.191943 
L 53.513375 246.334078 
L 57.268625 239.089176 
L 61.023875 233.617265 
L 64.779125 227.455435 
L 68.534375 220.30758 
L 72.289625 215.102039 
L 76.044875 213.641979 
L 79.800125 210.157948 
L 83.555375 207.231531 
L 87.310625 203.373482 
L 91.065875 199.176126 
L 94.821125 195.084796 
L 98.576375 192.329673 
L 102.331625 189.260029 
L 106.086875 185.449584 
L 109.842125 180.972989 
L 113.597375 176.477851 
L 117.352625 172.483867 
L 121.107875 168.442805 
L 124.863125 165.239462 
L 128.618375 162.580525 
L 132.373625 159.715202 
L 136.128875 157.412941 
L 139.884125 155.222029 
L 143.639375 153.431929 
L 147.394625 151.744439 
L 151.149875 150.342675 
L 154.905125 148.877377 
L 158.660375 147.795836 
L 162.415625 146.655184 
L 166.170875 145.59839 
L 169.926125 144.583711 
L 173.681375 143.621624 
L 177.436625 142.714489 
L 181.191875 141.819867 
L 184.947125 141.021215 
L 188.702375 140.419689 
L 192.457625 139.748392 
L 196.212875 139.021354 
L 199.968125 138.345835 
L 203.723375 137.638612 
L 207.478625 136.979686 
L 211.233875 136.344428 
L 214.989125 135.664684 
L 218.744375 135.037875 
L 222.499625 134.386043 
L 226.254875 133.761614 
L 230.010125 133.150866 
L 233.765375 132.634164 
L 237.520625 132.047886 
L 241.275875 131.450593 
L 245.031125 130.847308 
L 248.786375 130.271157 
L 252.541625 129.694773 
L 256.296875 129.109595 
L 260.052125 128.622671 
L 263.807375 128.082721 
L 267.562625 127.555225 
L 271.317875 126.999061 
L 275.073125 126.436968 
L 278.828375 125.894783 
L 282.583625 125.401593 
L 286.338875 124.857919 
L 290.094125 124.32496 
L 293.849375 123.782524 
L 297.604625 123.260667 
L 301.359875 122.752471 
L 305.115125 122.209221 
L 308.870375 121.660201 
L 312.625625 121.148769 
L 316.380875 120.580055 
L 320.136125 120.00856 
L 323.891375 119.46352 
L 327.646625 118.882177 
L 331.401875 118.299067 
L 335.157125 117.691499 
L 338.912375 117.077276 
L 342.667625 116.475652 
L 346.422875 115.833028 
L 350.178125 115.207007 
L 353.933375 114.535673 
L 357.688625 113.807687 
L 361.443875 113.054002 
L 365.199125 112.22485 
L 368.954375 111.389351 
L 372.709625 110.471461 
L 376.464875 109.457758 
L 380.220125 108.325264 
L 383.975375 106.964606 
L 387.730625 105.346622 
L 391.485875 103.27419 
L 395.241125 99.455324 
L 398.996375 18.357876 
L 402.751625 18.357813 
" style="fill:none;stroke:#2ca02c;stroke-linecap:round;stroke-width:0.5;"/>
   </g>
   <g id="line2d_14">
    <path clip-path="url(#p30f1b0c204)" d="M 30.981875 263.233463 
L 34.737125 260.641566 
L 38.492375 258.554868 
L 42.247625 256.80819 
L 46.002875 251.426091 
L 49.758125 245.552094 
L 53.513375 237.026821 
L 57.268625 230.987989 
L 61.023875 222.574757 
L 64.779125 215.48592 
L 68.534375 214.477257 
L 72.289625 213.103782 
L 76.044875 209.860267 
L 79.800125 207.353917 
L 83.555375 203.98125 
L 87.310625 199.007294 
L 91.065875 195.546096 
L 94.821125 192.694272 
L 98.576375 190.150661 
L 102.331625 187.316093 
L 106.086875 183.398516 
L 109.842125 179.255379 
L 113.597375 174.60303 
L 117.352625 170.754931 
L 121.107875 166.688702 
L 124.863125 163.558026 
L 128.618375 160.65566 
L 132.373625 157.893615 
L 136.128875 155.661312 
L 139.884125 153.484547 
L 143.639375 151.542832 
L 147.394625 149.940729 
L 151.149875 148.510294 
L 154.905125 147.35207 
L 158.660375 146.138933 
L 162.415625 145.004794 
L 166.170875 143.897219 
L 169.926125 142.894039 
L 173.681375 141.968136 
L 177.436625 141.141596 
L 181.191875 140.430004 
L 184.947125 139.742685 
L 188.702375 138.960892 
L 192.457625 138.214206 
L 196.212875 137.402293 
L 199.968125 136.655499 
L 203.723375 135.954928 
L 207.478625 135.221899 
L 211.233875 134.496582 
L 214.989125 133.801021 
L 218.744375 133.174239 
L 222.499625 132.610866 
L 226.254875 131.890089 
L 230.010125 131.24911 
L 233.765375 130.651571 
L 237.520625 130.030454 
L 241.275875 129.424806 
L 245.031125 128.845838 
L 248.786375 128.313056 
L 252.541625 127.71307 
L 256.296875 127.138258 
L 260.052125 126.568608 
L 263.807375 126.032779 
L 267.562625 125.469967 
L 271.317875 124.912935 
L 275.073125 124.352361 
L 278.828375 123.783334 
L 282.583625 123.232531 
L 286.338875 122.712237 
L 290.094125 122.183257 
L 293.849375 121.61068 
L 297.604625 121.069144 
L 301.359875 120.495346 
L 305.115125 119.913354 
L 308.870375 119.365238 
L 312.625625 118.746109 
L 316.380875 118.164359 
L 320.136125 117.575053 
L 323.891375 116.98897 
L 327.646625 116.406292 
L 331.401875 115.782003 
L 335.157125 115.210436 
L 338.912375 114.578214 
L 342.667625 113.905384 
L 346.422875 113.218478 
L 350.178125 112.525761 
L 353.933375 111.814456 
L 357.688625 111.073404 
L 361.443875 110.295504 
L 365.199125 109.429858 
L 368.954375 108.518202 
L 372.709625 107.545927 
L 376.464875 106.503963 
L 380.220125 105.245286 
L 383.975375 103.849195 
L 387.730625 102.074592 
L 391.485875 99.62049 
L 395.241125 95.350533 
L 398.996375 18.357885 
L 402.751625 18.357813 
" style="fill:none;stroke:#d62728;stroke-linecap:round;stroke-width:0.5;"/>
   </g>
   <g id="line2d_15">
    <path clip-path="url(#p30f1b0c204)" d="M 30.981875 264.257812 
L 34.737125 262.298305 
L 38.492375 260.641566 
L 42.247625 259.900063 
L 46.002875 258.554868 
L 49.758125 257.940556 
L 53.513375 256.80819 
L 57.268625 255.306094 
L 61.023875 252.814798 
L 64.779125 248.581299 
L 68.534375 244.307188 
L 72.289625 238.986328 
L 76.044875 235.08154 
L 79.800125 230.891164 
L 83.555375 224.372318 
L 87.310625 217.108231 
L 91.065875 214.519199 
L 94.821125 212.006341 
L 98.576375 208.904182 
L 102.331625 205.612797 
L 106.086875 201.677613 
L 109.842125 197.830448 
L 113.597375 195.163188 
L 117.352625 193.189944 
L 121.107875 191.525876 
L 124.863125 189.090284 
L 128.618375 186.485494 
L 132.373625 183.990232 
L 136.128875 181.050633 
L 139.884125 177.755905 
L 143.639375 174.515171 
L 147.394625 171.576704 
L 151.149875 168.864191 
L 154.905125 166.331405 
L 158.660375 164.115145 
L 162.415625 161.988993 
L 166.170875 159.907917 
L 169.926125 157.976277 
L 173.681375 156.239158 
L 177.436625 154.520802 
L 181.191875 152.949257 
L 184.947125 151.49728 
L 188.702375 150.145233 
L 192.457625 148.863362 
L 196.212875 147.867732 
L 199.968125 146.856662 
L 203.723375 145.808718 
L 207.478625 144.803663 
L 211.233875 143.873425 
L 214.989125 143.015847 
L 218.744375 142.142978 
L 222.499625 141.3183 
L 226.254875 140.587063 
L 230.010125 139.98392 
L 233.765375 139.240875 
L 237.520625 138.460012 
L 241.275875 137.738463 
L 245.031125 136.999725 
L 248.786375 136.249263 
L 252.541625 135.554454 
L 256.296875 134.837181 
L 260.052125 134.138774 
L 263.807375 133.406975 
L 267.562625 132.820361 
L 271.317875 132.161652 
L 275.073125 131.500336 
L 278.828375 130.829472 
L 282.583625 130.168079 
L 286.338875 129.513429 
L 290.094125 128.871293 
L 293.849375 128.252755 
L 297.604625 127.623054 
L 301.359875 126.955026 
L 305.115125 126.302944 
L 308.870375 125.673067 
L 312.625625 125.088833 
L 316.380875 124.437447 
L 320.136125 123.788131 
L 323.891375 123.174546 
L 327.646625 122.519582 
L 331.401875 121.856688 
L 335.157125 121.170582 
L 338.912375 120.414781 
L 342.667625 119.666773 
L 346.422875 118.899165 
L 350.178125 118.163418 
L 353.933375 117.348604 
L 357.688625 116.530906 
L 361.443875 115.651259 
L 365.199125 114.747485 
L 368.954375 113.730919 
L 372.709625 112.643701 
L 376.464875 111.464777 
L 380.220125 110.197088 
L 383.975375 108.622924 
L 387.730625 106.657976 
L 391.485875 103.62482 
L 395.241125 94.623434 
L 398.996375 18.357863 
L 402.751625 18.357812 
" style="fill:none;stroke:#9467bd;stroke-linecap:round;stroke-width:0.5;"/>
   </g>
   <g id="patch_3">
    <path d="M 30.981875 264.257812 
L 30.981875 18.357812 
" style="fill:none;stroke:#000000;stroke-linecap:square;stroke-linejoin:miter;stroke-width:0.5;"/>
   </g>
   <g id="patch_4">
    <path d="M 402.751625 264.257812 
L 402.751625 18.357812 
" style="fill:none;stroke:#000000;stroke-linecap:square;stroke-linejoin:miter;stroke-width:0.5;"/>
   </g>
   <g id="patch_5">
    <path d="M 30.981875 264.257812 
L 402.751625 264.257812 
" style="fill:none;stroke:#000000;stroke-linecap:square;stroke-linejoin:miter;stroke-width:0.5;"/>
   </g>
   <g id="patch_6">
    <path d="M 30.981875 18.357812 
L 402.751625 18.357812 
" style="fill:none;stroke:#000000;stroke-linecap:square;stroke-linejoin:miter;stroke-width:0.5;"/>
   </g>
   <g id="text_12">
    <!-- 1s -->
    <defs>
     <path d="M 14.203125 0 
L 14.203125 5.171875 
L 26.90625 5.171875 
L 26.90625 65.828125 
L 12.203125 56.296875 
L 12.203125 62.703125 
L 29.984375 74.21875 
L 36.71875 74.21875 
L 36.71875 5.171875 
L 49.421875 5.171875 
L 49.421875 0 
z
" id="DejaVuSerif-49"/>
     <path d="M 5.609375 2.875 
L 5.609375 14.984375 
L 10.796875 14.984375 
Q 10.984375 9.1875 14.421875 6.296875 
Q 17.875 3.421875 24.609375 3.421875 
Q 30.671875 3.421875 33.84375 5.6875 
Q 37.015625 7.953125 37.015625 12.3125 
Q 37.015625 15.71875 34.6875 17.8125 
Q 32.375 19.921875 24.90625 22.3125 
L 18.40625 24.515625 
Q 11.71875 26.65625 8.71875 29.875 
Q 5.71875 33.109375 5.71875 38.09375 
Q 5.71875 45.21875 10.9375 49.265625 
Q 16.15625 53.328125 25.390625 53.328125 
Q 29.5 53.328125 34.03125 52.25 
Q 38.578125 51.171875 43.40625 49.125 
L 43.40625 37.796875 
L 38.234375 37.796875 
Q 38.03125 42.828125 34.703125 45.65625 
Q 31.390625 48.484375 25.6875 48.484375 
Q 20.015625 48.484375 17.109375 46.484375 
Q 14.203125 44.484375 14.203125 40.484375 
Q 14.203125 37.203125 16.40625 35.21875 
Q 18.609375 33.25 25.203125 31.203125 
L 32.328125 29 
Q 39.703125 26.703125 42.9375 23.265625 
Q 46.1875 19.828125 46.1875 14.40625 
Q 46.1875 7.03125 40.546875 2.796875 
Q 34.90625 -1.421875 25 -1.421875 
Q 19.96875 -1.421875 15.1875 -0.34375 
Q 10.40625 0.734375 5.609375 2.875 
z
" id="DejaVuSerif-115"/>
    </defs>
    <g transform="translate(406.506875 142.996973)scale(0.1 -0.1)">
     <use xlink:href="#DejaVuSerif-49"/>
     <use x="63.623047" xlink:href="#DejaVuSerif-115"/>
    </g>
   </g>
   <g id="text_13">
    <!-- 1s -->
    <g transform="translate(406.506875 142.996973)scale(0.1 -0.1)">
     <use xlink:href="#DejaVuSerif-49"/>
     <use x="63.623047" xlink:href="#DejaVuSerif-115"/>
    </g>
   </g>
   <g id="text_14">
    <!-- 1s -->
    <g transform="translate(406.506875 142.996973)scale(0.1 -0.1)">
     <use xlink:href="#DejaVuSerif-49"/>
     <use x="63.623047" xlink:href="#DejaVuSerif-115"/>
    </g>
   </g>
   <g id="text_15">
    <!-- 1s -->
    <g transform="translate(406.506875 142.996973)scale(0.1 -0.1)">
     <use xlink:href="#DejaVuSerif-49"/>
     <use x="63.623047" xlink:href="#DejaVuSerif-115"/>
    </g>
   </g>
   <g id="text_16">
    <!-- 1s -->
    <g transform="translate(406.506875 142.996973)scale(0.1 -0.1)">
     <use xlink:href="#DejaVuSerif-49"/>
     <use x="63.623047" xlink:href="#DejaVuSerif-115"/>
    </g>
   </g>
   <g id="text_17">
    <!-- Percentiles of Trade Intervals -->
    <defs>
     <path d="M 7.71875 0 
L 7.71875 71.578125 
L 34.71875 71.578125 
Q 41.84375 71.578125 45.609375 70.90625 
Q 50.875 70.015625 54.4375 67.546875 
Q 58.015625 65.09375 60.1875 60.640625 
Q 62.359375 56.203125 62.359375 50.875 
Q 62.359375 41.75 56.546875 35.421875 
Q 50.734375 29.109375 35.546875 29.109375 
L 17.1875 29.109375 
L 17.1875 0 
z
M 17.1875 37.546875 
L 35.6875 37.546875 
Q 44.875 37.546875 48.734375 40.96875 
Q 52.59375 44.390625 52.59375 50.59375 
Q 52.59375 55.078125 50.3125 58.265625 
Q 48.046875 61.46875 44.34375 62.5 
Q 41.9375 63.140625 35.5 63.140625 
L 17.1875 63.140625 
z
" id="ArialMT-80"/>
     <path d="M 6.5 0 
L 6.5 51.859375 
L 14.40625 51.859375 
L 14.40625 44 
Q 17.4375 49.515625 20 51.265625 
Q 22.5625 53.03125 25.640625 53.03125 
Q 30.078125 53.03125 34.671875 50.203125 
L 31.640625 42.046875 
Q 28.421875 43.953125 25.203125 43.953125 
Q 22.3125 43.953125 20.015625 42.21875 
Q 17.71875 40.484375 16.75 37.40625 
Q 15.28125 32.71875 15.28125 27.15625 
L 15.28125 0 
z
" id="ArialMT-114"/>
     <path d="M 25.78125 7.859375 
L 27.046875 0.09375 
Q 23.34375 -0.6875 20.40625 -0.6875 
Q 15.625 -0.6875 12.984375 0.828125 
Q 10.359375 2.34375 9.28125 4.8125 
Q 8.203125 7.28125 8.203125 15.1875 
L 8.203125 45.015625 
L 1.765625 45.015625 
L 1.765625 51.859375 
L 8.203125 51.859375 
L 8.203125 64.703125 
L 16.9375 69.96875 
L 16.9375 51.859375 
L 25.78125 51.859375 
L 25.78125 45.015625 
L 16.9375 45.015625 
L 16.9375 14.703125 
Q 16.9375 10.9375 17.40625 9.859375 
Q 17.875 8.796875 18.921875 8.15625 
Q 19.96875 7.515625 21.921875 7.515625 
Q 23.390625 7.515625 25.78125 7.859375 
z
" id="ArialMT-116"/>
     <path id="ArialMT-32"/>
     <path d="M 8.6875 0 
L 8.6875 45.015625 
L 0.921875 45.015625 
L 0.921875 51.859375 
L 8.6875 51.859375 
L 8.6875 57.375 
Q 8.6875 62.59375 9.625 65.140625 
Q 10.890625 68.5625 14.078125 70.671875 
Q 17.28125 72.796875 23.046875 72.796875 
Q 26.765625 72.796875 31.25 71.921875 
L 29.9375 64.265625 
Q 27.203125 64.75 24.75 64.75 
Q 20.75 64.75 19.09375 63.03125 
Q 17.4375 61.328125 17.4375 56.640625 
L 17.4375 51.859375 
L 27.546875 51.859375 
L 27.546875 45.015625 
L 17.4375 45.015625 
L 17.4375 0 
z
" id="ArialMT-102"/>
     <path d="M 25.921875 0 
L 25.921875 63.140625 
L 2.34375 63.140625 
L 2.34375 71.578125 
L 59.078125 71.578125 
L 59.078125 63.140625 
L 35.40625 63.140625 
L 35.40625 0 
z
" id="ArialMT-84"/>
     <path d="M 40.4375 6.390625 
Q 35.546875 2.25 31.03125 0.53125 
Q 26.515625 -1.171875 21.34375 -1.171875 
Q 12.796875 -1.171875 8.203125 3 
Q 3.609375 7.171875 3.609375 13.671875 
Q 3.609375 17.484375 5.34375 20.625 
Q 7.078125 23.78125 9.890625 25.6875 
Q 12.703125 27.59375 16.21875 28.5625 
Q 18.796875 29.25 24.03125 29.890625 
Q 34.671875 31.15625 39.703125 32.90625 
Q 39.75 34.71875 39.75 35.203125 
Q 39.75 40.578125 37.25 42.78125 
Q 33.890625 45.75 27.25 45.75 
Q 21.046875 45.75 18.09375 43.578125 
Q 15.140625 41.40625 13.71875 35.890625 
L 5.125 37.0625 
Q 6.296875 42.578125 8.984375 45.96875 
Q 11.671875 49.359375 16.75 51.1875 
Q 21.828125 53.03125 28.515625 53.03125 
Q 35.15625 53.03125 39.296875 51.46875 
Q 43.453125 49.90625 45.40625 47.53125 
Q 47.359375 45.171875 48.140625 41.546875 
Q 48.578125 39.3125 48.578125 33.453125 
L 48.578125 21.734375 
Q 48.578125 9.46875 49.140625 6.21875 
Q 49.703125 2.984375 51.375 0 
L 42.1875 0 
Q 40.828125 2.734375 40.4375 6.390625 
z
M 39.703125 26.03125 
Q 34.90625 24.078125 25.34375 22.703125 
Q 19.921875 21.921875 17.671875 20.9375 
Q 15.4375 19.96875 14.203125 18.09375 
Q 12.984375 16.21875 12.984375 13.921875 
Q 12.984375 10.40625 15.640625 8.0625 
Q 18.3125 5.71875 23.4375 5.71875 
Q 28.515625 5.71875 32.46875 7.9375 
Q 36.421875 10.15625 38.28125 14.015625 
Q 39.703125 17 39.703125 22.796875 
z
" id="ArialMT-97"/>
     <path d="M 9.328125 0 
L 9.328125 71.578125 
L 18.796875 71.578125 
L 18.796875 0 
z
" id="ArialMT-73"/>
     <path d="M 21 0 
L 1.265625 51.859375 
L 10.546875 51.859375 
L 21.6875 20.796875 
Q 23.484375 15.765625 25 10.359375 
Q 26.171875 14.453125 28.265625 20.21875 
L 39.796875 51.859375 
L 48.828125 51.859375 
L 29.203125 0 
z
" id="ArialMT-118"/>
    </defs>
    <g transform="translate(151.844875 14.357812)scale(0.1 -0.1)">
     <use xlink:href="#ArialMT-80"/>
     <use x="66.699219" xlink:href="#ArialMT-101"/>
     <use x="122.314453" xlink:href="#ArialMT-114"/>
     <use x="155.615234" xlink:href="#ArialMT-99"/>
     <use x="205.615234" xlink:href="#ArialMT-101"/>
     <use x="261.230469" xlink:href="#ArialMT-110"/>
     <use x="316.845703" xlink:href="#ArialMT-116"/>
     <use x="344.628906" xlink:href="#ArialMT-105"/>
     <use x="366.845703" xlink:href="#ArialMT-108"/>
     <use x="389.0625" xlink:href="#ArialMT-101"/>
     <use x="444.677734" xlink:href="#ArialMT-115"/>
     <use x="494.677734" xlink:href="#ArialMT-32"/>
     <use x="522.460938" xlink:href="#ArialMT-111"/>
     <use x="578.076172" xlink:href="#ArialMT-102"/>
     <use x="605.859375" xlink:href="#ArialMT-32"/>
     <use x="633.626953" xlink:href="#ArialMT-84"/>
     <use x="694.664062" xlink:href="#ArialMT-114"/>
     <use x="727.964844" xlink:href="#ArialMT-97"/>
     <use x="783.580078" xlink:href="#ArialMT-100"/>
     <use x="839.195312" xlink:href="#ArialMT-101"/>
     <use x="894.810547" xlink:href="#ArialMT-32"/>
     <use x="922.59375" xlink:href="#ArialMT-73"/>
     <use x="950.376953" xlink:href="#ArialMT-110"/>
     <use x="1005.992188" xlink:href="#ArialMT-116"/>
     <use x="1033.775391" xlink:href="#ArialMT-101"/>
     <use x="1089.390625" xlink:href="#ArialMT-114"/>
     <use x="1122.691406" xlink:href="#ArialMT-118"/>
     <use x="1172.691406" xlink:href="#ArialMT-97"/>
     <use x="1228.306641" xlink:href="#ArialMT-108"/>
     <use x="1250.523438" xlink:href="#ArialMT-115"/>
    </g>
   </g>
   <g id="legend_1">
    <g id="line2d_16">
     <path d="M 38.181875 28.484062 
L 54.181875 28.484062 
" style="fill:none;stroke:#1f77b4;stroke-linecap:round;stroke-width:0.5;"/>
    </g>
    <g id="line2d_17"/>
    <g id="text_18">
     <!-- INTC -->
     <defs>
      <path d="M 7.625 0 
L 7.625 71.578125 
L 17.328125 71.578125 
L 54.9375 15.375 
L 54.9375 71.578125 
L 64.015625 71.578125 
L 64.015625 0 
L 54.296875 0 
L 16.703125 56.25 
L 16.703125 0 
z
" id="ArialMT-78"/>
      <path d="M 58.796875 25.09375 
L 68.265625 22.703125 
Q 65.28125 11.03125 57.546875 4.90625 
Q 49.8125 -1.21875 38.625 -1.21875 
Q 27.046875 -1.21875 19.796875 3.484375 
Q 12.546875 8.203125 8.765625 17.140625 
Q 4.984375 26.078125 4.984375 36.328125 
Q 4.984375 47.515625 9.25 55.828125 
Q 13.53125 64.15625 21.40625 68.46875 
Q 29.296875 72.796875 38.765625 72.796875 
Q 49.515625 72.796875 56.828125 67.328125 
Q 64.15625 61.859375 67.046875 51.953125 
L 57.71875 49.75 
Q 55.21875 57.5625 50.484375 61.125 
Q 45.75 64.703125 38.578125 64.703125 
Q 30.328125 64.703125 24.78125 60.734375 
Q 19.234375 56.78125 16.984375 50.109375 
Q 14.75 43.453125 14.75 36.375 
Q 14.75 27.25 17.40625 20.4375 
Q 20.0625 13.625 25.671875 10.25 
Q 31.296875 6.890625 37.84375 6.890625 
Q 45.796875 6.890625 51.3125 11.46875 
Q 56.84375 16.0625 58.796875 25.09375 
z
" id="ArialMT-67"/>
     </defs>
     <g transform="translate(60.581875 31.284062)scale(0.08 -0.08)">
      <use xlink:href="#ArialMT-73"/>
      <use x="27.783203" xlink:href="#ArialMT-78"/>
      <use x="100" xlink:href="#ArialMT-84"/>
      <use x="161.083984" xlink:href="#ArialMT-67"/>
     </g>
    </g>
    <g id="line2d_18">
     <path d="M 38.181875 39.800312 
L 54.181875 39.800312 
" style="fill:none;stroke:#ff7f0e;stroke-linecap:round;stroke-width:0.5;"/>
    </g>
    <g id="line2d_19"/>
    <g id="text_19">
     <!-- JPM -->
     <defs>
      <path d="M 2.875 20.3125 
L 11.421875 21.484375 
Q 11.765625 13.28125 14.5 10.25 
Q 17.234375 7.234375 22.078125 7.234375 
Q 25.640625 7.234375 28.21875 8.859375 
Q 30.8125 10.5 31.78125 13.296875 
Q 32.765625 16.109375 32.765625 22.265625 
L 32.765625 71.578125 
L 42.234375 71.578125 
L 42.234375 22.796875 
Q 42.234375 13.8125 40.0625 8.875 
Q 37.890625 3.953125 33.171875 1.359375 
Q 28.46875 -1.21875 22.125 -1.21875 
Q 12.703125 -1.21875 7.6875 4.203125 
Q 2.6875 9.625 2.875 20.3125 
z
" id="ArialMT-74"/>
      <path d="M 7.421875 0 
L 7.421875 71.578125 
L 21.6875 71.578125 
L 38.625 20.90625 
Q 40.96875 13.8125 42.046875 10.296875 
Q 43.265625 14.203125 45.84375 21.78125 
L 62.984375 71.578125 
L 75.734375 71.578125 
L 75.734375 0 
L 66.609375 0 
L 66.609375 59.90625 
L 45.796875 0 
L 37.25 0 
L 16.546875 60.9375 
L 16.546875 0 
z
" id="ArialMT-77"/>
     </defs>
     <g transform="translate(60.581875 42.600312)scale(0.08 -0.08)">
      <use xlink:href="#ArialMT-74"/>
      <use x="50" xlink:href="#ArialMT-80"/>
      <use x="116.699219" xlink:href="#ArialMT-77"/>
     </g>
    </g>
    <g id="line2d_20">
     <path d="M 38.181875 51.116562 
L 54.181875 51.116562 
" style="fill:none;stroke:#2ca02c;stroke-linecap:round;stroke-width:0.5;"/>
    </g>
    <g id="line2d_21"/>
    <g id="text_20">
     <!-- MSFT -->
     <defs>
      <path d="M 4.5 23 
L 13.421875 23.78125 
Q 14.0625 18.40625 16.375 14.96875 
Q 18.703125 11.53125 23.578125 9.40625 
Q 28.46875 7.28125 34.578125 7.28125 
Q 39.984375 7.28125 44.140625 8.890625 
Q 48.296875 10.5 50.3125 13.296875 
Q 52.34375 16.109375 52.34375 19.4375 
Q 52.34375 22.796875 50.390625 25.3125 
Q 48.4375 27.828125 43.953125 29.546875 
Q 41.0625 30.671875 31.203125 33.03125 
Q 21.34375 35.40625 17.390625 37.5 
Q 12.25 40.1875 9.734375 44.15625 
Q 7.234375 48.140625 7.234375 53.078125 
Q 7.234375 58.5 10.296875 63.203125 
Q 13.375 67.921875 19.28125 70.359375 
Q 25.203125 72.796875 32.421875 72.796875 
Q 40.375 72.796875 46.453125 70.234375 
Q 52.546875 67.671875 55.8125 62.6875 
Q 59.078125 57.71875 59.328125 51.421875 
L 50.25 50.734375 
Q 49.515625 57.515625 45.28125 60.984375 
Q 41.0625 64.453125 32.8125 64.453125 
Q 24.21875 64.453125 20.28125 61.296875 
Q 16.359375 58.15625 16.359375 53.71875 
Q 16.359375 49.859375 19.140625 47.359375 
Q 21.875 44.875 33.421875 42.265625 
Q 44.96875 39.65625 49.265625 37.703125 
Q 55.515625 34.8125 58.484375 30.390625 
Q 61.46875 25.984375 61.46875 20.21875 
Q 61.46875 14.5 58.203125 9.4375 
Q 54.9375 4.390625 48.796875 1.578125 
Q 42.671875 -1.21875 35.015625 -1.21875 
Q 25.296875 -1.21875 18.71875 1.609375 
Q 12.15625 4.4375 8.421875 10.125 
Q 4.6875 15.828125 4.5 23 
z
" id="ArialMT-83"/>
      <path d="M 8.203125 0 
L 8.203125 71.578125 
L 56.5 71.578125 
L 56.5 63.140625 
L 17.671875 63.140625 
L 17.671875 40.96875 
L 51.265625 40.96875 
L 51.265625 32.515625 
L 17.671875 32.515625 
L 17.671875 0 
z
" id="ArialMT-70"/>
     </defs>
     <g transform="translate(60.581875 53.916562)scale(0.08 -0.08)">
      <use xlink:href="#ArialMT-77"/>
      <use x="83.300781" xlink:href="#ArialMT-83"/>
      <use x="150" xlink:href="#ArialMT-70"/>
      <use x="211.083984" xlink:href="#ArialMT-84"/>
     </g>
    </g>
    <g id="line2d_22">
     <path d="M 38.181875 62.432812 
L 54.181875 62.432812 
" style="fill:none;stroke:#d62728;stroke-linecap:round;stroke-width:0.5;"/>
    </g>
    <g id="line2d_23"/>
    <g id="text_21">
     <!-- AAPL -->
     <defs>
      <path d="M -0.140625 0 
L 27.34375 71.578125 
L 37.546875 71.578125 
L 66.84375 0 
L 56.0625 0 
L 47.703125 21.6875 
L 17.78125 21.6875 
L 9.90625 0 
z
M 20.515625 29.390625 
L 44.78125 29.390625 
L 37.3125 49.21875 
Q 33.890625 58.25 32.234375 64.0625 
Q 30.859375 57.171875 28.375 50.390625 
z
" id="ArialMT-65"/>
      <path d="M 7.328125 0 
L 7.328125 71.578125 
L 16.796875 71.578125 
L 16.796875 8.453125 
L 52.046875 8.453125 
L 52.046875 0 
z
" id="ArialMT-76"/>
     </defs>
     <g transform="translate(60.581875 65.232812)scale(0.08 -0.08)">
      <use xlink:href="#ArialMT-65"/>
      <use x="66.699219" xlink:href="#ArialMT-65"/>
      <use x="133.398438" xlink:href="#ArialMT-80"/>
      <use x="200.097656" xlink:href="#ArialMT-76"/>
     </g>
    </g>
    <g id="line2d_24">
     <path d="M 38.181875 73.749062 
L 54.181875 73.749062 
" style="fill:none;stroke:#9467bd;stroke-linecap:round;stroke-width:0.5;"/>
    </g>
    <g id="line2d_25"/>
    <g id="text_22">
     <!-- SPY -->
     <defs>
      <path d="M 27.875 0 
L 27.875 30.328125 
L 0.296875 71.578125 
L 11.8125 71.578125 
L 25.921875 50 
Q 29.828125 43.953125 33.203125 37.890625 
Q 36.421875 43.5 41.015625 50.53125 
L 54.890625 71.578125 
L 65.921875 71.578125 
L 37.359375 30.328125 
L 37.359375 0 
z
" id="ArialMT-89"/>
     </defs>
     <g transform="translate(60.581875 76.549062)scale(0.08 -0.08)">
      <use xlink:href="#ArialMT-83"/>
      <use x="66.699219" xlink:href="#ArialMT-80"/>
      <use x="133.398438" xlink:href="#ArialMT-89"/>
     </g>
    </g>
   </g>
  </g>
 </g>
 <defs>
  <clipPath id="p30f1b0c204">
   <rect height="245.9" width="371.76975" x="30.981875" y="18.357812"/>
  </clipPath>
 </defs>
</svg>
